<?xml version="1.0" encoding="UTF-8" standalone="no"?>
<!-- Created with Inkscape (http://www.inkscape.org/) -->

<svg
   width="99.994003mm"
   height="93.907249mm"
   viewBox="0 0 99.994003 93.907249"
   version="1.1"
   id="svg1"
   xml:space="preserve"
   xmlns="http://www.w3.org/2000/svg"
   xmlns:svg="http://www.w3.org/2000/svg"><defs
     id="defs1" /><g
     id="layer2"
     style="display:inline"><path
       id="path381973"
       style="display:inline;fill:#000000;stroke:#ff0000;stroke-width:0.4;stroke-linecap:square;stroke-dasharray:none"
       d="m 53.916606,9.336381 c -0.893911,0.020876 -1.791987,0.053134 -2.67839,0.1477946 0.03008,-0.076137 -0.01889,-0.05612 -0.0863,0.010852 -4.440499,0.4898347 -8.657388,2.1463584 -11.928471,5.4590984 -11.779432,10.515376 -18.42576,27.193207 -15.763379,42.868701 -0.01472,-0.01142 0.452669,2.505553 0.808736,3.725354 0.03381,0.115831 0.08159,0.22715 0.125574,0.339514 0.373637,0.954601 0.635487,1.763466 1.174605,2.842204 0.118196,0.241941 0.250849,0.475333 0.376204,0.713135 0.09383,0.188418 -0.01967,-0.02531 0.08423,0.15813 1.15841,2.161961 2.602755,4.152597 4.274674,5.943306 -0.0222,0.07805 0.01147,0.09112 0.06976,0.07751 0.641958,0.682863 1.335389,1.317402 2.023132,1.954919 0.003,0.0029 0.0061,0.0057 0.0093,0.0083 1.778196,1.422844 4.406623,3.327944 5.549015,3.985803 0.240638,0.132826 3.59102,1.875483 5.455998,2.559017 4.527744,2.876596 8.236632,7.259786 12.923242,10.058817 0.100049,0.05976 0.209711,0.103077 0.319877,0.141077 1.008109,0.34771 2.049068,0.610591 3.100586,0.788065 0.332084,0.05605 0.669888,0.0834 1.006657,0.0863 0.45028,0.0038 0.899184,-0.05273 1.347721,-0.0925 0.728346,-0.06457 1.457092,-0.132397 2.180746,-0.237195 0.873718,-0.12653 1.744008,-0.284831 2.606042,-0.472322 0.417231,-0.10491 1.029542,-0.26583 1.88619,-0.462504 h 0.001 c 0.38407,-0.104804 0.893665,-0.255286 1.219047,-0.345716 9.459327,-2.924895 17.761373,-9.539213 22.968108,-17.967378 0.441616,-0.656199 5.957918,-9.082952 5.704044,-20.186882 -0.03143,-0.760909 -0.0825,-1.620182 -0.17725,-2.425175 -0.266311,-2.262593 -0.566633,-4.524903 -1.098124,-6.745841 0.0082,-0.0081 0.0023,-0.0163 -0.0083,-0.02894 C 96.946949,40.38966 95.74359,36.696402 95.68925,36.697502 95.557687,36.349563 95.421478,36.00361 95.264986,35.666557 94.120021,33.200523 92.981782,30.678953 91.506042,28.427722 90.224522,26.57942 87.982672,23.881288 87.122847,23.264213 81.19617,17.445707 73.416516,13.603037 65.430115,11.441679 62.001658,10.16961 58.133956,9.7079454 54.413733,9.3405151 c -0.164886,-0.016287 -0.331484,-0.008 -0.497127,-0.00413 z m 7.531323,8.932271 c 9.438495,-0.01744 18.931599,4.405954 24.028507,12.537736 7.557332,10.736872 6.270306,26.718487 -3.115055,35.96628 -5.624337,6.019633 -14.048483,9.166045 -22.239986,8.505941 C 48.799931,74.795365 37.517693,67.47754 34.11213,56.381571 29.296335,43.15723 35.913861,26.639797 49.029049,21.113957 c 3.849646,-1.911967 8.128655,-2.837376 12.41888,-2.845305 z" /></g></svg>
