<?xml version="1.0" encoding="UTF-8" standalone="no"?>
<!-- Created with Inkscape (http://www.inkscape.org/) -->

<svg
   width="99.994003mm"
   height="93.907249mm"
   viewBox="0 0 99.994003 93.907249"
   version="1.1"
   id="svg1"
   xml:space="preserve"
   inkscape:version="1.3.2 (1:1.3.2+202311252150+091e20ef0f)"
   sodipodi:docname="diffuser.svg"
   inkscape:export-filename="front-copper.svg"
   inkscape:export-xdpi="96"
   inkscape:export-ydpi="96"
   xmlns:inkscape="http://www.inkscape.org/namespaces/inkscape"
   xmlns:sodipodi="http://sodipodi.sourceforge.net/DTD/sodipodi-0.dtd"
   xmlns="http://www.w3.org/2000/svg"
   xmlns:svg="http://www.w3.org/2000/svg"><sodipodi:namedview
     id="namedview1"
     pagecolor="#ffffff"
     bordercolor="#000000"
     borderopacity="0.25"
     inkscape:showpageshadow="2"
     inkscape:pageopacity="0.0"
     inkscape:pagecheckerboard="0"
     inkscape:deskcolor="#d1d1d1"
     inkscape:document-units="mm"
     inkscape:zoom="4"
     inkscape:cx="258.875"
     inkscape:cy="179.25"
     inkscape:window-width="1685"
     inkscape:window-height="1376"
     inkscape:window-x="70"
     inkscape:window-y="1467"
     inkscape:window-maximized="0"
     inkscape:current-layer="layer2"
     showgrid="false" /><defs
     id="defs1"><filter
       style="color-interpolation-filters:sRGB;"
       inkscape:label="Greyscale"
       id="filter7344"
       x="0"
       y="0"
       width="1"
       height="1"><feColorMatrix
         values="0.21 0.72 0.072 -0.2 0 0.21 0.72 0.072 -0.2 0 0.21 0.72 0.072 -0.2 0 0 0 0 1 0 "
         id="feColorMatrix7344" /></filter></defs><g
     inkscape:groupmode="layer"
     id="layer6"
     inkscape:label="Background" /><g
     inkscape:groupmode="layer"
     id="layer2"
     inkscape:label="Perimeters"
     style="display:inline"><path
       id="rect45435"
       style="display:inline;fill:none;stroke:#ff0000;stroke-width:0.4;stroke-linecap:square;stroke-dasharray:none"
       d="m 54.413732,9.340511 c 3.720223,0.3674303 7.587925,0.829095 11.016382,2.101164 7.986401,2.161358 15.766055,6.004028 21.692732,11.822534 0.859825,0.617075 3.101672,3.315211 4.383192,5.163513 1.47574,2.251231 2.613983,4.7728 3.758948,7.238834 0.156492,0.337053 0.292701,0.683006 0.424264,1.030945 0.05434,-0.0011 1.2577,3.692155 1.701706,5.542294 0.01059,0.01264 0.01645,0.02084 0.0083,0.02894 0.531491,2.220938 0.831813,4.483248 1.098124,6.745841 0.09475,0.804993 0.145814,1.664272 0.177245,2.425181 0.253874,11.10393 -5.262432,19.530679 -5.704048,20.186878 -5.206735,8.428165 -13.508781,15.042483 -22.968108,17.967378 -0.325382,0.09043 -0.834977,0.240864 -1.219047,0.345668 h -0.001 c -0.856648,0.196674 -1.468954,0.357599 -1.886185,0.462509 -0.862034,0.187491 -1.732324,0.345792 -2.606042,0.472322 -0.723654,0.104798 -1.4524,0.172619 -2.180746,0.237193 -0.448537,0.03977 -0.89744,0.09631 -1.34772,0.09248 -0.336769,-0.0029 -0.674568,-0.03024 -1.006652,-0.08629 -1.051518,-0.177474 -2.092477,-0.440355 -3.100586,-0.788065 -0.110166,-0.038 -0.219827,-0.08132 -0.319876,-0.141077 -4.68661,-2.799031 -8.395498,-7.182221 -12.923242,-10.058817 -1.864978,-0.683534 -5.215359,-2.426174 -5.455997,-2.559 -1.142392,-0.657859 -3.77082,-2.562959 -5.549016,-3.985803 -0.0032,-0.0026 -0.0063,-0.0054 -0.0093,-0.0083 -0.687743,-0.637517 -1.381174,-1.272056 -2.023132,-1.954919 -0.05829,0.0136 -0.09196,5.44e-4 -0.06976,-0.07751 -1.671919,-1.790709 -3.116264,-3.781345 -4.274674,-5.943306 -0.103905,-0.183443 0.0096,0.03029 -0.08423,-0.158128 -0.125355,-0.237802 -0.258008,-0.471194 -0.376204,-0.713135 -0.539118,-1.078738 -0.800971,-1.887599 -1.174608,-2.8422 -0.04398,-0.112364 -0.09176,-0.223685 -0.125573,-0.339516 -0.356067,-1.219801 -0.823455,-3.73677 -0.808735,-3.72535 -2.662381,-15.675494 3.983947,-32.353325 15.763379,-42.868701 3.271083,-3.31274 7.487972,-4.9692637 11.928471,-5.4590984 0.06741,-0.066972 0.116382,-0.086989 0.0863,-0.010852 0.886403,-0.094661 1.784479,-0.1269185 2.67839,-0.1477946 0.165643,-0.00387 0.332162,-0.012097 0.497048,0.00419 z"
       sodipodi:nodetypes="acccacccaccccccaaaaaaccaacccccaaccccaa"
       inkscape:label="outer" /><path
       style="display:inline;fill:none;stroke:none"
       d="M 60.121147,75.278398 C 48.799683,74.795154 37.517466,67.477342 34.111903,56.381373 29.296108,43.157032 35.91398,26.639665 49.029168,21.113825 c 12.318868,-6.118294 29.033661,-2.135412 36.447346,9.692635 7.557332,10.736872 6.270477,26.718628 -3.114884,35.966421 -5.624337,6.019633 -14.04898,9.165621 -22.240483,8.505517 z"
       id="path3"
       inkscape:label="inner" /><path
       id="path1"
       style="display:inline;fill:#808080;stroke:none;stroke-width:0.4;stroke-linecap:square;stroke-dasharray:none"
       inkscape:label="diffusion"
       d="m 53.916606,9.336381 c -0.89391,0.020876 -1.791988,0.053134 -2.67839,0.1477946 0.03008,-0.076137 -0.01889,-0.05612 -0.0863,0.010852 -4.440495,0.4898342 -8.657392,2.1463614 -11.928471,5.4590984 -11.779421,10.515365 -18.425758,27.193223 -15.763379,42.868701 -0.01472,-0.01142 0.452669,2.505554 0.808736,3.725354 0.03381,0.115831 0.08159,0.22715 0.125574,0.339514 0.373636,0.9546 0.635487,1.763467 1.174605,2.842204 0.118196,0.241941 0.250849,0.475333 0.376204,0.713135 0.09383,0.188418 -0.01967,-0.02531 0.08423,0.15813 1.158409,2.161959 2.602757,4.152599 4.274674,5.943306 -0.0222,0.07805 0.01147,0.09112 0.06976,0.07751 0.641957,0.682862 1.33539,1.317403 2.023132,1.954919 0.003,0.0029 0.0061,0.0057 0.0093,0.0083 1.778194,1.422842 4.406624,3.327944 5.549015,3.985803 0.240638,0.132826 3.591022,1.875483 5.455998,2.559017 4.527739,2.876593 8.236637,7.259789 12.923242,10.058817 0.100049,0.05976 0.209711,0.103077 0.319877,0.141077 1.008108,0.34771 2.049069,0.610592 3.100586,0.788065 0.332084,0.05605 0.669888,0.0834 1.006657,0.0863 0.450279,0.0038 0.899185,-0.05273 1.347721,-0.0925 0.728345,-0.06457 1.457092,-0.132397 2.180746,-0.237195 0.873717,-0.126529 1.744009,-0.284831 2.606042,-0.472322 0.417231,-0.10491 1.029543,-0.26583 1.88619,-0.462504 h 0.001 c 0.38407,-0.104804 0.893666,-0.255286 1.219047,-0.345716 9.459318,-2.924892 17.761378,-9.539222 22.968108,-17.967378 0.441615,-0.656199 5.957918,-9.082963 5.704044,-20.186882 -0.03143,-0.760908 -0.0825,-1.620183 -0.17725,-2.425175 -0.266311,-2.26259 -0.566634,-4.524905 -1.098124,-6.745841 0.0082,-0.0081 0.0023,-0.0163 -0.0083,-0.02894 -0.444006,-1.850137 -1.647365,-5.543397 -1.701705,-5.542297 -0.131563,-0.347939 -0.267772,-0.693893 -0.424264,-1.030945 -1.144964,-2.466032 -2.283205,-4.987606 -3.758944,-7.238835 -1.281518,-1.8483 -3.52337,-4.546435 -4.383195,-5.163509 C 81.196101,17.445739 73.416433,13.603061 65.43004,11.441705 62.001586,10.169637 58.133877,9.707971 54.413658,9.340541 54.248772,9.324254 54.082173,9.332541 53.916531,9.336411 Z m 7.531323,8.932271 c 9.438486,-0.01744 18.931604,4.405962 24.028507,12.537736 7.557325,10.736862 6.270297,26.718497 -3.115055,35.96628 C 76.73705,72.792295 68.31289,75.938713 60.121395,75.278609 48.799942,74.795366 37.517689,67.477529 34.11213,56.381571 29.29634,43.157244 35.913874,26.639791 49.029049,21.113957 c 3.849642,-1.911965 8.128659,-2.837376 12.41888,-2.845305 z" /></g><g
     inkscape:groupmode="layer"
     id="layer1"
     inkscape:label="Courtyards"><rect
       style="fill:none;stroke:#ff0000;stroke-width:0.1;stroke-linecap:square"
       id="rect2"
       width="4.5091939"
       height="5.8476624"
       x="58.612156"
       y="42.513138" /><rect
       style="fill:none;stroke:#ff0000;stroke-width:0.0670057;stroke-linecap:square"
       id="rect4"
       width="4.9329944"
       height="2.9329944"
       x="59.488987"
       y="19.878544" /><rect
       style="fill:none;stroke:#ff0000;stroke-width:0.0678635;stroke-linecap:square"
       id="rect6"
       width="2.9321365"
       height="4.9321365"
       x="33.907166"
       y="45.532001" /><rect
       style="fill:none;stroke:#ff0000;stroke-width:0.0767698;stroke-linecap:square"
       id="rect8"
       width="4.9232302"
       height="2.9232302"
       x="59.786655"
       y="70.903358" /><path
       id="rect10"
       style="fill:none;stroke:#ff0000;stroke-width:0.0736662;stroke-linecap:square"
       d="m 85.60379,45.53503 h 2.926334 v 4.926334 H 85.60379 Z" /><g
       id="g14"
       transform="matrix(1.3,0,0,1.3,-17.42541,-7.1999808)"
       style="stroke:#ff0000;fill:none"><path
         d="m 56.4047,23.049936 h 3.36"
         id="path959-12"
         style="fill:none;stroke:#ff0000;stroke-width:0.05;stroke-linecap:round;stroke-linejoin:round;stroke-opacity:1" /><path
         d="m 56.4047,24.949936 v -1.9"
         id="path960-2"
         style="fill:none;stroke:#ff0000;stroke-width:0.05;stroke-linecap:round;stroke-linejoin:round;stroke-opacity:1" /><path
         d="m 59.7647,23.049936 v 1.9"
         id="path961-77"
         style="fill:none;stroke:#ff0000;stroke-width:0.05;stroke-linecap:round;stroke-linejoin:round;stroke-opacity:1" /><path
         d="m 59.7647,24.949936 h -3.36"
         id="path962-9"
         style="fill:none;stroke:#ff0000;stroke-width:0.05;stroke-linecap:round;stroke-linejoin:round;stroke-opacity:1" /></g><g
       id="g13"
       transform="matrix(1.3,0,0,1.3,-25.34916,-13.349981)"
       style="stroke:#ff0000;fill:none"><path
         d="m 83.5472,42.819936 h 1.9"
         id="path963-1"
         style="fill:none;stroke:#ff0000;stroke-width:0.05;stroke-linecap:round;stroke-linejoin:round;stroke-opacity:1" /><path
         d="m 83.5472,46.179936 v -3.36"
         id="path964-4"
         style="fill:none;stroke:#ff0000;stroke-width:0.05;stroke-linecap:round;stroke-linejoin:round;stroke-opacity:1" /><path
         d="m 85.4472,42.819936 v 3.36"
         id="path965-0"
         style="fill:none;stroke:#ff0000;stroke-width:0.05;stroke-linecap:round;stroke-linejoin:round;stroke-opacity:1" /><path
         d="m 85.4472,46.179936 h -1.9"
         id="path966-4"
         style="fill:none;stroke:#ff0000;stroke-width:0.05;stroke-linecap:round;stroke-linejoin:round;stroke-opacity:1" /></g><g
       id="g11"
       transform="matrix(1.3,0,0,1.3,-19.49916,-13.799981)"
       style="stroke:#ff0000;fill:none"><path
         d="m 63.3172,45.049936 h 3.36"
         id="path967-7"
         style="fill:none;stroke:#ff0000;stroke-width:0.05;stroke-linecap:round;stroke-linejoin:round;stroke-opacity:1" /><path
         d="m 63.3172,46.949936 v -1.9"
         id="path968-8"
         style="fill:none;stroke:#ff0000;stroke-width:0.05;stroke-linecap:round;stroke-linejoin:round;stroke-opacity:1" /><path
         d="m 66.6772,45.049936 v 1.9"
         id="path969-7"
         style="fill:none;stroke:#ff0000;stroke-width:0.05;stroke-linecap:round;stroke-linejoin:round;stroke-opacity:1" /><path
         d="m 66.6772,46.949936 h -3.36"
         id="path970-6"
         style="fill:none;stroke:#ff0000;stroke-width:0.05;stroke-linecap:round;stroke-linejoin:round;stroke-opacity:1" /></g><g
       id="g12"
       transform="matrix(1.05,0,0,1.05,-3.11061,-3.2884968)"
       style="stroke:#ff0000;fill:none"><path
         d="m 54.0672,60.819936 v 9.9"
         id="path971-8"
         style="fill:none;stroke:#ff0000;stroke-width:0.05;stroke-linecap:round;stroke-linejoin:round;stroke-opacity:1" /><path
         d="m 54.0672,70.719936 h 16.29"
         id="path972-0"
         style="fill:none;stroke:#ff0000;stroke-width:0.05;stroke-linecap:round;stroke-linejoin:round;stroke-opacity:1" /><path
         d="m 70.3572,60.819936 h -16.29"
         id="path973-8"
         style="fill:none;stroke:#ff0000;stroke-width:0.05;stroke-linecap:round;stroke-linejoin:round;stroke-opacity:1" /><path
         d="m 70.3572,70.719936 v -9.9"
         id="path974-6"
         style="fill:none;stroke:#ff0000;stroke-width:0.05;stroke-linecap:round;stroke-linejoin:round;stroke-opacity:1" /></g><g
       id="g15"
       transform="matrix(1.3,0,0,1.3,-11.39916,-15.599981)"
       style="stroke:#ff0000;fill:none"><path
         d="m 37.0472,50.319936 h 1.9"
         id="path975-1"
         style="fill:none;stroke:#ff0000;stroke-width:0.05;stroke-linecap:round;stroke-linejoin:round;stroke-opacity:1" /><path
         d="m 37.0472,53.679936 v -3.36"
         id="path976-4"
         style="fill:none;stroke:#ff0000;stroke-width:0.05;stroke-linecap:round;stroke-linejoin:round;stroke-opacity:1" /><path
         d="m 38.9472,50.319936 v 3.36"
         id="path977-5"
         style="fill:none;stroke:#ff0000;stroke-width:0.05;stroke-linecap:round;stroke-linejoin:round;stroke-opacity:1" /><path
         d="m 38.9472,53.679936 h -1.9"
         id="path978-2"
         style="fill:none;stroke:#ff0000;stroke-width:0.05;stroke-linecap:round;stroke-linejoin:round;stroke-opacity:1" /></g><g
       id="g16"
       transform="matrix(1.3,0,0,1.3,-20.09916,-21.599981)"
       style="stroke:#ff0000;fill:none"><path
         d="m 65.3172,71.049936 h 3.36"
         id="path979-5"
         style="fill:none;stroke:#ff0000;stroke-width:0.05;stroke-linecap:round;stroke-linejoin:round;stroke-opacity:1" /><path
         d="m 65.3172,72.949936 v -1.9"
         id="path980-9"
         style="fill:none;stroke:#ff0000;stroke-width:0.05;stroke-linecap:round;stroke-linejoin:round;stroke-opacity:1" /><path
         d="m 68.6772,71.049936 v 1.9"
         id="path981"
         style="fill:none;stroke:#ff0000;stroke-width:0.05;stroke-linecap:round;stroke-linejoin:round;stroke-opacity:1" /><path
         d="m 68.6772,72.949936 h -3.36"
         id="path982"
         style="fill:none;stroke:#ff0000;stroke-width:0.05;stroke-linecap:round;stroke-linejoin:round;stroke-opacity:1" /></g></g></svg>
