<?xml version="1.0" standalone="no"?>
 <!DOCTYPE svg PUBLIC "-//W3C//DTD SVG 1.1//EN" 
 "http://www.w3.org/Graphics/SVG/1.1/DTD/svg11.dtd"> 
<svg
  xmlns:svg="http://www.w3.org/2000/svg"
  xmlns="http://www.w3.org/2000/svg"
  xmlns:xlink="http://www.w3.org/1999/xlink"
  version="1.1"
  width="297.0022mm" height="210.0072mm" viewBox="0.0000 0.0000 297.0022 210.0072">
<title>SVG Image created as eclipse_sao_v1-Edge_Cuts.svg date 2024/10/27 20:13:56 </title>
  <desc>Image generated by PCBNEW </desc>
<g style="fill:#000000; fill-opacity:1.0000;stroke:#000000; stroke-opacity:1.0000;
stroke-linecap:round; stroke-linejoin:round;"
 transform="translate(0 0) scale(1 1)">
</g>
<g style="fill:none; 
stroke:#000000; stroke-width:0.1500; stroke-opacity:1; 
stroke-linecap:round; stroke-linejoin:round;">
<path d="M177.0022 166.0072
L285.0022 166.0072
L285.0022 198.0072
L177.0022 198.0072
L177.0022 166.0072
" />
</g>
<g style="fill:none; 
stroke:#000000; stroke-width:0.1500; stroke-opacity:1; 
stroke-linecap:round; stroke-linejoin:round;">
<path d="M10.0000 10.0000
L287.0022 10.0000
L287.0022 200.0072
L10.0000 200.0072
L10.0000 10.0000
" />
</g>
<g style="fill:none; 
stroke:#000000; stroke-width:0.1500; stroke-opacity:1; 
stroke-linecap:round; stroke-linejoin:round;">
<path d="M12.0000 12.0000
L285.0022 12.0000
L285.0022 198.0072
L12.0000 198.0072
L12.0000 12.0000
" />
</g>
<g style="fill:none; 
stroke:#000000; stroke-width:0.1500; stroke-opacity:1; 
stroke-linecap:round; stroke-linejoin:round;">
<path d="M60.0000 12.0000
L60.0000 10.0000
" />
</g>
<g style="fill:none; 
stroke:#000000; stroke-width:0.1500; stroke-opacity:1; 
stroke-linecap:round; stroke-linejoin:round;">
<path d="M110.0000 12.0000
L110.0000 10.0000
" />
</g>
<g style="fill:none; 
stroke:#000000; stroke-width:0.1500; stroke-opacity:1; 
stroke-linecap:round; stroke-linejoin:round;">
<path d="M160.0000 12.0000
L160.0000 10.0000
" />
</g>
<g style="fill:none; 
stroke:#000000; stroke-width:0.1500; stroke-opacity:1; 
stroke-linecap:round; stroke-linejoin:round;">
<path d="M210.0000 12.0000
L210.0000 10.0000
" />
</g>
<g style="fill:none; 
stroke:#000000; stroke-width:0.1500; stroke-opacity:1; 
stroke-linecap:round; stroke-linejoin:round;">
<path d="M260.0000 12.0000
L260.0000 10.0000
" />
</g>
<g style="fill:none; 
stroke:#000000; stroke-width:0.1500; stroke-opacity:1; 
stroke-linecap:round; stroke-linejoin:round;">
<text x="35.0000" y="11.6500"
textLength="1.4281" font-size="1.7333" lengthAdjust="spacingAndGlyphs"
text-anchor="start" opacity="0" stroke-opacity="0">1</text>
<g class="stroked-text"><desc>1</desc>
<path d="M36.0892 11.5936
L35.3463 11.5936
" />
<path d="M35.7177 11.5936
L35.7177 10.2936
" />
<path d="M35.7177 10.2936
L35.5939 10.4793
" />
<path d="M35.5939 10.4793
L35.4701 10.6031
" />
<path d="M35.4701 10.6031
L35.3463 10.6650
" />
</g></g>
<g style="fill:none; 
stroke:#000000; stroke-width:0.1500; stroke-opacity:1; 
stroke-linecap:round; stroke-linejoin:round;">
<text x="85.0000" y="11.6500"
textLength="1.4281" font-size="1.7333" lengthAdjust="spacingAndGlyphs"
text-anchor="start" opacity="0" stroke-opacity="0">2</text>
<g class="stroked-text"><desc>2</desc>
<path d="M85.3463 10.4174
L85.4082 10.3555
" />
<path d="M85.4082 10.3555
L85.5320 10.2936
" />
<path d="M85.5320 10.2936
L85.8415 10.2936
" />
<path d="M85.8415 10.2936
L85.9654 10.3555
" />
<path d="M85.9654 10.3555
L86.0273 10.4174
" />
<path d="M86.0273 10.4174
L86.0892 10.5412
" />
<path d="M86.0892 10.5412
L86.0892 10.6650
" />
<path d="M86.0892 10.6650
L86.0273 10.8507
" />
<path d="M86.0273 10.8507
L85.2844 11.5936
" />
<path d="M85.2844 11.5936
L86.0892 11.5936
" />
</g></g>
<g style="fill:none; 
stroke:#000000; stroke-width:0.1500; stroke-opacity:1; 
stroke-linecap:round; stroke-linejoin:round;">
<text x="135.0000" y="11.6500"
textLength="1.4281" font-size="1.7333" lengthAdjust="spacingAndGlyphs"
text-anchor="start" opacity="0" stroke-opacity="0">3</text>
<g class="stroked-text"><desc>3</desc>
<path d="M135.2844 10.2936
L136.0892 10.2936
" />
<path d="M136.0892 10.2936
L135.6558 10.7888
" />
<path d="M135.6558 10.7888
L135.8415 10.7888
" />
<path d="M135.8415 10.7888
L135.9654 10.8507
" />
<path d="M135.9654 10.8507
L136.0273 10.9127
" />
<path d="M136.0273 10.9127
L136.0892 11.0365
" />
<path d="M136.0892 11.0365
L136.0892 11.3460
" />
<path d="M136.0892 11.3460
L136.0273 11.4698
" />
<path d="M136.0273 11.4698
L135.9654 11.5317
" />
<path d="M135.9654 11.5317
L135.8415 11.5936
" />
<path d="M135.8415 11.5936
L135.4701 11.5936
" />
<path d="M135.4701 11.5936
L135.3463 11.5317
" />
<path d="M135.3463 11.5317
L135.2844 11.4698
" />
</g></g>
<g style="fill:none; 
stroke:#000000; stroke-width:0.1500; stroke-opacity:1; 
stroke-linecap:round; stroke-linejoin:round;">
<text x="185.0000" y="11.6500"
textLength="1.4281" font-size="1.7333" lengthAdjust="spacingAndGlyphs"
text-anchor="start" opacity="0" stroke-opacity="0">4</text>
<g class="stroked-text"><desc>4</desc>
<path d="M185.9654 10.7269
L185.9654 11.5936
" />
<path d="M185.6558 10.2317
L185.3463 11.1603
" />
<path d="M185.3463 11.1603
L186.1511 11.1603
" />
</g></g>
<g style="fill:none; 
stroke:#000000; stroke-width:0.1500; stroke-opacity:1; 
stroke-linecap:round; stroke-linejoin:round;">
<text x="235.0000" y="11.6500"
textLength="1.4281" font-size="1.7333" lengthAdjust="spacingAndGlyphs"
text-anchor="start" opacity="0" stroke-opacity="0">5</text>
<g class="stroked-text"><desc>5</desc>
<path d="M236.0273 10.2936
L235.4082 10.2936
" />
<path d="M235.4082 10.2936
L235.3463 10.9127
" />
<path d="M235.3463 10.9127
L235.4082 10.8507
" />
<path d="M235.4082 10.8507
L235.5320 10.7888
" />
<path d="M235.5320 10.7888
L235.8415 10.7888
" />
<path d="M235.8415 10.7888
L235.9654 10.8507
" />
<path d="M235.9654 10.8507
L236.0273 10.9127
" />
<path d="M236.0273 10.9127
L236.0892 11.0365
" />
<path d="M236.0892 11.0365
L236.0892 11.3460
" />
<path d="M236.0892 11.3460
L236.0273 11.4698
" />
<path d="M236.0273 11.4698
L235.9654 11.5317
" />
<path d="M235.9654 11.5317
L235.8415 11.5936
" />
<path d="M235.8415 11.5936
L235.5320 11.5936
" />
<path d="M235.5320 11.5936
L235.4082 11.5317
" />
<path d="M235.4082 11.5317
L235.3463 11.4698
" />
</g></g>
<g style="fill:none; 
stroke:#000000; stroke-width:0.1500; stroke-opacity:1; 
stroke-linecap:round; stroke-linejoin:round;">
<text x="285.0000" y="11.6500"
textLength="1.4281" font-size="1.7333" lengthAdjust="spacingAndGlyphs"
text-anchor="start" opacity="0" stroke-opacity="0">6</text>
<g class="stroked-text"><desc>6</desc>
<path d="M285.9654 10.2936
L285.7177 10.2936
" />
<path d="M285.7177 10.2936
L285.5939 10.3555
" />
<path d="M285.5939 10.3555
L285.5320 10.4174
" />
<path d="M285.5320 10.4174
L285.4082 10.6031
" />
<path d="M285.4082 10.6031
L285.3463 10.8507
" />
<path d="M285.3463 10.8507
L285.3463 11.3460
" />
<path d="M285.3463 11.3460
L285.4082 11.4698
" />
<path d="M285.4082 11.4698
L285.4701 11.5317
" />
<path d="M285.4701 11.5317
L285.5939 11.5936
" />
<path d="M285.5939 11.5936
L285.8415 11.5936
" />
<path d="M285.8415 11.5936
L285.9654 11.5317
" />
<path d="M285.9654 11.5317
L286.0273 11.4698
" />
<path d="M286.0273 11.4698
L286.0892 11.3460
" />
<path d="M286.0892 11.3460
L286.0892 11.0365
" />
<path d="M286.0892 11.0365
L286.0273 10.9127
" />
<path d="M286.0273 10.9127
L285.9654 10.8507
" />
<path d="M285.9654 10.8507
L285.8415 10.7888
" />
<path d="M285.8415 10.7888
L285.5939 10.7888
" />
<path d="M285.5939 10.7888
L285.4701 10.8507
" />
<path d="M285.4701 10.8507
L285.4082 10.9127
" />
<path d="M285.4082 10.9127
L285.3463 11.0365
" />
</g></g>
<g style="fill:none; 
stroke:#000000; stroke-width:0.1500; stroke-opacity:1; 
stroke-linecap:round; stroke-linejoin:round;">
<path d="M60.0000 198.0072
L60.0000 200.0072
" />
</g>
<g style="fill:none; 
stroke:#000000; stroke-width:0.1500; stroke-opacity:1; 
stroke-linecap:round; stroke-linejoin:round;">
<path d="M110.0000 198.0072
L110.0000 200.0072
" />
</g>
<g style="fill:none; 
stroke:#000000; stroke-width:0.1500; stroke-opacity:1; 
stroke-linecap:round; stroke-linejoin:round;">
<path d="M160.0000 198.0072
L160.0000 200.0072
" />
</g>
<g style="fill:none; 
stroke:#000000; stroke-width:0.1500; stroke-opacity:1; 
stroke-linecap:round; stroke-linejoin:round;">
<path d="M210.0000 198.0072
L210.0000 200.0072
" />
</g>
<g style="fill:none; 
stroke:#000000; stroke-width:0.1500; stroke-opacity:1; 
stroke-linecap:round; stroke-linejoin:round;">
<path d="M260.0000 198.0072
L260.0000 200.0072
" />
</g>
<g style="fill:none; 
stroke:#000000; stroke-width:0.1500; stroke-opacity:1; 
stroke-linecap:round; stroke-linejoin:round;">
<text x="35.0000" y="199.6572"
textLength="1.4281" font-size="1.7333" lengthAdjust="spacingAndGlyphs"
text-anchor="start" opacity="0" stroke-opacity="0">1</text>
<g class="stroked-text"><desc>1</desc>
<path d="M36.0892 199.6008
L35.3463 199.6008
" />
<path d="M35.7177 199.6008
L35.7177 198.3008
" />
<path d="M35.7177 198.3008
L35.5939 198.4865
" />
<path d="M35.5939 198.4865
L35.4701 198.6103
" />
<path d="M35.4701 198.6103
L35.3463 198.6722
" />
</g></g>
<g style="fill:none; 
stroke:#000000; stroke-width:0.1500; stroke-opacity:1; 
stroke-linecap:round; stroke-linejoin:round;">
<text x="85.0000" y="199.6572"
textLength="1.4281" font-size="1.7333" lengthAdjust="spacingAndGlyphs"
text-anchor="start" opacity="0" stroke-opacity="0">2</text>
<g class="stroked-text"><desc>2</desc>
<path d="M85.3463 198.4246
L85.4082 198.3627
" />
<path d="M85.4082 198.3627
L85.5320 198.3008
" />
<path d="M85.5320 198.3008
L85.8415 198.3008
" />
<path d="M85.8415 198.3008
L85.9654 198.3627
" />
<path d="M85.9654 198.3627
L86.0273 198.4246
" />
<path d="M86.0273 198.4246
L86.0892 198.5484
" />
<path d="M86.0892 198.5484
L86.0892 198.6722
" />
<path d="M86.0892 198.6722
L86.0273 198.8579
" />
<path d="M86.0273 198.8579
L85.2844 199.6008
" />
<path d="M85.2844 199.6008
L86.0892 199.6008
" />
</g></g>
<g style="fill:none; 
stroke:#000000; stroke-width:0.1500; stroke-opacity:1; 
stroke-linecap:round; stroke-linejoin:round;">
<text x="135.0000" y="199.6572"
textLength="1.4281" font-size="1.7333" lengthAdjust="spacingAndGlyphs"
text-anchor="start" opacity="0" stroke-opacity="0">3</text>
<g class="stroked-text"><desc>3</desc>
<path d="M135.2844 198.3008
L136.0892 198.3008
" />
<path d="M136.0892 198.3008
L135.6558 198.7960
" />
<path d="M135.6558 198.7960
L135.8415 198.7960
" />
<path d="M135.8415 198.7960
L135.9654 198.8579
" />
<path d="M135.9654 198.8579
L136.0273 198.9199
" />
<path d="M136.0273 198.9199
L136.0892 199.0437
" />
<path d="M136.0892 199.0437
L136.0892 199.3532
" />
<path d="M136.0892 199.3532
L136.0273 199.4770
" />
<path d="M136.0273 199.4770
L135.9654 199.5389
" />
<path d="M135.9654 199.5389
L135.8415 199.6008
" />
<path d="M135.8415 199.6008
L135.4701 199.6008
" />
<path d="M135.4701 199.6008
L135.3463 199.5389
" />
<path d="M135.3463 199.5389
L135.2844 199.4770
" />
</g></g>
<g style="fill:none; 
stroke:#000000; stroke-width:0.1500; stroke-opacity:1; 
stroke-linecap:round; stroke-linejoin:round;">
<text x="185.0000" y="199.6572"
textLength="1.4281" font-size="1.7333" lengthAdjust="spacingAndGlyphs"
text-anchor="start" opacity="0" stroke-opacity="0">4</text>
<g class="stroked-text"><desc>4</desc>
<path d="M185.9654 198.7341
L185.9654 199.6008
" />
<path d="M185.6558 198.2389
L185.3463 199.1675
" />
<path d="M185.3463 199.1675
L186.1511 199.1675
" />
</g></g>
<g style="fill:none; 
stroke:#000000; stroke-width:0.1500; stroke-opacity:1; 
stroke-linecap:round; stroke-linejoin:round;">
<text x="235.0000" y="199.6572"
textLength="1.4281" font-size="1.7333" lengthAdjust="spacingAndGlyphs"
text-anchor="start" opacity="0" stroke-opacity="0">5</text>
<g class="stroked-text"><desc>5</desc>
<path d="M236.0273 198.3008
L235.4082 198.3008
" />
<path d="M235.4082 198.3008
L235.3463 198.9199
" />
<path d="M235.3463 198.9199
L235.4082 198.8579
" />
<path d="M235.4082 198.8579
L235.5320 198.7960
" />
<path d="M235.5320 198.7960
L235.8415 198.7960
" />
<path d="M235.8415 198.7960
L235.9654 198.8579
" />
<path d="M235.9654 198.8579
L236.0273 198.9199
" />
<path d="M236.0273 198.9199
L236.0892 199.0437
" />
<path d="M236.0892 199.0437
L236.0892 199.3532
" />
<path d="M236.0892 199.3532
L236.0273 199.4770
" />
<path d="M236.0273 199.4770
L235.9654 199.5389
" />
<path d="M235.9654 199.5389
L235.8415 199.6008
" />
<path d="M235.8415 199.6008
L235.5320 199.6008
" />
<path d="M235.5320 199.6008
L235.4082 199.5389
" />
<path d="M235.4082 199.5389
L235.3463 199.4770
" />
</g></g>
<g style="fill:none; 
stroke:#000000; stroke-width:0.1500; stroke-opacity:1; 
stroke-linecap:round; stroke-linejoin:round;">
<text x="285.0000" y="199.6572"
textLength="1.4281" font-size="1.7333" lengthAdjust="spacingAndGlyphs"
text-anchor="start" opacity="0" stroke-opacity="0">6</text>
<g class="stroked-text"><desc>6</desc>
<path d="M285.9654 198.3008
L285.7177 198.3008
" />
<path d="M285.7177 198.3008
L285.5939 198.3627
" />
<path d="M285.5939 198.3627
L285.5320 198.4246
" />
<path d="M285.5320 198.4246
L285.4082 198.6103
" />
<path d="M285.4082 198.6103
L285.3463 198.8579
" />
<path d="M285.3463 198.8579
L285.3463 199.3532
" />
<path d="M285.3463 199.3532
L285.4082 199.4770
" />
<path d="M285.4082 199.4770
L285.4701 199.5389
" />
<path d="M285.4701 199.5389
L285.5939 199.6008
" />
<path d="M285.5939 199.6008
L285.8415 199.6008
" />
<path d="M285.8415 199.6008
L285.9654 199.5389
" />
<path d="M285.9654 199.5389
L286.0273 199.4770
" />
<path d="M286.0273 199.4770
L286.0892 199.3532
" />
<path d="M286.0892 199.3532
L286.0892 199.0437
" />
<path d="M286.0892 199.0437
L286.0273 198.9199
" />
<path d="M286.0273 198.9199
L285.9654 198.8579
" />
<path d="M285.9654 198.8579
L285.8415 198.7960
" />
<path d="M285.8415 198.7960
L285.5939 198.7960
" />
<path d="M285.5939 198.7960
L285.4701 198.8579
" />
<path d="M285.4701 198.8579
L285.4082 198.9199
" />
<path d="M285.4082 198.9199
L285.3463 199.0437
" />
</g></g>
<g style="fill:none; 
stroke:#000000; stroke-width:0.1500; stroke-opacity:1; 
stroke-linecap:round; stroke-linejoin:round;">
<path d="M10.0000 60.0000
L12.0000 60.0000
" />
</g>
<g style="fill:none; 
stroke:#000000; stroke-width:0.1500; stroke-opacity:1; 
stroke-linecap:round; stroke-linejoin:round;">
<path d="M10.0000 110.0000
L12.0000 110.0000
" />
</g>
<g style="fill:none; 
stroke:#000000; stroke-width:0.1500; stroke-opacity:1; 
stroke-linecap:round; stroke-linejoin:round;">
<path d="M10.0000 160.0000
L12.0000 160.0000
" />
</g>
<g style="fill:none; 
stroke:#000000; stroke-width:0.1500; stroke-opacity:1; 
stroke-linecap:round; stroke-linejoin:round;">
<text x="11.0000" y="35.6500"
textLength="1.3043" font-size="1.7333" lengthAdjust="spacingAndGlyphs"
text-anchor="middle" opacity="0" stroke-opacity="0">A</text>
<g class="stroked-text"><desc>A</desc>
<path d="M10.6905 35.2222
L11.3095 35.2222
" />
<path d="M10.5667 35.5936
L11.0000 34.2936
" />
<path d="M11.0000 34.2936
L11.4333 35.5936
" />
</g></g>
<g style="fill:none; 
stroke:#000000; stroke-width:0.1500; stroke-opacity:1; 
stroke-linecap:round; stroke-linejoin:round;">
<text x="11.0000" y="85.6500"
textLength="1.4900" font-size="1.7333" lengthAdjust="spacingAndGlyphs"
text-anchor="middle" opacity="0" stroke-opacity="0">B</text>
<g class="stroked-text"><desc>B</desc>
<path d="M11.0929 84.9127
L11.2786 84.9746
" />
<path d="M11.2786 84.9746
L11.3405 85.0365
" />
<path d="M11.3405 85.0365
L11.4024 85.1603
" />
<path d="M11.4024 85.1603
L11.4024 85.3460
" />
<path d="M11.4024 85.3460
L11.3405 85.4698
" />
<path d="M11.3405 85.4698
L11.2786 85.5317
" />
<path d="M11.2786 85.5317
L11.1548 85.5936
" />
<path d="M11.1548 85.5936
L10.6595 85.5936
" />
<path d="M10.6595 85.5936
L10.6595 84.2936
" />
<path d="M10.6595 84.2936
L11.0929 84.2936
" />
<path d="M11.0929 84.2936
L11.2167 84.3555
" />
<path d="M11.2167 84.3555
L11.2786 84.4174
" />
<path d="M11.2786 84.4174
L11.3405 84.5412
" />
<path d="M11.3405 84.5412
L11.3405 84.6650
" />
<path d="M11.3405 84.6650
L11.2786 84.7888
" />
<path d="M11.2786 84.7888
L11.2167 84.8507
" />
<path d="M11.2167 84.8507
L11.0929 84.9127
" />
<path d="M11.0929 84.9127
L10.6595 84.9127
" />
</g></g>
<g style="fill:none; 
stroke:#000000; stroke-width:0.1500; stroke-opacity:1; 
stroke-linecap:round; stroke-linejoin:round;">
<text x="11.0000" y="135.6500"
textLength="1.4900" font-size="1.7333" lengthAdjust="spacingAndGlyphs"
text-anchor="middle" opacity="0" stroke-opacity="0">C</text>
<g class="stroked-text"><desc>C</desc>
<path d="M11.4024 135.4698
L11.3405 135.5317
" />
<path d="M11.3405 135.5317
L11.1548 135.5936
" />
<path d="M11.1548 135.5936
L11.0310 135.5936
" />
<path d="M11.0310 135.5936
L10.8452 135.5317
" />
<path d="M10.8452 135.5317
L10.7214 135.4079
" />
<path d="M10.7214 135.4079
L10.6595 135.2841
" />
<path d="M10.6595 135.2841
L10.5976 135.0365
" />
<path d="M10.5976 135.0365
L10.5976 134.8507
" />
<path d="M10.5976 134.8507
L10.6595 134.6031
" />
<path d="M10.6595 134.6031
L10.7214 134.4793
" />
<path d="M10.7214 134.4793
L10.8452 134.3555
" />
<path d="M10.8452 134.3555
L11.0310 134.2936
" />
<path d="M11.0310 134.2936
L11.1548 134.2936
" />
<path d="M11.1548 134.2936
L11.3405 134.3555
" />
<path d="M11.3405 134.3555
L11.4024 134.4174
" />
</g></g>
<g style="fill:none; 
stroke:#000000; stroke-width:0.1500; stroke-opacity:1; 
stroke-linecap:round; stroke-linejoin:round;">
<text x="11.0000" y="185.6500"
textLength="1.4900" font-size="1.7333" lengthAdjust="spacingAndGlyphs"
text-anchor="middle" opacity="0" stroke-opacity="0">D</text>
<g class="stroked-text"><desc>D</desc>
<path d="M10.6595 185.5936
L10.6595 184.2936
" />
<path d="M10.6595 184.2936
L10.9690 184.2936
" />
<path d="M10.9690 184.2936
L11.1548 184.3555
" />
<path d="M11.1548 184.3555
L11.2786 184.4793
" />
<path d="M11.2786 184.4793
L11.3405 184.6031
" />
<path d="M11.3405 184.6031
L11.4024 184.8507
" />
<path d="M11.4024 184.8507
L11.4024 185.0365
" />
<path d="M11.4024 185.0365
L11.3405 185.2841
" />
<path d="M11.3405 185.2841
L11.2786 185.4079
" />
<path d="M11.2786 185.4079
L11.1548 185.5317
" />
<path d="M11.1548 185.5317
L10.9690 185.5936
" />
<path d="M10.9690 185.5936
L10.6595 185.5936
" />
</g></g>
<g style="fill:none; 
stroke:#000000; stroke-width:0.1500; stroke-opacity:1; 
stroke-linecap:round; stroke-linejoin:round;">
<path d="M287.0022 60.0000
L285.0022 60.0000
" />
</g>
<g style="fill:none; 
stroke:#000000; stroke-width:0.1500; stroke-opacity:1; 
stroke-linecap:round; stroke-linejoin:round;">
<path d="M287.0022 110.0000
L285.0022 110.0000
" />
</g>
<g style="fill:none; 
stroke:#000000; stroke-width:0.1500; stroke-opacity:1; 
stroke-linecap:round; stroke-linejoin:round;">
<path d="M287.0022 160.0000
L285.0022 160.0000
" />
</g>
<g style="fill:none; 
stroke:#000000; stroke-width:0.1500; stroke-opacity:1; 
stroke-linecap:round; stroke-linejoin:round;">
<text x="286.0022" y="35.6500"
textLength="1.3043" font-size="1.7333" lengthAdjust="spacingAndGlyphs"
text-anchor="middle" opacity="0" stroke-opacity="0">A</text>
<g class="stroked-text"><desc>A</desc>
<path d="M285.6927 35.2222
L286.3117 35.2222
" />
<path d="M285.5689 35.5936
L286.0022 34.2936
" />
<path d="M286.0022 34.2936
L286.4355 35.5936
" />
</g></g>
<g style="fill:none; 
stroke:#000000; stroke-width:0.1500; stroke-opacity:1; 
stroke-linecap:round; stroke-linejoin:round;">
<text x="286.0022" y="85.6500"
textLength="1.4900" font-size="1.7333" lengthAdjust="spacingAndGlyphs"
text-anchor="middle" opacity="0" stroke-opacity="0">B</text>
<g class="stroked-text"><desc>B</desc>
<path d="M286.0951 84.9127
L286.2808 84.9746
" />
<path d="M286.2808 84.9746
L286.3427 85.0365
" />
<path d="M286.3427 85.0365
L286.4046 85.1603
" />
<path d="M286.4046 85.1603
L286.4046 85.3460
" />
<path d="M286.4046 85.3460
L286.3427 85.4698
" />
<path d="M286.3427 85.4698
L286.2808 85.5317
" />
<path d="M286.2808 85.5317
L286.1570 85.5936
" />
<path d="M286.1570 85.5936
L285.6617 85.5936
" />
<path d="M285.6617 85.5936
L285.6617 84.2936
" />
<path d="M285.6617 84.2936
L286.0951 84.2936
" />
<path d="M286.0951 84.2936
L286.2189 84.3555
" />
<path d="M286.2189 84.3555
L286.2808 84.4174
" />
<path d="M286.2808 84.4174
L286.3427 84.5412
" />
<path d="M286.3427 84.5412
L286.3427 84.6650
" />
<path d="M286.3427 84.6650
L286.2808 84.7888
" />
<path d="M286.2808 84.7888
L286.2189 84.8507
" />
<path d="M286.2189 84.8507
L286.0951 84.9127
" />
<path d="M286.0951 84.9127
L285.6617 84.9127
" />
</g></g>
<g style="fill:none; 
stroke:#000000; stroke-width:0.1500; stroke-opacity:1; 
stroke-linecap:round; stroke-linejoin:round;">
<text x="286.0022" y="135.6500"
textLength="1.4900" font-size="1.7333" lengthAdjust="spacingAndGlyphs"
text-anchor="middle" opacity="0" stroke-opacity="0">C</text>
<g class="stroked-text"><desc>C</desc>
<path d="M286.4046 135.4698
L286.3427 135.5317
" />
<path d="M286.3427 135.5317
L286.1570 135.5936
" />
<path d="M286.1570 135.5936
L286.0332 135.5936
" />
<path d="M286.0332 135.5936
L285.8474 135.5317
" />
<path d="M285.8474 135.5317
L285.7236 135.4079
" />
<path d="M285.7236 135.4079
L285.6617 135.2841
" />
<path d="M285.6617 135.2841
L285.5998 135.0365
" />
<path d="M285.5998 135.0365
L285.5998 134.8507
" />
<path d="M285.5998 134.8507
L285.6617 134.6031
" />
<path d="M285.6617 134.6031
L285.7236 134.4793
" />
<path d="M285.7236 134.4793
L285.8474 134.3555
" />
<path d="M285.8474 134.3555
L286.0332 134.2936
" />
<path d="M286.0332 134.2936
L286.1570 134.2936
" />
<path d="M286.1570 134.2936
L286.3427 134.3555
" />
<path d="M286.3427 134.3555
L286.4046 134.4174
" />
</g></g>
<g style="fill:none; 
stroke:#000000; stroke-width:0.1500; stroke-opacity:1; 
stroke-linecap:round; stroke-linejoin:round;">
<text x="286.0022" y="185.6500"
textLength="1.4900" font-size="1.7333" lengthAdjust="spacingAndGlyphs"
text-anchor="middle" opacity="0" stroke-opacity="0">D</text>
<g class="stroked-text"><desc>D</desc>
<path d="M285.6617 185.5936
L285.6617 184.2936
" />
<path d="M285.6617 184.2936
L285.9712 184.2936
" />
<path d="M285.9712 184.2936
L286.1570 184.3555
" />
<path d="M286.1570 184.3555
L286.2808 184.4793
" />
<path d="M286.2808 184.4793
L286.3427 184.6031
" />
<path d="M286.3427 184.6031
L286.4046 184.8507
" />
<path d="M286.4046 184.8507
L286.4046 185.0365
" />
<path d="M286.4046 185.0365
L286.3427 185.2841
" />
<path d="M286.3427 185.2841
L286.2808 185.4079
" />
<path d="M286.2808 185.4079
L286.1570 185.5317
" />
<path d="M286.1570 185.5317
L285.9712 185.5936
" />
<path d="M285.9712 185.5936
L285.6617 185.5936
" />
</g></g>
<g style="fill:none; 
stroke:#000000; stroke-width:0.1500; stroke-opacity:1; 
stroke-linecap:round; stroke-linejoin:round;">
<text x="200.0022" y="193.8572"
textLength="7.0071" font-size="2.0000" lengthAdjust="spacingAndGlyphs"
text-anchor="start" opacity="0" stroke-opacity="0">Date: </text>
<g class="stroked-text"><desc>Date: </desc>
<path d="M200.4580 193.7933
L200.4580 192.2933
" />
<path d="M200.4580 192.2933
L200.8152 192.2933
" />
<path d="M200.8152 192.2933
L201.0295 192.3648
" />
<path d="M201.0295 192.3648
L201.1723 192.5076
" />
<path d="M201.1723 192.5076
L201.2437 192.6505
" />
<path d="M201.2437 192.6505
L201.3152 192.9362
" />
<path d="M201.3152 192.9362
L201.3152 193.1505
" />
<path d="M201.3152 193.1505
L201.2437 193.4362
" />
<path d="M201.2437 193.4362
L201.1723 193.5790
" />
<path d="M201.1723 193.5790
L201.0295 193.7219
" />
<path d="M201.0295 193.7219
L200.8152 193.7933
" />
<path d="M200.8152 193.7933
L200.4580 193.7933
" />
<path d="M202.6009 193.7933
L202.6009 193.0076
" />
<path d="M202.6009 193.0076
L202.5295 192.8648
" />
<path d="M202.5295 192.8648
L202.3866 192.7933
" />
<path d="M202.3866 192.7933
L202.1009 192.7933
" />
<path d="M202.1009 192.7933
L201.9580 192.8648
" />
<path d="M202.6009 193.7219
L202.4580 193.7933
" />
<path d="M202.4580 193.7933
L202.1009 193.7933
" />
<path d="M202.1009 193.7933
L201.9580 193.7219
" />
<path d="M201.9580 193.7219
L201.8866 193.5790
" />
<path d="M201.8866 193.5790
L201.8866 193.4362
" />
<path d="M201.8866 193.4362
L201.9580 193.2933
" />
<path d="M201.9580 193.2933
L202.1009 193.2219
" />
<path d="M202.1009 193.2219
L202.4580 193.2219
" />
<path d="M202.4580 193.2219
L202.6009 193.1505
" />
<path d="M203.1009 192.7933
L203.6723 192.7933
" />
<path d="M203.3152 192.2933
L203.3152 193.5790
" />
<path d="M203.3152 193.5790
L203.3866 193.7219
" />
<path d="M203.3866 193.7219
L203.5295 193.7933
" />
<path d="M203.5295 193.7933
L203.6723 193.7933
" />
<path d="M204.7437 193.7219
L204.6009 193.7933
" />
<path d="M204.6009 193.7933
L204.3152 193.7933
" />
<path d="M204.3152 193.7933
L204.1723 193.7219
" />
<path d="M204.1723 193.7219
L204.1009 193.5790
" />
<path d="M204.1009 193.5790
L204.1009 193.0076
" />
<path d="M204.1009 193.0076
L204.1723 192.8648
" />
<path d="M204.1723 192.8648
L204.3152 192.7933
" />
<path d="M204.3152 192.7933
L204.6009 192.7933
" />
<path d="M204.6009 192.7933
L204.7437 192.8648
" />
<path d="M204.7437 192.8648
L204.8152 193.0076
" />
<path d="M204.8152 193.0076
L204.8152 193.1505
" />
<path d="M204.8152 193.1505
L204.1009 193.2933
" />
<path d="M205.4580 193.6505
L205.5295 193.7219
" />
<path d="M205.5295 193.7219
L205.4580 193.7933
" />
<path d="M205.4580 193.7933
L205.3866 193.7219
" />
<path d="M205.3866 193.7219
L205.4580 193.6505
" />
<path d="M205.4580 193.6505
L205.4580 193.7933
" />
<path d="M205.4580 192.8648
L205.5295 192.9362
" />
<path d="M205.5295 192.9362
L205.4580 193.0076
" />
<path d="M205.4580 193.0076
L205.3866 192.9362
" />
<path d="M205.3866 192.9362
L205.4580 192.8648
" />
<path d="M205.4580 192.8648
L205.4580 193.0076
" />
</g></g>
<g style="fill:none; 
stroke:#000000; stroke-width:0.1500; stroke-opacity:1; 
stroke-linecap:round; stroke-linejoin:round;">
<path d="M177.0022 194.5072
L285.0022 194.5072
" />
</g>
<g style="fill:none; 
stroke:#000000; stroke-width:0.1500; stroke-opacity:1; 
stroke-linecap:round; stroke-linejoin:round;">
<text x="178.0022" y="196.6572"
textLength="20.8643" font-size="2.0000" lengthAdjust="spacingAndGlyphs"
text-anchor="start" opacity="0" stroke-opacity="0">KiCad E.D.A. 8.0.6</text>
<g class="stroked-text"><desc>KiCad E.D.A. 8.0.6</desc>
<path d="M178.4580 196.5933
L178.4580 195.0933
" />
<path d="M179.3152 196.5933
L178.6723 195.7362
" />
<path d="M179.3152 195.0933
L178.4580 195.9505
" />
<path d="M179.9580 196.5933
L179.9580 195.5933
" />
<path d="M179.9580 195.0933
L179.8866 195.1648
" />
<path d="M179.8866 195.1648
L179.9580 195.2362
" />
<path d="M179.9580 195.2362
L180.0295 195.1648
" />
<path d="M180.0295 195.1648
L179.9580 195.0933
" />
<path d="M179.9580 195.0933
L179.9580 195.2362
" />
<path d="M181.5295 196.4505
L181.4580 196.5219
" />
<path d="M181.4580 196.5219
L181.2437 196.5933
" />
<path d="M181.2437 196.5933
L181.1009 196.5933
" />
<path d="M181.1009 196.5933
L180.8866 196.5219
" />
<path d="M180.8866 196.5219
L180.7437 196.3790
" />
<path d="M180.7437 196.3790
L180.6723 196.2362
" />
<path d="M180.6723 196.2362
L180.6009 195.9505
" />
<path d="M180.6009 195.9505
L180.6009 195.7362
" />
<path d="M180.6009 195.7362
L180.6723 195.4505
" />
<path d="M180.6723 195.4505
L180.7437 195.3076
" />
<path d="M180.7437 195.3076
L180.8866 195.1648
" />
<path d="M180.8866 195.1648
L181.1009 195.0933
" />
<path d="M181.1009 195.0933
L181.2437 195.0933
" />
<path d="M181.2437 195.0933
L181.4580 195.1648
" />
<path d="M181.4580 195.1648
L181.5295 195.2362
" />
<path d="M182.8152 196.5933
L182.8152 195.8076
" />
<path d="M182.8152 195.8076
L182.7437 195.6648
" />
<path d="M182.7437 195.6648
L182.6009 195.5933
" />
<path d="M182.6009 195.5933
L182.3152 195.5933
" />
<path d="M182.3152 195.5933
L182.1723 195.6648
" />
<path d="M182.8152 196.5219
L182.6723 196.5933
" />
<path d="M182.6723 196.5933
L182.3152 196.5933
" />
<path d="M182.3152 196.5933
L182.1723 196.5219
" />
<path d="M182.1723 196.5219
L182.1009 196.3790
" />
<path d="M182.1009 196.3790
L182.1009 196.2362
" />
<path d="M182.1009 196.2362
L182.1723 196.0933
" />
<path d="M182.1723 196.0933
L182.3152 196.0219
" />
<path d="M182.3152 196.0219
L182.6723 196.0219
" />
<path d="M182.6723 196.0219
L182.8152 195.9505
" />
<path d="M184.1723 196.5933
L184.1723 195.0933
" />
<path d="M184.1723 196.5219
L184.0295 196.5933
" />
<path d="M184.0295 196.5933
L183.7437 196.5933
" />
<path d="M183.7437 196.5933
L183.6009 196.5219
" />
<path d="M183.6009 196.5219
L183.5295 196.4505
" />
<path d="M183.5295 196.4505
L183.4580 196.3076
" />
<path d="M183.4580 196.3076
L183.4580 195.8790
" />
<path d="M183.4580 195.8790
L183.5295 195.7362
" />
<path d="M183.5295 195.7362
L183.6009 195.6648
" />
<path d="M183.6009 195.6648
L183.7437 195.5933
" />
<path d="M183.7437 195.5933
L184.0295 195.5933
" />
<path d="M184.0295 195.5933
L184.1723 195.6648
" />
<path d="M186.0295 195.8076
L186.5295 195.8076
" />
<path d="M186.7437 196.5933
L186.0295 196.5933
" />
<path d="M186.0295 196.5933
L186.0295 195.0933
" />
<path d="M186.0295 195.0933
L186.7437 195.0933
" />
<path d="M187.3866 196.4505
L187.4580 196.5219
" />
<path d="M187.4580 196.5219
L187.3866 196.5933
" />
<path d="M187.3866 196.5933
L187.3152 196.5219
" />
<path d="M187.3152 196.5219
L187.3866 196.4505
" />
<path d="M187.3866 196.4505
L187.3866 196.5933
" />
<path d="M188.1009 196.5933
L188.1009 195.0933
" />
<path d="M188.1009 195.0933
L188.4580 195.0933
" />
<path d="M188.4580 195.0933
L188.6723 195.1648
" />
<path d="M188.6723 195.1648
L188.8152 195.3076
" />
<path d="M188.8152 195.3076
L188.8866 195.4505
" />
<path d="M188.8866 195.4505
L188.9580 195.7362
" />
<path d="M188.9580 195.7362
L188.9580 195.9505
" />
<path d="M188.9580 195.9505
L188.8866 196.2362
" />
<path d="M188.8866 196.2362
L188.8152 196.3790
" />
<path d="M188.8152 196.3790
L188.6723 196.5219
" />
<path d="M188.6723 196.5219
L188.4580 196.5933
" />
<path d="M188.4580 196.5933
L188.1009 196.5933
" />
<path d="M189.6009 196.4505
L189.6723 196.5219
" />
<path d="M189.6723 196.5219
L189.6009 196.5933
" />
<path d="M189.6009 196.5933
L189.5295 196.5219
" />
<path d="M189.5295 196.5219
L189.6009 196.4505
" />
<path d="M189.6009 196.4505
L189.6009 196.5933
" />
<path d="M190.2437 196.1648
L190.9580 196.1648
" />
<path d="M190.1009 196.5933
L190.6009 195.0933
" />
<path d="M190.6009 195.0933
L191.1009 196.5933
" />
<path d="M191.6009 196.4505
L191.6723 196.5219
" />
<path d="M191.6723 196.5219
L191.6009 196.5933
" />
<path d="M191.6009 196.5933
L191.5295 196.5219
" />
<path d="M191.5295 196.5219
L191.6009 196.4505
" />
<path d="M191.6009 196.4505
L191.6009 196.5933
" />
<path d="M193.6723 195.7362
L193.5295 195.6648
" />
<path d="M193.5295 195.6648
L193.4580 195.5933
" />
<path d="M193.4580 195.5933
L193.3866 195.4505
" />
<path d="M193.3866 195.4505
L193.3866 195.3790
" />
<path d="M193.3866 195.3790
L193.4580 195.2362
" />
<path d="M193.4580 195.2362
L193.5295 195.1648
" />
<path d="M193.5295 195.1648
L193.6723 195.0933
" />
<path d="M193.6723 195.0933
L193.9580 195.0933
" />
<path d="M193.9580 195.0933
L194.1009 195.1648
" />
<path d="M194.1009 195.1648
L194.1723 195.2362
" />
<path d="M194.1723 195.2362
L194.2437 195.3790
" />
<path d="M194.2437 195.3790
L194.2437 195.4505
" />
<path d="M194.2437 195.4505
L194.1723 195.5933
" />
<path d="M194.1723 195.5933
L194.1009 195.6648
" />
<path d="M194.1009 195.6648
L193.9580 195.7362
" />
<path d="M193.9580 195.7362
L193.6723 195.7362
" />
<path d="M193.6723 195.7362
L193.5295 195.8076
" />
<path d="M193.5295 195.8076
L193.4580 195.8790
" />
<path d="M193.4580 195.8790
L193.3866 196.0219
" />
<path d="M193.3866 196.0219
L193.3866 196.3076
" />
<path d="M193.3866 196.3076
L193.4580 196.4505
" />
<path d="M193.4580 196.4505
L193.5295 196.5219
" />
<path d="M193.5295 196.5219
L193.6723 196.5933
" />
<path d="M193.6723 196.5933
L193.9580 196.5933
" />
<path d="M193.9580 196.5933
L194.1009 196.5219
" />
<path d="M194.1009 196.5219
L194.1723 196.4505
" />
<path d="M194.1723 196.4505
L194.2437 196.3076
" />
<path d="M194.2437 196.3076
L194.2437 196.0219
" />
<path d="M194.2437 196.0219
L194.1723 195.8790
" />
<path d="M194.1723 195.8790
L194.1009 195.8076
" />
<path d="M194.1009 195.8076
L193.9580 195.7362
" />
<path d="M194.8866 196.4505
L194.9580 196.5219
" />
<path d="M194.9580 196.5219
L194.8866 196.5933
" />
<path d="M194.8866 196.5933
L194.8152 196.5219
" />
<path d="M194.8152 196.5219
L194.8866 196.4505
" />
<path d="M194.8866 196.4505
L194.8866 196.5933
" />
<path d="M195.8866 195.0933
L196.0295 195.0933
" />
<path d="M196.0295 195.0933
L196.1723 195.1648
" />
<path d="M196.1723 195.1648
L196.2437 195.2362
" />
<path d="M196.2437 195.2362
L196.3152 195.3790
" />
<path d="M196.3152 195.3790
L196.3866 195.6648
" />
<path d="M196.3866 195.6648
L196.3866 196.0219
" />
<path d="M196.3866 196.0219
L196.3152 196.3076
" />
<path d="M196.3152 196.3076
L196.2437 196.4505
" />
<path d="M196.2437 196.4505
L196.1723 196.5219
" />
<path d="M196.1723 196.5219
L196.0295 196.5933
" />
<path d="M196.0295 196.5933
L195.8866 196.5933
" />
<path d="M195.8866 196.5933
L195.7437 196.5219
" />
<path d="M195.7437 196.5219
L195.6723 196.4505
" />
<path d="M195.6723 196.4505
L195.6009 196.3076
" />
<path d="M195.6009 196.3076
L195.5295 196.0219
" />
<path d="M195.5295 196.0219
L195.5295 195.6648
" />
<path d="M195.5295 195.6648
L195.6009 195.3790
" />
<path d="M195.6009 195.3790
L195.6723 195.2362
" />
<path d="M195.6723 195.2362
L195.7437 195.1648
" />
<path d="M195.7437 195.1648
L195.8866 195.0933
" />
<path d="M197.0295 196.4505
L197.1009 196.5219
" />
<path d="M197.1009 196.5219
L197.0295 196.5933
" />
<path d="M197.0295 196.5933
L196.9580 196.5219
" />
<path d="M196.9580 196.5219
L197.0295 196.4505
" />
<path d="M197.0295 196.4505
L197.0295 196.5933
" />
<path d="M198.3866 195.0933
L198.1009 195.0933
" />
<path d="M198.1009 195.0933
L197.9580 195.1648
" />
<path d="M197.9580 195.1648
L197.8866 195.2362
" />
<path d="M197.8866 195.2362
L197.7437 195.4505
" />
<path d="M197.7437 195.4505
L197.6723 195.7362
" />
<path d="M197.6723 195.7362
L197.6723 196.3076
" />
<path d="M197.6723 196.3076
L197.7437 196.4505
" />
<path d="M197.7437 196.4505
L197.8152 196.5219
" />
<path d="M197.8152 196.5219
L197.9580 196.5933
" />
<path d="M197.9580 196.5933
L198.2437 196.5933
" />
<path d="M198.2437 196.5933
L198.3866 196.5219
" />
<path d="M198.3866 196.5219
L198.4580 196.4505
" />
<path d="M198.4580 196.4505
L198.5295 196.3076
" />
<path d="M198.5295 196.3076
L198.5295 195.9505
" />
<path d="M198.5295 195.9505
L198.4580 195.8076
" />
<path d="M198.4580 195.8076
L198.3866 195.7362
" />
<path d="M198.3866 195.7362
L198.2437 195.6648
" />
<path d="M198.2437 195.6648
L197.9580 195.6648
" />
<path d="M197.9580 195.6648
L197.8152 195.7362
" />
<path d="M197.8152 195.7362
L197.7437 195.8076
" />
<path d="M197.7437 195.8076
L197.6723 195.9505
" />
</g></g>
<g style="fill:none; 
stroke:#000000; stroke-width:0.1500; stroke-opacity:1; 
stroke-linecap:round; stroke-linejoin:round;">
<path d="M177.0022 191.5072
L285.0022 191.5072
" />
</g>
<g style="fill:none; 
stroke:#000000; stroke-width:0.3000; stroke-opacity:1; 
stroke-linecap:round; stroke-linejoin:round;">
<text x="263.0022" y="193.8572"
textLength="6.3857" font-size="2.0000" lengthAdjust="spacingAndGlyphs"
text-anchor="start" opacity="0" stroke-opacity="0">Rev: </text>
<g class="stroked-text"><desc>Rev: </desc>
<path d="M264.4139 193.7855
L263.9139 193.0712
" />
<path d="M263.5567 193.7855
L263.5567 192.2855
" />
<path d="M263.5567 192.2855
L264.1281 192.2855
" />
<path d="M264.1281 192.2855
L264.2710 192.3570
" />
<path d="M264.2710 192.3570
L264.3424 192.4284
" />
<path d="M264.3424 192.4284
L264.4139 192.5712
" />
<path d="M264.4139 192.5712
L264.4139 192.7855
" />
<path d="M264.4139 192.7855
L264.3424 192.9284
" />
<path d="M264.3424 192.9284
L264.2710 192.9998
" />
<path d="M264.2710 192.9998
L264.1281 193.0712
" />
<path d="M264.1281 193.0712
L263.5567 193.0712
" />
<path d="M265.6281 193.7141
L265.4853 193.7855
" />
<path d="M265.4853 193.7855
L265.1996 193.7855
" />
<path d="M265.1996 193.7855
L265.0567 193.7141
" />
<path d="M265.0567 193.7141
L264.9853 193.5712
" />
<path d="M264.9853 193.5712
L264.9853 192.9998
" />
<path d="M264.9853 192.9998
L265.0567 192.8570
" />
<path d="M265.0567 192.8570
L265.1996 192.7855
" />
<path d="M265.1996 192.7855
L265.4853 192.7855
" />
<path d="M265.4853 192.7855
L265.6281 192.8570
" />
<path d="M265.6281 192.8570
L265.6996 192.9998
" />
<path d="M265.6996 192.9998
L265.6996 193.1427
" />
<path d="M265.6996 193.1427
L264.9853 193.2855
" />
<path d="M266.1996 192.7855
L266.5567 193.7855
" />
<path d="M266.5567 193.7855
L266.9139 192.7855
" />
<path d="M267.4853 193.6427
L267.5567 193.7141
" />
<path d="M267.5567 193.7141
L267.4853 193.7855
" />
<path d="M267.4853 193.7855
L267.4139 193.7141
" />
<path d="M267.4139 193.7141
L267.4853 193.6427
" />
<path d="M267.4853 193.6427
L267.4853 193.7855
" />
<path d="M267.4853 192.8570
L267.5567 192.9284
" />
<path d="M267.5567 192.9284
L267.4853 192.9998
" />
<path d="M267.4853 192.9998
L267.4139 192.9284
" />
<path d="M267.4139 192.9284
L267.4853 192.8570
" />
<path d="M267.4853 192.8570
L267.4853 192.9998
" />
</g></g>
<g style="fill:none; 
stroke:#000000; stroke-width:0.1500; stroke-opacity:1; 
stroke-linecap:round; stroke-linejoin:round;">
<text x="178.0022" y="193.8572"
textLength="9.3643" font-size="2.0000" lengthAdjust="spacingAndGlyphs"
text-anchor="start" opacity="0" stroke-opacity="0">Size: A4</text>
<g class="stroked-text"><desc>Size: A4</desc>
<path d="M178.3866 193.7219
L178.6009 193.7933
" />
<path d="M178.6009 193.7933
L178.9580 193.7933
" />
<path d="M178.9580 193.7933
L179.1009 193.7219
" />
<path d="M179.1009 193.7219
L179.1723 193.6505
" />
<path d="M179.1723 193.6505
L179.2437 193.5076
" />
<path d="M179.2437 193.5076
L179.2437 193.3648
" />
<path d="M179.2437 193.3648
L179.1723 193.2219
" />
<path d="M179.1723 193.2219
L179.1009 193.1505
" />
<path d="M179.1009 193.1505
L178.9580 193.0790
" />
<path d="M178.9580 193.0790
L178.6723 193.0076
" />
<path d="M178.6723 193.0076
L178.5295 192.9362
" />
<path d="M178.5295 192.9362
L178.4580 192.8648
" />
<path d="M178.4580 192.8648
L178.3866 192.7219
" />
<path d="M178.3866 192.7219
L178.3866 192.5790
" />
<path d="M178.3866 192.5790
L178.4580 192.4362
" />
<path d="M178.4580 192.4362
L178.5295 192.3648
" />
<path d="M178.5295 192.3648
L178.6723 192.2933
" />
<path d="M178.6723 192.2933
L179.0295 192.2933
" />
<path d="M179.0295 192.2933
L179.2437 192.3648
" />
<path d="M179.8866 193.7933
L179.8866 192.7933
" />
<path d="M179.8866 192.2933
L179.8152 192.3648
" />
<path d="M179.8152 192.3648
L179.8866 192.4362
" />
<path d="M179.8866 192.4362
L179.9580 192.3648
" />
<path d="M179.9580 192.3648
L179.8866 192.2933
" />
<path d="M179.8866 192.2933
L179.8866 192.4362
" />
<path d="M180.4580 192.7933
L181.2437 192.7933
" />
<path d="M181.2437 192.7933
L180.4580 193.7933
" />
<path d="M180.4580 193.7933
L181.2437 193.7933
" />
<path d="M182.3866 193.7219
L182.2437 193.7933
" />
<path d="M182.2437 193.7933
L181.9580 193.7933
" />
<path d="M181.9580 193.7933
L181.8152 193.7219
" />
<path d="M181.8152 193.7219
L181.7437 193.5790
" />
<path d="M181.7437 193.5790
L181.7437 193.0076
" />
<path d="M181.7437 193.0076
L181.8152 192.8648
" />
<path d="M181.8152 192.8648
L181.9580 192.7933
" />
<path d="M181.9580 192.7933
L182.2437 192.7933
" />
<path d="M182.2437 192.7933
L182.3866 192.8648
" />
<path d="M182.3866 192.8648
L182.4580 193.0076
" />
<path d="M182.4580 193.0076
L182.4580 193.1505
" />
<path d="M182.4580 193.1505
L181.7437 193.2933
" />
<path d="M183.1009 193.6505
L183.1723 193.7219
" />
<path d="M183.1723 193.7219
L183.1009 193.7933
" />
<path d="M183.1009 193.7933
L183.0295 193.7219
" />
<path d="M183.0295 193.7219
L183.1009 193.6505
" />
<path d="M183.1009 193.6505
L183.1009 193.7933
" />
<path d="M183.1009 192.8648
L183.1723 192.9362
" />
<path d="M183.1723 192.9362
L183.1009 193.0076
" />
<path d="M183.1009 193.0076
L183.0295 192.9362
" />
<path d="M183.0295 192.9362
L183.1009 192.8648
" />
<path d="M183.1009 192.8648
L183.1009 193.0076
" />
<path d="M184.8866 193.3648
L185.6009 193.3648
" />
<path d="M184.7437 193.7933
L185.2437 192.2933
" />
<path d="M185.2437 192.2933
L185.7437 193.7933
" />
<path d="M186.8866 192.7933
L186.8866 193.7933
" />
<path d="M186.5295 192.2219
L186.1723 193.2933
" />
<path d="M186.1723 193.2933
L187.1009 193.2933
" />
</g></g>
<g style="fill:none; 
stroke:#000000; stroke-width:0.1500; stroke-opacity:1; 
stroke-linecap:round; stroke-linejoin:round;">
<text x="263.0022" y="196.6572"
textLength="8.5071" font-size="2.0000" lengthAdjust="spacingAndGlyphs"
text-anchor="start" opacity="0" stroke-opacity="0">Id: 1/1</text>
<g class="stroked-text"><desc>Id: 1/1</desc>
<path d="M263.4580 196.5933
L263.4580 195.0933
" />
<path d="M264.8152 196.5933
L264.8152 195.0933
" />
<path d="M264.8152 196.5219
L264.6723 196.5933
" />
<path d="M264.6723 196.5933
L264.3866 196.5933
" />
<path d="M264.3866 196.5933
L264.2437 196.5219
" />
<path d="M264.2437 196.5219
L264.1723 196.4505
" />
<path d="M264.1723 196.4505
L264.1009 196.3076
" />
<path d="M264.1009 196.3076
L264.1009 195.8790
" />
<path d="M264.1009 195.8790
L264.1723 195.7362
" />
<path d="M264.1723 195.7362
L264.2437 195.6648
" />
<path d="M264.2437 195.6648
L264.3866 195.5933
" />
<path d="M264.3866 195.5933
L264.6723 195.5933
" />
<path d="M264.6723 195.5933
L264.8152 195.6648
" />
<path d="M265.5295 196.4505
L265.6009 196.5219
" />
<path d="M265.6009 196.5219
L265.5295 196.5933
" />
<path d="M265.5295 196.5933
L265.4580 196.5219
" />
<path d="M265.4580 196.5219
L265.5295 196.4505
" />
<path d="M265.5295 196.4505
L265.5295 196.5933
" />
<path d="M265.5295 195.6648
L265.6009 195.7362
" />
<path d="M265.6009 195.7362
L265.5295 195.8076
" />
<path d="M265.5295 195.8076
L265.4580 195.7362
" />
<path d="M265.4580 195.7362
L265.5295 195.6648
" />
<path d="M265.5295 195.6648
L265.5295 195.8076
" />
<path d="M268.1723 196.5933
L267.3152 196.5933
" />
<path d="M267.7437 196.5933
L267.7437 195.0933
" />
<path d="M267.7437 195.0933
L267.6009 195.3076
" />
<path d="M267.6009 195.3076
L267.4580 195.4505
" />
<path d="M267.4580 195.4505
L267.3152 195.5219
" />
<path d="M269.8866 195.0219
L268.6009 196.9505
" />
<path d="M271.1723 196.5933
L270.3152 196.5933
" />
<path d="M270.7437 196.5933
L270.7437 195.0933
" />
<path d="M270.7437 195.0933
L270.6009 195.3076
" />
<path d="M270.6009 195.3076
L270.4580 195.4505
" />
<path d="M270.4580 195.4505
L270.3152 195.5219
" />
</g></g>
<g style="fill:none; 
stroke:#000000; stroke-width:0.1500; stroke-opacity:1; 
stroke-linecap:round; stroke-linejoin:round;">
<path d="M177.0022 187.5072
L285.0022 187.5072
" />
</g>
<g style="fill:none; 
stroke:#000000; stroke-width:0.4000; stroke-opacity:1; 
stroke-linecap:round; stroke-linejoin:round;">
<text x="178.0022" y="190.3072"
textLength="9.6571" font-size="2.6667" lengthAdjust="spacingAndGlyphs"
text-anchor="start" opacity="0" stroke-opacity="0">Title: </text>
<g class="stroked-text"><desc>Title: </desc>
<path d="M178.6939 188.2116
L179.8368 188.2116
" />
<path d="M179.0154 190.2116
L179.2654 188.2116
" />
<path d="M180.2535 190.2116
L180.4201 188.8783
" />
<path d="M180.5035 188.2116
L180.3963 188.3069
" />
<path d="M180.3963 188.3069
L180.4796 188.4021
" />
<path d="M180.4796 188.4021
L180.5868 188.3069
" />
<path d="M180.5868 188.3069
L180.5035 188.2116
" />
<path d="M180.5035 188.2116
L180.4796 188.4021
" />
<path d="M181.0868 188.8783
L181.8487 188.8783
" />
<path d="M181.4558 188.2116
L181.2415 189.9259
" />
<path d="M181.2415 189.9259
L181.3130 190.1164
" />
<path d="M181.3130 190.1164
L181.4915 190.2116
" />
<path d="M181.4915 190.2116
L181.6820 190.2116
" />
<path d="M182.6344 190.2116
L182.4558 190.1164
" />
<path d="M182.4558 190.1164
L182.3844 189.9259
" />
<path d="M182.3844 189.9259
L182.5987 188.2116
" />
<path d="M184.1701 190.1164
L183.9677 190.2116
" />
<path d="M183.9677 190.2116
L183.5868 190.2116
" />
<path d="M183.5868 190.2116
L183.4082 190.1164
" />
<path d="M183.4082 190.1164
L183.3368 189.9259
" />
<path d="M183.3368 189.9259
L183.4320 189.1640
" />
<path d="M183.4320 189.1640
L183.5511 188.9735
" />
<path d="M183.5511 188.9735
L183.7535 188.8783
" />
<path d="M183.7535 188.8783
L184.1344 188.8783
" />
<path d="M184.1344 188.8783
L184.3130 188.9735
" />
<path d="M184.3130 188.9735
L184.3844 189.1640
" />
<path d="M184.3844 189.1640
L184.3606 189.3545
" />
<path d="M184.3606 189.3545
L183.3844 189.5450
" />
<path d="M185.1344 190.0212
L185.2177 190.1164
" />
<path d="M185.2177 190.1164
L185.1106 190.2116
" />
<path d="M185.1106 190.2116
L185.0273 190.1164
" />
<path d="M185.0273 190.1164
L185.1344 190.0212
" />
<path d="M185.1344 190.0212
L185.1106 190.2116
" />
<path d="M185.2654 188.9735
L185.3487 189.0688
" />
<path d="M185.3487 189.0688
L185.2415 189.1640
" />
<path d="M185.2415 189.1640
L185.1582 189.0688
" />
<path d="M185.1582 189.0688
L185.2654 188.9735
" />
<path d="M185.2654 188.9735
L185.2415 189.1640
" />
</g></g>
<g style="fill:none; 
stroke:#000000; stroke-width:0.1500; stroke-opacity:1; 
stroke-linecap:round; stroke-linejoin:round;">
<text x="178.0022" y="186.4572"
textLength="34.5786" font-size="2.0000" lengthAdjust="spacingAndGlyphs"
text-anchor="start" opacity="0" stroke-opacity="0">File: eclipse_sao_v1.kicad_pcb</text>
<g class="stroked-text"><desc>File: eclipse_sao_v1.kicad_pcb</desc>
<path d="M178.9580 185.6076
L178.4580 185.6076
" />
<path d="M178.4580 186.3933
L178.4580 184.8933
" />
<path d="M178.4580 184.8933
L179.1723 184.8933
" />
<path d="M179.7437 186.3933
L179.7437 185.3933
" />
<path d="M179.7437 184.8933
L179.6723 184.9648
" />
<path d="M179.6723 184.9648
L179.7437 185.0362
" />
<path d="M179.7437 185.0362
L179.8152 184.9648
" />
<path d="M179.8152 184.9648
L179.7437 184.8933
" />
<path d="M179.7437 184.8933
L179.7437 185.0362
" />
<path d="M180.6723 186.3933
L180.5295 186.3219
" />
<path d="M180.5295 186.3219
L180.4580 186.1790
" />
<path d="M180.4580 186.1790
L180.4580 184.8933
" />
<path d="M181.8152 186.3219
L181.6723 186.3933
" />
<path d="M181.6723 186.3933
L181.3866 186.3933
" />
<path d="M181.3866 186.3933
L181.2437 186.3219
" />
<path d="M181.2437 186.3219
L181.1723 186.1790
" />
<path d="M181.1723 186.1790
L181.1723 185.6076
" />
<path d="M181.1723 185.6076
L181.2437 185.4648
" />
<path d="M181.2437 185.4648
L181.3866 185.3933
" />
<path d="M181.3866 185.3933
L181.6723 185.3933
" />
<path d="M181.6723 185.3933
L181.8152 185.4648
" />
<path d="M181.8152 185.4648
L181.8866 185.6076
" />
<path d="M181.8866 185.6076
L181.8866 185.7505
" />
<path d="M181.8866 185.7505
L181.1723 185.8933
" />
<path d="M182.5295 186.2505
L182.6009 186.3219
" />
<path d="M182.6009 186.3219
L182.5295 186.3933
" />
<path d="M182.5295 186.3933
L182.4580 186.3219
" />
<path d="M182.4580 186.3219
L182.5295 186.2505
" />
<path d="M182.5295 186.2505
L182.5295 186.3933
" />
<path d="M182.5295 185.4648
L182.6009 185.5362
" />
<path d="M182.6009 185.5362
L182.5295 185.6076
" />
<path d="M182.5295 185.6076
L182.4580 185.5362
" />
<path d="M182.4580 185.5362
L182.5295 185.4648
" />
<path d="M182.5295 185.4648
L182.5295 185.6076
" />
<path d="M184.9580 186.3219
L184.8152 186.3933
" />
<path d="M184.8152 186.3933
L184.5295 186.3933
" />
<path d="M184.5295 186.3933
L184.3866 186.3219
" />
<path d="M184.3866 186.3219
L184.3152 186.1790
" />
<path d="M184.3152 186.1790
L184.3152 185.6076
" />
<path d="M184.3152 185.6076
L184.3866 185.4648
" />
<path d="M184.3866 185.4648
L184.5295 185.3933
" />
<path d="M184.5295 185.3933
L184.8152 185.3933
" />
<path d="M184.8152 185.3933
L184.9580 185.4648
" />
<path d="M184.9580 185.4648
L185.0295 185.6076
" />
<path d="M185.0295 185.6076
L185.0295 185.7505
" />
<path d="M185.0295 185.7505
L184.3152 185.8933
" />
<path d="M186.3152 186.3219
L186.1723 186.3933
" />
<path d="M186.1723 186.3933
L185.8866 186.3933
" />
<path d="M185.8866 186.3933
L185.7437 186.3219
" />
<path d="M185.7437 186.3219
L185.6723 186.2505
" />
<path d="M185.6723 186.2505
L185.6009 186.1076
" />
<path d="M185.6009 186.1076
L185.6009 185.6790
" />
<path d="M185.6009 185.6790
L185.6723 185.5362
" />
<path d="M185.6723 185.5362
L185.7437 185.4648
" />
<path d="M185.7437 185.4648
L185.8866 185.3933
" />
<path d="M185.8866 185.3933
L186.1723 185.3933
" />
<path d="M186.1723 185.3933
L186.3152 185.4648
" />
<path d="M187.1723 186.3933
L187.0295 186.3219
" />
<path d="M187.0295 186.3219
L186.9580 186.1790
" />
<path d="M186.9580 186.1790
L186.9580 184.8933
" />
<path d="M187.7437 186.3933
L187.7437 185.3933
" />
<path d="M187.7437 184.8933
L187.6723 184.9648
" />
<path d="M187.6723 184.9648
L187.7437 185.0362
" />
<path d="M187.7437 185.0362
L187.8152 184.9648
" />
<path d="M187.8152 184.9648
L187.7437 184.8933
" />
<path d="M187.7437 184.8933
L187.7437 185.0362
" />
<path d="M188.4580 185.3933
L188.4580 186.8933
" />
<path d="M188.4580 185.4648
L188.6009 185.3933
" />
<path d="M188.6009 185.3933
L188.8866 185.3933
" />
<path d="M188.8866 185.3933
L189.0295 185.4648
" />
<path d="M189.0295 185.4648
L189.1009 185.5362
" />
<path d="M189.1009 185.5362
L189.1723 185.6790
" />
<path d="M189.1723 185.6790
L189.1723 186.1076
" />
<path d="M189.1723 186.1076
L189.1009 186.2505
" />
<path d="M189.1009 186.2505
L189.0295 186.3219
" />
<path d="M189.0295 186.3219
L188.8866 186.3933
" />
<path d="M188.8866 186.3933
L188.6009 186.3933
" />
<path d="M188.6009 186.3933
L188.4580 186.3219
" />
<path d="M189.7437 186.3219
L189.8866 186.3933
" />
<path d="M189.8866 186.3933
L190.1723 186.3933
" />
<path d="M190.1723 186.3933
L190.3152 186.3219
" />
<path d="M190.3152 186.3219
L190.3866 186.1790
" />
<path d="M190.3866 186.1790
L190.3866 186.1076
" />
<path d="M190.3866 186.1076
L190.3152 185.9648
" />
<path d="M190.3152 185.9648
L190.1723 185.8933
" />
<path d="M190.1723 185.8933
L189.9580 185.8933
" />
<path d="M189.9580 185.8933
L189.8152 185.8219
" />
<path d="M189.8152 185.8219
L189.7437 185.6790
" />
<path d="M189.7437 185.6790
L189.7437 185.6076
" />
<path d="M189.7437 185.6076
L189.8152 185.4648
" />
<path d="M189.8152 185.4648
L189.9580 185.3933
" />
<path d="M189.9580 185.3933
L190.1723 185.3933
" />
<path d="M190.1723 185.3933
L190.3152 185.4648
" />
<path d="M191.6009 186.3219
L191.4580 186.3933
" />
<path d="M191.4580 186.3933
L191.1723 186.3933
" />
<path d="M191.1723 186.3933
L191.0295 186.3219
" />
<path d="M191.0295 186.3219
L190.9580 186.1790
" />
<path d="M190.9580 186.1790
L190.9580 185.6076
" />
<path d="M190.9580 185.6076
L191.0295 185.4648
" />
<path d="M191.0295 185.4648
L191.1723 185.3933
" />
<path d="M191.1723 185.3933
L191.4580 185.3933
" />
<path d="M191.4580 185.3933
L191.6009 185.4648
" />
<path d="M191.6009 185.4648
L191.6723 185.6076
" />
<path d="M191.6723 185.6076
L191.6723 185.7505
" />
<path d="M191.6723 185.7505
L190.9580 185.8933
" />
<path d="M191.9580 186.5362
L193.1009 186.5362
" />
<path d="M193.3866 186.3219
L193.5295 186.3933
" />
<path d="M193.5295 186.3933
L193.8152 186.3933
" />
<path d="M193.8152 186.3933
L193.9580 186.3219
" />
<path d="M193.9580 186.3219
L194.0295 186.1790
" />
<path d="M194.0295 186.1790
L194.0295 186.1076
" />
<path d="M194.0295 186.1076
L193.9580 185.9648
" />
<path d="M193.9580 185.9648
L193.8152 185.8933
" />
<path d="M193.8152 185.8933
L193.6009 185.8933
" />
<path d="M193.6009 185.8933
L193.4580 185.8219
" />
<path d="M193.4580 185.8219
L193.3866 185.6790
" />
<path d="M193.3866 185.6790
L193.3866 185.6076
" />
<path d="M193.3866 185.6076
L193.4580 185.4648
" />
<path d="M193.4580 185.4648
L193.6009 185.3933
" />
<path d="M193.6009 185.3933
L193.8152 185.3933
" />
<path d="M193.8152 185.3933
L193.9580 185.4648
" />
<path d="M195.3152 186.3933
L195.3152 185.6076
" />
<path d="M195.3152 185.6076
L195.2437 185.4648
" />
<path d="M195.2437 185.4648
L195.1009 185.3933
" />
<path d="M195.1009 185.3933
L194.8152 185.3933
" />
<path d="M194.8152 185.3933
L194.6723 185.4648
" />
<path d="M195.3152 186.3219
L195.1723 186.3933
" />
<path d="M195.1723 186.3933
L194.8152 186.3933
" />
<path d="M194.8152 186.3933
L194.6723 186.3219
" />
<path d="M194.6723 186.3219
L194.6009 186.1790
" />
<path d="M194.6009 186.1790
L194.6009 186.0362
" />
<path d="M194.6009 186.0362
L194.6723 185.8933
" />
<path d="M194.6723 185.8933
L194.8152 185.8219
" />
<path d="M194.8152 185.8219
L195.1723 185.8219
" />
<path d="M195.1723 185.8219
L195.3152 185.7505
" />
<path d="M196.2437 186.3933
L196.1009 186.3219
" />
<path d="M196.1009 186.3219
L196.0295 186.2505
" />
<path d="M196.0295 186.2505
L195.9580 186.1076
" />
<path d="M195.9580 186.1076
L195.9580 185.6790
" />
<path d="M195.9580 185.6790
L196.0295 185.5362
" />
<path d="M196.0295 185.5362
L196.1009 185.4648
" />
<path d="M196.1009 185.4648
L196.2437 185.3933
" />
<path d="M196.2437 185.3933
L196.4580 185.3933
" />
<path d="M196.4580 185.3933
L196.6009 185.4648
" />
<path d="M196.6009 185.4648
L196.6723 185.5362
" />
<path d="M196.6723 185.5362
L196.7437 185.6790
" />
<path d="M196.7437 185.6790
L196.7437 186.1076
" />
<path d="M196.7437 186.1076
L196.6723 186.2505
" />
<path d="M196.6723 186.2505
L196.6009 186.3219
" />
<path d="M196.6009 186.3219
L196.4580 186.3933
" />
<path d="M196.4580 186.3933
L196.2437 186.3933
" />
<path d="M197.0295 186.5362
L198.1723 186.5362
" />
<path d="M198.3866 185.3933
L198.7437 186.3933
" />
<path d="M198.7437 186.3933
L199.1009 185.3933
" />
<path d="M200.4580 186.3933
L199.6009 186.3933
" />
<path d="M200.0295 186.3933
L200.0295 184.8933
" />
<path d="M200.0295 184.8933
L199.8866 185.1076
" />
<path d="M199.8866 185.1076
L199.7437 185.2505
" />
<path d="M199.7437 185.2505
L199.6009 185.3219
" />
<path d="M201.1009 186.2505
L201.1723 186.3219
" />
<path d="M201.1723 186.3219
L201.1009 186.3933
" />
<path d="M201.1009 186.3933
L201.0295 186.3219
" />
<path d="M201.0295 186.3219
L201.1009 186.2505
" />
<path d="M201.1009 186.2505
L201.1009 186.3933
" />
<path d="M201.8152 186.3933
L201.8152 184.8933
" />
<path d="M201.9580 185.8219
L202.3866 186.3933
" />
<path d="M202.3866 185.3933
L201.8152 185.9648
" />
<path d="M203.0295 186.3933
L203.0295 185.3933
" />
<path d="M203.0295 184.8933
L202.9580 184.9648
" />
<path d="M202.9580 184.9648
L203.0295 185.0362
" />
<path d="M203.0295 185.0362
L203.1009 184.9648
" />
<path d="M203.1009 184.9648
L203.0295 184.8933
" />
<path d="M203.0295 184.8933
L203.0295 185.0362
" />
<path d="M204.3866 186.3219
L204.2437 186.3933
" />
<path d="M204.2437 186.3933
L203.9580 186.3933
" />
<path d="M203.9580 186.3933
L203.8152 186.3219
" />
<path d="M203.8152 186.3219
L203.7437 186.2505
" />
<path d="M203.7437 186.2505
L203.6723 186.1076
" />
<path d="M203.6723 186.1076
L203.6723 185.6790
" />
<path d="M203.6723 185.6790
L203.7437 185.5362
" />
<path d="M203.7437 185.5362
L203.8152 185.4648
" />
<path d="M203.8152 185.4648
L203.9580 185.3933
" />
<path d="M203.9580 185.3933
L204.2437 185.3933
" />
<path d="M204.2437 185.3933
L204.3866 185.4648
" />
<path d="M205.6723 186.3933
L205.6723 185.6076
" />
<path d="M205.6723 185.6076
L205.6009 185.4648
" />
<path d="M205.6009 185.4648
L205.4580 185.3933
" />
<path d="M205.4580 185.3933
L205.1723 185.3933
" />
<path d="M205.1723 185.3933
L205.0295 185.4648
" />
<path d="M205.6723 186.3219
L205.5295 186.3933
" />
<path d="M205.5295 186.3933
L205.1723 186.3933
" />
<path d="M205.1723 186.3933
L205.0295 186.3219
" />
<path d="M205.0295 186.3219
L204.9580 186.1790
" />
<path d="M204.9580 186.1790
L204.9580 186.0362
" />
<path d="M204.9580 186.0362
L205.0295 185.8933
" />
<path d="M205.0295 185.8933
L205.1723 185.8219
" />
<path d="M205.1723 185.8219
L205.5295 185.8219
" />
<path d="M205.5295 185.8219
L205.6723 185.7505
" />
<path d="M207.0295 186.3933
L207.0295 184.8933
" />
<path d="M207.0295 186.3219
L206.8866 186.3933
" />
<path d="M206.8866 186.3933
L206.6009 186.3933
" />
<path d="M206.6009 186.3933
L206.4580 186.3219
" />
<path d="M206.4580 186.3219
L206.3866 186.2505
" />
<path d="M206.3866 186.2505
L206.3152 186.1076
" />
<path d="M206.3152 186.1076
L206.3152 185.6790
" />
<path d="M206.3152 185.6790
L206.3866 185.5362
" />
<path d="M206.3866 185.5362
L206.4580 185.4648
" />
<path d="M206.4580 185.4648
L206.6009 185.3933
" />
<path d="M206.6009 185.3933
L206.8866 185.3933
" />
<path d="M206.8866 185.3933
L207.0295 185.4648
" />
<path d="M207.3866 186.5362
L208.5295 186.5362
" />
<path d="M208.8866 185.3933
L208.8866 186.8933
" />
<path d="M208.8866 185.4648
L209.0295 185.3933
" />
<path d="M209.0295 185.3933
L209.3152 185.3933
" />
<path d="M209.3152 185.3933
L209.4580 185.4648
" />
<path d="M209.4580 185.4648
L209.5295 185.5362
" />
<path d="M209.5295 185.5362
L209.6009 185.6790
" />
<path d="M209.6009 185.6790
L209.6009 186.1076
" />
<path d="M209.6009 186.1076
L209.5295 186.2505
" />
<path d="M209.5295 186.2505
L209.4580 186.3219
" />
<path d="M209.4580 186.3219
L209.3152 186.3933
" />
<path d="M209.3152 186.3933
L209.0295 186.3933
" />
<path d="M209.0295 186.3933
L208.8866 186.3219
" />
<path d="M210.8866 186.3219
L210.7437 186.3933
" />
<path d="M210.7437 186.3933
L210.4580 186.3933
" />
<path d="M210.4580 186.3933
L210.3152 186.3219
" />
<path d="M210.3152 186.3219
L210.2437 186.2505
" />
<path d="M210.2437 186.2505
L210.1723 186.1076
" />
<path d="M210.1723 186.1076
L210.1723 185.6790
" />
<path d="M210.1723 185.6790
L210.2437 185.5362
" />
<path d="M210.2437 185.5362
L210.3152 185.4648
" />
<path d="M210.3152 185.4648
L210.4580 185.3933
" />
<path d="M210.4580 185.3933
L210.7437 185.3933
" />
<path d="M210.7437 185.3933
L210.8866 185.4648
" />
<path d="M211.5295 186.3933
L211.5295 184.8933
" />
<path d="M211.5295 185.4648
L211.6723 185.3933
" />
<path d="M211.6723 185.3933
L211.9580 185.3933
" />
<path d="M211.9580 185.3933
L212.1009 185.4648
" />
<path d="M212.1009 185.4648
L212.1723 185.5362
" />
<path d="M212.1723 185.5362
L212.2437 185.6790
" />
<path d="M212.2437 185.6790
L212.2437 186.1076
" />
<path d="M212.2437 186.1076
L212.1723 186.2505
" />
<path d="M212.1723 186.2505
L212.1009 186.3219
" />
<path d="M212.1009 186.3219
L211.9580 186.3933
" />
<path d="M211.9580 186.3933
L211.6723 186.3933
" />
<path d="M211.6723 186.3933
L211.5295 186.3219
" />
</g></g>
<g style="fill:none; 
stroke:#000000; stroke-width:0.1500; stroke-opacity:1; 
stroke-linecap:round; stroke-linejoin:round;">
<path d="M177.0022 181.5072
L285.0022 181.5072
" />
</g>
<g style="fill:none; 
stroke:#000000; stroke-width:0.1500; stroke-opacity:1; 
stroke-linecap:round; stroke-linejoin:round;">
<text x="178.0022" y="183.7572"
textLength="8.2214" font-size="2.0000" lengthAdjust="spacingAndGlyphs"
text-anchor="start" opacity="0" stroke-opacity="0">Sheet: </text>
<g class="stroked-text"><desc>Sheet: </desc>
<path d="M178.3866 183.6219
L178.6009 183.6933
" />
<path d="M178.6009 183.6933
L178.9580 183.6933
" />
<path d="M178.9580 183.6933
L179.1009 183.6219
" />
<path d="M179.1009 183.6219
L179.1723 183.5505
" />
<path d="M179.1723 183.5505
L179.2437 183.4076
" />
<path d="M179.2437 183.4076
L179.2437 183.2648
" />
<path d="M179.2437 183.2648
L179.1723 183.1219
" />
<path d="M179.1723 183.1219
L179.1009 183.0505
" />
<path d="M179.1009 183.0505
L178.9580 182.9790
" />
<path d="M178.9580 182.9790
L178.6723 182.9076
" />
<path d="M178.6723 182.9076
L178.5295 182.8362
" />
<path d="M178.5295 182.8362
L178.4580 182.7648
" />
<path d="M178.4580 182.7648
L178.3866 182.6219
" />
<path d="M178.3866 182.6219
L178.3866 182.4790
" />
<path d="M178.3866 182.4790
L178.4580 182.3362
" />
<path d="M178.4580 182.3362
L178.5295 182.2648
" />
<path d="M178.5295 182.2648
L178.6723 182.1933
" />
<path d="M178.6723 182.1933
L179.0295 182.1933
" />
<path d="M179.0295 182.1933
L179.2437 182.2648
" />
<path d="M179.8866 183.6933
L179.8866 182.1933
" />
<path d="M180.5295 183.6933
L180.5295 182.9076
" />
<path d="M180.5295 182.9076
L180.4580 182.7648
" />
<path d="M180.4580 182.7648
L180.3152 182.6933
" />
<path d="M180.3152 182.6933
L180.1009 182.6933
" />
<path d="M180.1009 182.6933
L179.9580 182.7648
" />
<path d="M179.9580 182.7648
L179.8866 182.8362
" />
<path d="M181.8152 183.6219
L181.6723 183.6933
" />
<path d="M181.6723 183.6933
L181.3866 183.6933
" />
<path d="M181.3866 183.6933
L181.2437 183.6219
" />
<path d="M181.2437 183.6219
L181.1723 183.4790
" />
<path d="M181.1723 183.4790
L181.1723 182.9076
" />
<path d="M181.1723 182.9076
L181.2437 182.7648
" />
<path d="M181.2437 182.7648
L181.3866 182.6933
" />
<path d="M181.3866 182.6933
L181.6723 182.6933
" />
<path d="M181.6723 182.6933
L181.8152 182.7648
" />
<path d="M181.8152 182.7648
L181.8866 182.9076
" />
<path d="M181.8866 182.9076
L181.8866 183.0505
" />
<path d="M181.8866 183.0505
L181.1723 183.1933
" />
<path d="M183.1009 183.6219
L182.9580 183.6933
" />
<path d="M182.9580 183.6933
L182.6723 183.6933
" />
<path d="M182.6723 183.6933
L182.5295 183.6219
" />
<path d="M182.5295 183.6219
L182.4580 183.4790
" />
<path d="M182.4580 183.4790
L182.4580 182.9076
" />
<path d="M182.4580 182.9076
L182.5295 182.7648
" />
<path d="M182.5295 182.7648
L182.6723 182.6933
" />
<path d="M182.6723 182.6933
L182.9580 182.6933
" />
<path d="M182.9580 182.6933
L183.1009 182.7648
" />
<path d="M183.1009 182.7648
L183.1723 182.9076
" />
<path d="M183.1723 182.9076
L183.1723 183.0505
" />
<path d="M183.1723 183.0505
L182.4580 183.1933
" />
<path d="M183.6009 182.6933
L184.1723 182.6933
" />
<path d="M183.8152 182.1933
L183.8152 183.4790
" />
<path d="M183.8152 183.4790
L183.8866 183.6219
" />
<path d="M183.8866 183.6219
L184.0295 183.6933
" />
<path d="M184.0295 183.6933
L184.1723 183.6933
" />
<path d="M184.6723 183.5505
L184.7437 183.6219
" />
<path d="M184.7437 183.6219
L184.6723 183.6933
" />
<path d="M184.6723 183.6933
L184.6009 183.6219
" />
<path d="M184.6009 183.6219
L184.6723 183.5505
" />
<path d="M184.6723 183.5505
L184.6723 183.6933
" />
<path d="M184.6723 182.7648
L184.7437 182.8362
" />
<path d="M184.7437 182.8362
L184.6723 182.9076
" />
<path d="M184.6723 182.9076
L184.6009 182.8362
" />
<path d="M184.6009 182.8362
L184.6723 182.7648
" />
<path d="M184.6723 182.7648
L184.6723 182.9076
" />
</g></g>
<g style="fill:none; 
stroke:#000000; stroke-width:0.3000; stroke-opacity:1; 
stroke-linecap:round; stroke-linejoin:round;">
<text x="178.0022" y="180.7572"
textLength="0.9000" font-size="2.0000" lengthAdjust="spacingAndGlyphs"
text-anchor="start" opacity="0" stroke-opacity="0"></text>
<g class="stroked-text"><desc></desc>
</g></g>
<g style="fill:none; 
stroke:#000000; stroke-width:0.1500; stroke-opacity:1; 
stroke-linecap:round; stroke-linejoin:round;">
<text x="178.0022" y="177.7572"
textLength="0.4500" font-size="2.0000" lengthAdjust="spacingAndGlyphs"
text-anchor="start" opacity="0" stroke-opacity="0"></text>
<g class="stroked-text"><desc></desc>
</g></g>
<g style="fill:none; 
stroke:#000000; stroke-width:0.1500; stroke-opacity:1; 
stroke-linecap:round; stroke-linejoin:round;">
<text x="178.0022" y="174.7572"
textLength="0.4500" font-size="2.0000" lengthAdjust="spacingAndGlyphs"
text-anchor="start" opacity="0" stroke-opacity="0"></text>
<g class="stroked-text"><desc></desc>
</g></g>
<g style="fill:none; 
stroke:#000000; stroke-width:0.1500; stroke-opacity:1; 
stroke-linecap:round; stroke-linejoin:round;">
<text x="178.0022" y="171.7572"
textLength="0.4500" font-size="2.0000" lengthAdjust="spacingAndGlyphs"
text-anchor="start" opacity="0" stroke-opacity="0"></text>
<g class="stroked-text"><desc></desc>
</g></g>
<g style="fill:none; 
stroke:#000000; stroke-width:0.1500; stroke-opacity:1; 
stroke-linecap:round; stroke-linejoin:round;">
<text x="178.0022" y="168.7572"
textLength="0.4500" font-size="2.0000" lengthAdjust="spacingAndGlyphs"
text-anchor="start" opacity="0" stroke-opacity="0"></text>
<g class="stroked-text"><desc></desc>
</g></g>
<g style="fill:none; 
stroke:#000000; stroke-width:0.1500; stroke-opacity:1; 
stroke-linecap:round; stroke-linejoin:round;">
<path d="M197.0022 191.5072
L197.0022 194.5072
" />
</g>
<g style="fill:none; 
stroke:#000000; stroke-width:0.1500; stroke-opacity:1; 
stroke-linecap:round; stroke-linejoin:round;">
<path d="M261.0022 191.5072
L261.0022 198.0072
" />
<path style="fill:none; 
stroke:#D0D2CD; stroke-width:0.4000; stroke-opacity:1; 
stroke-linecap:round; stroke-linejoin:round;fill:none"
d="M 25.9841,65.5233
25.9858,65.5274
25.9836,65.5239
25.9819,65.5201
Z" /> 
<path style="fill:none; 
stroke:#D0D2CD; stroke-width:0.4000; stroke-opacity:1; 
stroke-linecap:round; stroke-linejoin:round;fill:none"
d="M 54.2277,9.3310
54.2898,9.3324
54.3518,9.3355
54.4137,9.3405
54.4137,9.3405
55.8146,9.4841
57.2224,9.6449
58.6303,9.8314
60.0313,10.0519
61.4187,10.3147
62.7856,10.6284
63.4591,10.8069
64.1250,11.0012
64.7823,11.2125
65.4301,11.4417
66.9247,11.8667
68.4121,12.3316
69.8898,12.8367
71.3554,13.3825
72.8066,13.9695
74.2408,14.5980
75.6557,15.2686
77.0489,15.9815
78.4179,16.7373
79.7604,17.5364
81.0740,18.3792
82.3561,19.2662
83.6045,20.1977
84.8167,21.1743
85.9903,22.1963
87.1228,23.2642
87.2997,23.4036
87.5055,23.5874
87.7368,23.8115
87.9902,24.0714
88.2623,24.3630
88.5497,24.6818
89.1563,25.3843
89.7827,26.1444
90.4014,26.9279
90.9850,27.7005
91.5060,28.4277
92.0443,29.2840
92.5549,30.1617
93.0420,31.0572
93.5096,31.9666
93.9616,32.8860
94.4021,33.8117
95.2650,35.6666
95.3228,35.7934
95.3788,35.9209
95.4333,36.0491
95.4865,36.1779
95.5895,36.4370
95.6893,36.6975
95.7124,36.7392
95.7598,36.8594
95.9156,37.3028
96.1345,37.9628
96.3940,38.7744
96.6717,39.6728
96.9454,40.5931
97.1926,41.4704
97.3910,42.2398
97.3947,42.2443
97.3964,42.2465
97.3979,42.2485
97.3992,42.2505
97.4004,42.2524
97.4014,42.2542
97.4018,42.2551
97.4021,42.2560
97.4024,42.2568
97.4027,42.2577
97.4029,42.2585
97.4030,42.2594
97.4031,42.2602
97.4031,42.2610
97.4030,42.2618
97.4029,42.2626
97.4027,42.2634
97.4024,42.2641
97.4021,42.2649
97.4017,42.2657
97.4012,42.2664
97.4006,42.2672
97.4000,42.2680
97.3993,42.2687
97.5881,43.1034
97.7576,43.9416
97.9101,44.7826
98.0478,45.6260
98.1730,46.4714
98.2882,47.3183
98.4974,49.0146
98.5309,49.3187
98.5606,49.6261
98.6097,50.2437
98.6470,50.8530
98.6746,51.4398
98.6573,53.4891
98.5205,55.4683
98.2803,57.3698
97.9526,59.1862
97.5531,60.9099
97.0978,62.5336
96.6026,64.0499
96.0834,65.4511
95.5560,66.7299
95.0364,67.8788
94.0838,69.7571
93.3529,71.0263
92.9706,71.6266
91.9585,73.1852
90.8767,74.6985
89.7281,76.1638
88.5154,77.5784
87.2416,78.9394
85.9094,80.2442
84.5216,81.4900
83.0812,82.6740
81.5910,83.7936
80.0538,84.8459
78.4724,85.8283
76.8497,86.7379
75.1885,87.5720
73.4917,88.3279
71.7621,89.0028
70.0025,89.5940
68.7834,89.9397
68.7824,89.9397
68.1850,90.0802
67.6745,90.2053
66.8962,90.4022
66.2482,90.5373
65.5976,90.6612
64.9448,90.7737
64.2902,90.8745
64.0186,90.9121
63.7466,90.9467
63.2016,91.0082
62.6557,91.0621
62.1095,91.1117
61.4362,91.1743
61.2678,91.1871
61.0992,91.1969
60.9305,91.2029
60.7617,91.2042
60.6354,91.2019
60.5091,91.1974
60.3828,91.1904
60.2566,91.1810
60.1307,91.1691
60.0051,91.1546
59.8799,91.1376
59.7551,91.1179
59.3613,91.0473
58.9688,90.9688
58.5777,90.8822
58.1885,90.7877
57.8013,90.6852
57.4164,90.5747
57.0340,90.4562
56.6545,90.3298
56.6132,90.3153
56.5721,90.3002
56.5312,90.2842
56.4908,90.2674
56.4507,90.2496
56.4113,90.2307
56.3726,90.2104
56.3346,90.1888
55.4669,89.6461
54.6195,89.0709
53.7897,88.4676
52.9749,87.8407
52.1725,87.1949
51.3799,86.5345
49.8134,85.1884
48.2544,83.8387
46.6817,82.5216
45.8837,81.8865
45.0744,81.2732
44.2512,80.6862
43.4114,80.1299
42.6514,79.8292
41.8059,79.4604
40.9289,79.0549
40.0742,78.6439
38.6471,77.9307
37.9554,77.5709
37.4619,77.2692
36.8565,76.8707
36.1665,76.3959
35.4193,75.8649
34.6423,75.2981
33.8629,74.7157
33.1085,74.1379
32.4064,73.5851
32.4052,73.5842
32.4040,73.5832
32.4028,73.5821
32.4016,73.5811
32.4005,73.5800
32.3993,73.5790
32.3982,73.5779
32.3971,73.5768
31.8811,73.0985
31.3683,72.6164
31.1148,72.3725
30.8642,72.1258
30.6170,71.8758
30.3739,71.6219
30.3633,71.6241
30.3533,71.6257
30.3439,71.6265
30.3395,71.6266
30.3353,71.6265
30.3313,71.6262
30.3274,71.6257
30.3238,71.6249
30.3204,71.6240
30.3172,71.6227
30.3142,71.6213
30.3114,71.6195
30.3089,71.6175
30.3066,71.6153
30.3045,71.6127
30.3027,71.6099
30.3011,71.6068
30.2998,71.6034
30.2988,71.5997
30.2980,71.5957
30.2975,71.5914
30.2973,71.5867
30.2974,71.5817
30.2977,71.5764
30.2984,71.5707
30.2994,71.5647
30.3007,71.5583
30.3022,71.5515
30.3042,71.5444
29.6880,70.8636
29.0938,70.1643
28.5223,69.4470
27.9743,68.7120
27.4503,67.9595
27.1975,67.5769
26.9510,67.1900
26.7109,66.7990
26.4772,66.4038
26.2500,66.0045
26.0295,65.6011
25.9999,65.5494
25.9857,65.5255
25.9841,65.5233
25.9834,65.5214
25.9716,65.4963
25.9453,65.4430
25.7545,65.0880
25.6601,64.9099
25.6140,64.8202
25.5691,64.7298
25.3791,64.3372
25.2106,63.9649
25.0590,63.6082
24.9197,63.2622
24.3945,61.8876
24.3279,61.7192
24.3119,61.6768
24.2966,61.6342
24.2822,61.5914
24.2689,61.5481
24.1313,61.0374
23.9902,60.4498
23.7255,59.2237
23.5302,58.2285
23.4601,57.8228
23.0690,54.8736
22.8899,51.9115
22.9168,48.9468
23.1435,45.9902
23.5639,43.0520
24.1719,40.1428
24.9613,37.2731
25.9262,34.4534
27.0602,31.6941
28.3574,29.0058
29.8116,26.3990
31.4167,23.8841
33.1665,21.4717
35.0550,19.1722
37.0761,16.9962
39.2235,14.9541
39.8478,14.3522
40.4931,13.7885
41.1585,13.2621
41.8429,12.7724
42.5452,12.3187
43.2644,11.9001
43.9994,11.5161
44.7492,11.1659
45.5127,10.8488
46.2889,10.5641
47.0766,10.3109
47.8748,10.0888
48.6826,9.8968
49.4987,9.7343
50.3222,9.6006
51.1520,9.4950
51.1644,9.4830
51.1763,9.4722
51.1876,9.4626
51.1981,9.4543
51.2079,9.4474
51.2169,9.4420
51.2210,9.4399
51.2248,9.4382
51.2284,9.4368
51.2317,9.4359
51.2347,9.4354
51.2375,9.4353
51.2399,9.4356
51.2420,9.4364
51.2438,9.4377
51.2452,9.4394
51.2463,9.4416
51.2470,9.4443
51.2473,9.4474
51.2473,9.4511
51.2468,9.4553
51.2460,9.4600
51.2447,9.4652
51.2430,9.4710
51.2409,9.4773
51.2383,9.4841
51.5712,9.4515
51.9050,9.4240
52.2396,9.4013
52.5747,9.3826
53.2457,9.3549
53.9167,9.3363
54.0410,9.3331
54.1655,9.3309
Z" /> 
<path style="fill:none; 
stroke:#D0D2CD; stroke-width:0.4000; stroke-opacity:1; 
stroke-linecap:round; stroke-linejoin:round;fill:none"
d="M 25.9841,65.5233
25.9858,65.5274
25.9836,65.5239
25.9819,65.5201
Z" /> 
<path style="fill:none; 
stroke:#D0D2CD; stroke-width:0.4000; stroke-opacity:1; 
stroke-linecap:round; stroke-linejoin:round;fill:none"
d="M 54.2277,9.3310
54.2898,9.3324
54.3518,9.3355
54.4137,9.3405
54.4137,9.3405
55.8146,9.4841
57.2224,9.6449
58.6303,9.8314
60.0313,10.0519
61.4187,10.3147
62.7856,10.6284
63.4591,10.8069
64.1250,11.0012
64.7823,11.2125
65.4301,11.4417
66.9247,11.8667
68.4121,12.3316
69.8898,12.8367
71.3554,13.3825
72.8066,13.9695
74.2408,14.5980
75.6557,15.2686
77.0489,15.9815
78.4179,16.7373
79.7604,17.5364
81.0740,18.3792
82.3561,19.2662
83.6045,20.1977
84.8167,21.1743
85.9903,22.1963
87.1228,23.2642
87.2997,23.4036
87.5055,23.5874
87.7368,23.8115
87.9902,24.0714
88.2623,24.3630
88.5497,24.6818
89.1563,25.3843
89.7827,26.1444
90.4014,26.9279
90.9850,27.7005
91.5060,28.4277
92.0443,29.2840
92.5549,30.1617
93.0420,31.0572
93.5096,31.9666
93.9616,32.8860
94.4021,33.8117
95.2650,35.6666
95.3228,35.7934
95.3788,35.9209
95.4333,36.0491
95.4865,36.1779
95.5895,36.4370
95.6893,36.6975
95.7124,36.7392
95.7598,36.8594
95.9156,37.3028
96.1345,37.9628
96.3940,38.7744
96.6717,39.6728
96.9454,40.5931
97.1926,41.4704
97.3910,42.2398
97.3947,42.2443
97.3964,42.2465
97.3979,42.2485
97.3992,42.2505
97.4004,42.2524
97.4014,42.2542
97.4018,42.2551
97.4021,42.2560
97.4024,42.2568
97.4027,42.2577
97.4029,42.2585
97.4030,42.2594
97.4031,42.2602
97.4031,42.2610
97.4030,42.2618
97.4029,42.2626
97.4027,42.2634
97.4024,42.2641
97.4021,42.2649
97.4017,42.2657
97.4012,42.2664
97.4006,42.2672
97.4000,42.2680
97.3993,42.2687
97.5881,43.1034
97.7576,43.9416
97.9101,44.7826
98.0478,45.6260
98.1730,46.4714
98.2882,47.3183
98.4974,49.0146
98.5309,49.3187
98.5606,49.6261
98.6097,50.2437
98.6470,50.8530
98.6746,51.4398
98.6573,53.4891
98.5205,55.4683
98.2803,57.3698
97.9526,59.1862
97.5531,60.9099
97.0978,62.5336
96.6026,64.0499
96.0834,65.4511
95.5560,66.7299
95.0364,67.8788
94.0838,69.7571
93.3529,71.0263
92.9706,71.6266
91.9585,73.1852
90.8767,74.6985
89.7281,76.1638
88.5154,77.5784
87.2416,78.9394
85.9094,80.2442
84.5216,81.4900
83.0812,82.6740
81.5910,83.7936
80.0538,84.8459
78.4724,85.8283
76.8497,86.7379
75.1885,87.5720
73.4917,88.3279
71.7621,89.0028
70.0025,89.5940
68.7834,89.9397
68.7824,89.9397
68.1850,90.0802
67.6745,90.2053
66.8962,90.4022
66.2482,90.5373
65.5976,90.6612
64.9448,90.7737
64.2902,90.8745
64.0186,90.9121
63.7466,90.9467
63.2016,91.0082
62.6557,91.0621
62.1095,91.1117
61.4362,91.1743
61.2678,91.1871
61.0992,91.1969
60.9305,91.2029
60.7617,91.2042
60.6354,91.2019
60.5091,91.1974
60.3828,91.1904
60.2566,91.1810
60.1307,91.1691
60.0051,91.1546
59.8799,91.1376
59.7551,91.1179
59.3613,91.0473
58.9688,90.9688
58.5777,90.8822
58.1885,90.7877
57.8013,90.6852
57.4164,90.5747
57.0340,90.4562
56.6545,90.3298
56.6132,90.3153
56.5721,90.3002
56.5312,90.2842
56.4908,90.2674
56.4507,90.2496
56.4113,90.2307
56.3726,90.2104
56.3346,90.1888
55.4669,89.6461
54.6195,89.0709
53.7897,88.4676
52.9749,87.8407
52.1725,87.1949
51.3799,86.5345
49.8134,85.1884
48.2544,83.8387
46.6817,82.5216
45.8837,81.8865
45.0744,81.2732
44.2512,80.6862
43.4114,80.1299
42.6514,79.8292
41.8059,79.4604
40.9289,79.0549
40.0742,78.6439
38.6471,77.9307
37.9554,77.5709
37.4619,77.2692
36.8565,76.8707
36.1665,76.3959
35.4193,75.8649
34.6423,75.2981
33.8629,74.7157
33.1085,74.1379
32.4064,73.5851
32.4052,73.5842
32.4040,73.5832
32.4028,73.5821
32.4016,73.5811
32.4005,73.5800
32.3993,73.5790
32.3982,73.5779
32.3971,73.5768
31.8811,73.0985
31.3683,72.6164
31.1148,72.3725
30.8642,72.1258
30.6170,71.8758
30.3739,71.6219
30.3633,71.6241
30.3533,71.6257
30.3439,71.6265
30.3395,71.6266
30.3353,71.6265
30.3313,71.6262
30.3274,71.6257
30.3238,71.6249
30.3204,71.6240
30.3172,71.6227
30.3142,71.6213
30.3114,71.6195
30.3089,71.6175
30.3066,71.6153
30.3045,71.6127
30.3027,71.6099
30.3011,71.6068
30.2998,71.6034
30.2988,71.5997
30.2980,71.5957
30.2975,71.5914
30.2973,71.5867
30.2974,71.5817
30.2977,71.5764
30.2984,71.5707
30.2994,71.5647
30.3007,71.5583
30.3022,71.5515
30.3042,71.5444
29.6880,70.8636
29.0938,70.1643
28.5223,69.4470
27.9743,68.7120
27.4503,67.9595
27.1975,67.5769
26.9510,67.1900
26.7109,66.7990
26.4772,66.4038
26.2500,66.0045
26.0295,65.6011
25.9999,65.5494
25.9857,65.5255
25.9841,65.5233
25.9834,65.5214
25.9716,65.4963
25.9453,65.4430
25.7545,65.0880
25.6601,64.9099
25.6140,64.8202
25.5691,64.7298
25.3791,64.3372
25.2106,63.9649
25.0590,63.6082
24.9197,63.2622
24.3945,61.8876
24.3279,61.7192
24.3119,61.6768
24.2966,61.6342
24.2822,61.5914
24.2689,61.5481
24.1313,61.0374
23.9902,60.4498
23.7255,59.2237
23.5302,58.2285
23.4601,57.8228
23.0690,54.8736
22.8899,51.9115
22.9168,48.9468
23.1435,45.9902
23.5639,43.0520
24.1719,40.1428
24.9613,37.2731
25.9262,34.4534
27.0602,31.6941
28.3574,29.0058
29.8116,26.3990
31.4167,23.8841
33.1665,21.4717
35.0550,19.1722
37.0761,16.9962
39.2235,14.9541
39.8478,14.3522
40.4931,13.7885
41.1585,13.2621
41.8429,12.7724
42.5452,12.3187
43.2644,11.9001
43.9994,11.5161
44.7492,11.1659
45.5127,10.8488
46.2889,10.5641
47.0766,10.3109
47.8748,10.0888
48.6826,9.8968
49.4987,9.7343
50.3222,9.6006
51.1520,9.4950
51.1644,9.4830
51.1763,9.4722
51.1876,9.4626
51.1981,9.4543
51.2079,9.4474
51.2169,9.4420
51.2210,9.4399
51.2248,9.4382
51.2284,9.4368
51.2317,9.4359
51.2347,9.4354
51.2375,9.4353
51.2399,9.4356
51.2420,9.4364
51.2438,9.4377
51.2452,9.4394
51.2463,9.4416
51.2470,9.4443
51.2473,9.4474
51.2473,9.4511
51.2468,9.4553
51.2460,9.4600
51.2447,9.4652
51.2430,9.4710
51.2409,9.4773
51.2383,9.4841
51.5712,9.4515
51.9050,9.4240
52.2396,9.4013
52.5747,9.3826
53.2457,9.3549
53.9167,9.3363
54.0410,9.3331
54.1655,9.3309
Z" /> 
</g> 
</svg>
