<?xml version="1.0" encoding="UTF-8" standalone="no"?>
<svg
   version="1.1"
   width="76.1847mm"
   height="82.2733mm"
   viewBox="0 0 76.184701 82.273299"
   id="svg984"
   sodipodi:docname="eclipse_sao_v1-B_Courtyard.svg"
   inkscape:version="1.3.2 (1:1.3.2+202311252150+091e20ef0f)"
   xmlns:inkscape="http://www.inkscape.org/namespaces/inkscape"
   xmlns:sodipodi="http://sodipodi.sourceforge.net/DTD/sodipodi-0.dtd"
   xmlns="http://www.w3.org/2000/svg"
   xmlns:svg="http://www.w3.org/2000/svg"
   xmlns:rdf="http://www.w3.org/1999/02/22-rdf-syntax-ns#"
   xmlns:cc="http://creativecommons.org/ns#"
   xmlns:dc="http://purl.org/dc/elements/1.1/">
  <defs
     id="defs984" />
  <sodipodi:namedview
     id="namedview984"
     pagecolor="#ffffff"
     bordercolor="#000000"
     borderopacity="0.25"
     inkscape:showpageshadow="2"
     inkscape:pageopacity="0.0"
     inkscape:pagecheckerboard="0"
     inkscape:deskcolor="#d1d1d1"
     inkscape:document-units="mm"
     inkscape:zoom="1.4816159"
     inkscape:cx="230.49159"
     inkscape:cy="193.70743"
     inkscape:window-width="3370"
     inkscape:window-height="1376"
     inkscape:window-x="70"
     inkscape:window-y="1467"
     inkscape:window-maximized="1"
     inkscape:current-layer="svg984" />
  <title
     id="title1">SVG Image created as eclipse_sao_v1-B_Courtyard.svg date 2024/10/27 20:13:56 </title>
  <desc
     id="desc1">Image generated by PCBNEW </desc>
  <g
     style="fill:none;stroke:#26e9ff;stroke-width:0.05;stroke-linecap:round;stroke-linejoin:round;stroke-opacity:1"
     id="g984"
     transform="translate(-22.6899,-9.1309)">
    <path
       d="m 56.4075,23.05 h 3.36"
       id="path959" />
    <path
       d="m 56.4075,24.95 v -1.9"
       id="path960" />
    <path
       d="m 59.7675,23.05 v 1.9"
       id="path961" />
    <path
       d="m 59.7675,24.95 h -3.36"
       id="path962" />
    <path
       d="m 83.55,42.82 h 1.9"
       id="path963" />
    <path
       d="M 83.55,46.18 V 42.82"
       id="path964" />
    <path
       d="m 85.45,42.82 v 3.36"
       id="path965" />
    <path
       d="m 85.45,46.18 h -1.9"
       id="path966" />
    <path
       d="m 63.32,45.05 h 3.36"
       id="path967" />
    <path
       d="m 63.32,46.95 v -1.9"
       id="path968" />
    <path
       d="m 66.68,45.05 v 1.9"
       id="path969" />
    <path
       d="M 66.68,46.95 H 63.32"
       id="path970" />
    <path
       d="m 54.07,60.82 v 9.9"
       id="path971" />
    <path
       d="M 54.07,70.72 H 70.36"
       id="path972" />
    <path
       d="M 70.36,60.82 H 54.07"
       id="path973" />
    <path
       d="m 70.36,70.72 v -9.9"
       id="path974" />
    <path
       d="m 37.05,50.32 h 1.9"
       id="path975" />
    <path
       d="M 37.05,53.68 V 50.32"
       id="path976" />
    <path
       d="m 38.95,50.32 v 3.36"
       id="path977" />
    <path
       d="m 38.95,53.68 h -1.9"
       id="path978" />
    <path
       d="m 65.32,71.05 h 3.36"
       id="path979" />
    <path
       d="m 65.32,72.95 v -1.9"
       id="path980" />
    <path
       d="m 68.68,71.05 v 1.9"
       id="path981" />
    <path
       d="M 68.68,72.95 H 65.32"
       id="path982" />
    <path
       style="fill:none;stroke:#d0d2cd;stroke-width:0.4;stroke-linecap:round;stroke-linejoin:round;stroke-opacity:1"
       d="m 25.9841,65.5233 0.0017,0.0041 -0.0022,-0.0035 -0.0017,-0.0038 z"
       id="path983" />
    <path
       style="fill:none;stroke:#d0d2cd;stroke-width:0.4;stroke-linecap:round;stroke-linejoin:round;stroke-opacity:1"
       d="m 54.2277,9.331 0.0621,0.0014 0.062,0.0031 0.0619,0.005 v 0 l 1.4009,0.1436 1.4078,0.1608 1.4079,0.1865 1.401,0.2205 1.3874,0.2628 1.3669,0.3137 0.6735,0.1785 0.6659,0.1943 0.6573,0.2113 0.6478,0.2292 1.4946,0.425 1.4874,0.4649 1.4777,0.5051 1.4656,0.5458 1.4512,0.587 1.4342,0.6285 1.4149,0.6706 1.3932,0.7129 1.369,0.7558 1.3425,0.7991 1.3136,0.8428 1.2821,0.887 1.2484,0.9315 1.2122,0.9766 1.1736,1.022 1.1325,1.0679 0.1769,0.1394 0.2058,0.1838 0.2313,0.2241 0.2534,0.2599 0.2721,0.2916 0.2874,0.3188 0.6066,0.7025 0.6264,0.7601 0.6187,0.7835 0.5836,0.7726 0.521,0.7272 0.5383,0.8563 0.5106,0.8777 0.4871,0.8955 0.4676,0.9094 0.452,0.9194 0.4405,0.9257 0.8629,1.8549 0.0578,0.1268 0.056,0.1275 0.0545,0.1282 0.0532,0.1288 0.103,0.2591 0.0998,0.2605 0.0231,0.0417 0.0474,0.1202 0.1558,0.4434 0.2189,0.66 0.2595,0.8116 0.2777,0.8984 0.2737,0.9203 0.2472,0.8773 0.1984,0.7694 0.0037,0.0045 0.0017,0.0022 0.0015,0.002 0.0013,0.002 0.0012,0.0019 10e-4,0.0018 4e-4,9e-4 3e-4,9e-4 3e-4,8e-4 3e-4,9e-4 2e-4,8e-4 1e-4,9e-4 10e-5,8e-4 v 8e-4 l -10e-5,8e-4 -1e-4,8e-4 -2e-4,8e-4 -3e-4,7e-4 -3e-4,8e-4 -4e-4,8e-4 -5e-4,7e-4 -6e-4,8e-4 -6e-4,8e-4 -7e-4,7e-4 0.1888,0.8347 0.1695,0.8382 0.1525,0.841 0.1377,0.8434 0.1252,0.8454 0.1152,0.8469 0.2092,1.6963 0.0335,0.3041 0.0297,0.3074 0.0491,0.6176 0.0373,0.6093 0.0276,0.5868 -0.0173,2.0493 -0.1368,1.9792 -0.2402,1.9015 -0.3277,1.8164 -0.3995,1.7237 -0.4553,1.6237 -0.4952,1.5163 -0.5192,1.4012 -0.5274,1.2788 -0.5196,1.1489 -0.9526,1.8783 -0.7309,1.2692 -0.3823,0.6003 -1.0121,1.5586 -1.0818,1.5133 -1.1486,1.4653 -1.2127,1.4146 -1.2738,1.361 -1.3322,1.3048 -1.3878,1.2458 -1.4404,1.184 -1.4902,1.1196 -1.5372,1.0523 -1.5814,0.9824 -1.6227,0.9096 -1.6612,0.8341 -1.6968,0.7559 -1.7296,0.6749 -1.7596,0.5912 -1.2191,0.3457 h -0.001 l -0.5974,0.1405 -0.5105,0.1251 -0.7783,0.1969 -0.648,0.1351 -0.6506,0.1239 -0.6528,0.1125 -0.6546,0.1008 -0.2716,0.0376 -0.272,0.0346 -0.545,0.0615 -0.5459,0.0539 -0.5462,0.0496 -0.6733,0.0626 -0.1684,0.0128 -0.1686,0.0098 -0.1687,0.006 -0.1688,0.0013 -0.1263,-0.0023 -0.1263,-0.0045 -0.1263,-0.007 -0.1262,-0.0094 -0.1259,-0.0119 -0.1256,-0.0145 -0.1252,-0.017 -0.1248,-0.0197 -0.3938,-0.0706 -0.3925,-0.0785 -0.3911,-0.0866 -0.3892,-0.0945 -0.3872,-0.1025 -0.3849,-0.1105 -0.3824,-0.1185 -0.3795,-0.1264 -0.0413,-0.0145 -0.0411,-0.0151 -0.0409,-0.016 -0.0404,-0.0168 -0.0401,-0.0178 -0.0394,-0.0189 -0.0387,-0.0203 -0.038,-0.0216 -0.8677,-0.5427 -0.8474,-0.5752 -0.8298,-0.6033 -0.8148,-0.6269 -0.8024,-0.6458 -0.7926,-0.6604 -1.5665,-1.3461 -1.559,-1.3497 -1.5727,-1.3171 -0.798,-0.6351 -0.8093,-0.6133 -0.8232,-0.587 -0.8398,-0.5563 -0.76,-0.3007 -0.8455,-0.3688 -0.877,-0.4055 -0.8547,-0.411 -1.4271,-0.7132 -0.6917,-0.3598 -0.4935,-0.3017 -0.6054,-0.3985 -0.69,-0.4748 -0.7472,-0.531 -0.777,-0.5668 -0.7794,-0.5824 -0.7544,-0.5778 -0.7021,-0.5528 -0.0012,-9e-4 -0.0012,-10e-4 -0.0012,-0.0011 -0.0012,-10e-4 -0.0011,-0.0011 -0.0012,-0.001 -0.0011,-0.0011 -0.0011,-0.0011 -0.516,-0.4783 -0.5128,-0.4821 -0.2535,-0.2439 -0.2506,-0.2467 -0.2472,-0.25 -0.2431,-0.2539 -0.0106,0.0022 -0.01,0.0016 -0.0094,8e-4 -0.0044,1e-4 -0.0042,-1e-4 -0.004,-3e-4 -0.0039,-5e-4 -0.0036,-8e-4 -0.0034,-9e-4 -0.0032,-0.0013 -0.003,-0.0014 -0.0028,-0.0018 -0.0025,-0.002 -0.0023,-0.0022 -0.0021,-0.0026 -0.0018,-0.0028 -0.0016,-0.0031 -0.0013,-0.0034 -0.001,-0.0037 -8e-4,-0.004 -5e-4,-0.0043 -2e-4,-0.0047 10e-5,-0.005 3e-4,-0.0053 7e-4,-0.0057 10e-4,-0.006 0.0013,-0.0064 0.0015,-0.0068 0.002,-0.0071 L 29.688,70.8636 29.0938,70.1643 28.5223,69.447 27.9743,68.712 27.4503,67.9595 27.1975,67.5769 26.951,67.19 26.7109,66.799 26.4772,66.4038 26.25,66.0045 l -0.2205,-0.4034 -0.0296,-0.0517 -0.0142,-0.0239 -0.0016,-0.0022 -7e-4,-0.0019 -0.0118,-0.0251 -0.0263,-0.0533 -0.1908,-0.355 -0.0944,-0.1781 -0.0461,-0.0897 -0.0449,-0.0904 -0.19,-0.3926 -0.1685,-0.3723 -0.1516,-0.3567 -0.1393,-0.346 -0.5252,-1.3746 -0.0666,-0.1684 -0.016,-0.0424 -0.0153,-0.0426 -0.0144,-0.0428 -0.0133,-0.0433 -0.1376,-0.5107 -0.1411,-0.5876 -0.2647,-1.2261 -0.1953,-0.9952 -0.0701,-0.4057 -0.3911,-2.9492 -0.1791,-2.9621 0.0269,-2.9647 0.2267,-2.9566 0.4204,-2.9382 0.608,-2.9092 0.7894,-2.8697 0.9649,-2.8197 1.134,-2.7593 1.2972,-2.6883 1.4542,-2.6068 1.6051,-2.5149 1.7498,-2.4124 1.8885,-2.2995 2.0211,-2.176 2.1474,-2.0421 0.6243,-0.6019 0.6453,-0.5637 0.6654,-0.5264 0.6844,-0.4897 0.7023,-0.4537 0.7192,-0.4186 0.735,-0.384 0.7498,-0.3502 0.7635,-0.3171 0.7762,-0.2847 0.7877,-0.2532 0.7982,-0.2221 0.8078,-0.192 0.8161,-0.1625 0.8235,-0.1337 0.8298,-0.1056 0.0124,-0.012 0.0119,-0.0108 0.0113,-0.0096 0.0105,-0.0083 0.0098,-0.0069 0.009,-0.0054 0.0041,-0.0021 0.0038,-0.0017 0.0036,-0.0014 0.0033,-9e-4 0.003,-5e-4 0.0028,-10e-5 0.0024,3e-4 0.0021,8e-4 0.0018,0.0013 0.0014,0.0017 0.0011,0.0022 7e-4,0.0027 3e-4,0.0031 V 9.4511 L 51.2468,9.4553 51.246,9.46 51.2447,9.4652 51.243,9.471 51.2409,9.4773 51.2383,9.4841 51.5712,9.4515 51.905,9.424 52.2396,9.4013 52.5747,9.3826 53.2457,9.3549 53.9167,9.3363 54.041,9.3331 54.1655,9.3309 Z"
       id="path984" />
  </g>
  <metadata
     id="metadata984">
    <rdf:RDF>
      <cc:Work
         rdf:about="">
        <dc:title>SVG Image created as eclipse_sao_v1-B_Courtyard.svg date 2024/10/27 20:13:56 </dc:title>
      </cc:Work>
    </rdf:RDF>
  </metadata>
</svg>
