<?xml version="1.0" encoding="UTF-8" standalone="no"?>
<!-- Created with Inkscape (http://www.inkscape.org/) -->

<svg
   width="99.994003mm"
   height="93.907249mm"
   viewBox="0 0 99.994003 93.907249"
   version="1.1"
   id="svg1"
   xml:space="preserve"
   xmlns="http://www.w3.org/2000/svg"
   xmlns:svg="http://www.w3.org/2000/svg"><defs
     id="defs1" /><g
     id="layer2"
     style="display:inline"><path
       id="rect45435"
       style="display:inline;fill:none;stroke:#ff0000;stroke-width:0.4;stroke-linecap:square;stroke-dasharray:none"
       d="m 54.413732,9.340511 c 3.720223,0.3674303 7.587925,0.829095 11.016382,2.101164 7.986401,2.161358 15.766055,6.004028 21.692732,11.822534 0.859825,0.617075 3.101672,3.315211 4.383192,5.163513 1.47574,2.251231 2.613983,4.7728 3.758948,7.238834 0.156492,0.337053 0.292701,0.683006 0.424264,1.030945 0.05434,-0.0011 1.2577,3.692155 1.701706,5.542294 0.01059,0.01264 0.01645,0.02084 0.0083,0.02894 0.531491,2.220938 0.831813,4.483248 1.098124,6.745841 0.09475,0.804993 0.145814,1.664272 0.177245,2.425181 0.253874,11.10393 -5.262432,19.530679 -5.704048,20.186878 -5.206735,8.428165 -13.508781,15.042483 -22.968108,17.967378 -0.325382,0.09043 -0.834977,0.240864 -1.219047,0.345668 h -0.001 c -0.856648,0.196674 -1.468954,0.357599 -1.886185,0.462509 -0.862034,0.187491 -1.732324,0.345792 -2.606042,0.472322 -0.723654,0.104798 -1.4524,0.172619 -2.180746,0.237193 -0.448537,0.03977 -0.89744,0.09631 -1.34772,0.09248 -0.336769,-0.0029 -0.674568,-0.03024 -1.006652,-0.08629 -1.051518,-0.177474 -2.092477,-0.440355 -3.100586,-0.788065 -0.110166,-0.038 -0.219827,-0.08132 -0.319876,-0.141077 -4.68661,-2.799031 -8.395498,-7.182221 -12.923242,-10.058817 -1.864978,-0.683534 -5.215359,-2.426174 -5.455997,-2.559 -1.142392,-0.657859 -3.77082,-2.562959 -5.549016,-3.985803 -0.0032,-0.0026 -0.0063,-0.0054 -0.0093,-0.0083 -0.687743,-0.637517 -1.381174,-1.272056 -2.023132,-1.954919 -0.05829,0.0136 -0.09196,5.44e-4 -0.06976,-0.07751 -1.671919,-1.790709 -3.116264,-3.781345 -4.274674,-5.943306 -0.103905,-0.183443 0.0096,0.03029 -0.08423,-0.158128 -0.125355,-0.237802 -0.258008,-0.471194 -0.376204,-0.713135 -0.539118,-1.078738 -0.800971,-1.887599 -1.174608,-2.8422 -0.04398,-0.112364 -0.09176,-0.223685 -0.125573,-0.339516 -0.356067,-1.219801 -0.823455,-3.73677 -0.808735,-3.72535 -2.662381,-15.675494 3.983947,-32.353325 15.763379,-42.868701 3.271083,-3.31274 7.487972,-4.9692637 11.928471,-5.4590984 0.06741,-0.066972 0.116382,-0.086989 0.0863,-0.010852 0.886403,-0.094661 1.784479,-0.1269185 2.67839,-0.1477946 0.165643,-0.00387 0.332162,-0.012097 0.497048,0.00419 z" /></g></svg>
