%TF.GenerationSoftware,KiCad,Pcbnew,8.0.5-8.0.5-0~ubuntu22.04.1*%
%TF.CreationDate,2024-10-15T22:57:38-04:00*%
%TF.ProjectId,eclipse_sao_v1,65636c69-7073-4655-9f73-616f5f76312e,rev?*%
%TF.SameCoordinates,Original*%
%TF.FileFunction,Soldermask,Bot*%
%TF.FilePolarity,Negative*%
%FSLAX46Y46*%
G04 Gerber Fmt 4.6, Leading zero omitted, Abs format (unit mm)*
G04 Created by KiCad (PCBNEW 8.0.5-8.0.5-0~ubuntu22.04.1) date 2024-10-15 22:57:38*
%MOMM*%
%LPD*%
G01*
G04 APERTURE LIST*
G04 Aperture macros list*
%AMRoundRect*
0 Rectangle with rounded corners*
0 $1 Rounding radius*
0 $2 $3 $4 $5 $6 $7 $8 $9 X,Y pos of 4 corners*
0 Add a 4 corners polygon primitive as box body*
4,1,4,$2,$3,$4,$5,$6,$7,$8,$9,$2,$3,0*
0 Add four circle primitives for the rounded corners*
1,1,$1+$1,$2,$3*
1,1,$1+$1,$4,$5*
1,1,$1+$1,$6,$7*
1,1,$1+$1,$8,$9*
0 Add four rect primitives between the rounded corners*
20,1,$1+$1,$2,$3,$4,$5,0*
20,1,$1+$1,$4,$5,$6,$7,0*
20,1,$1+$1,$6,$7,$8,$9,0*
20,1,$1+$1,$8,$9,$2,$3,0*%
G04 Aperture macros list end*
%ADD10C,0.400000*%
%ADD11RoundRect,0.287500X0.287500X1.362500X-0.287500X1.362500X-0.287500X-1.362500X0.287500X-1.362500X0*%
%ADD12RoundRect,0.225000X0.475000X0.225000X-0.475000X0.225000X-0.475000X-0.225000X0.475000X-0.225000X0*%
%ADD13RoundRect,0.225000X-0.475000X-0.225000X0.475000X-0.225000X0.475000X0.225000X-0.475000X0.225000X0*%
%ADD14RoundRect,0.250000X-0.262500X-0.450000X0.262500X-0.450000X0.262500X0.450000X-0.262500X0.450000X0*%
%ADD15RoundRect,0.225000X0.225000X-0.475000X0.225000X0.475000X-0.225000X0.475000X-0.225000X-0.475000X0*%
%ADD16RoundRect,0.250000X-0.450000X0.262500X-0.450000X-0.262500X0.450000X-0.262500X0.450000X0.262500X0*%
%ADD17RoundRect,0.250000X0.262500X0.450000X-0.262500X0.450000X-0.262500X-0.450000X0.262500X-0.450000X0*%
%ADD18RoundRect,0.225000X-0.225000X0.475000X-0.225000X-0.475000X0.225000X-0.475000X0.225000X0.475000X0*%
%ADD19RoundRect,0.250000X-0.600000X0.600000X-0.600000X-0.600000X0.600000X-0.600000X0.600000X0.600000X0*%
%ADD20C,1.700000*%
%ADD21RoundRect,0.250000X0.450000X-0.262500X0.450000X0.262500X-0.450000X0.262500X-0.450000X-0.262500X0*%
G04 APERTURE END LIST*
D10*
X54227655Y-9331031D02*
X54289790Y-9332455D01*
X54351827Y-9335503D01*
X54413734Y-9340515D01*
X55814585Y-9484118D01*
X57222386Y-9644947D01*
X58630262Y-9831396D01*
X60031337Y-10051858D01*
X61418736Y-10314724D01*
X62105158Y-10464682D01*
X62785582Y-10628388D01*
X63459149Y-10806892D01*
X64125000Y-11001242D01*
X64782275Y-11212488D01*
X65430115Y-11441679D01*
X66924741Y-11866708D01*
X68412109Y-12331575D01*
X69889809Y-12836710D01*
X71355429Y-13382545D01*
X72806557Y-13969512D01*
X74240782Y-14598042D01*
X75655693Y-15268566D01*
X77048878Y-15981516D01*
X78417925Y-16737323D01*
X79760423Y-17536418D01*
X81073962Y-18379234D01*
X82356128Y-19266201D01*
X83604512Y-20197751D01*
X84816700Y-21174316D01*
X85990283Y-22196326D01*
X87122849Y-23264214D01*
X87299690Y-23403587D01*
X87505491Y-23587442D01*
X87736820Y-23811485D01*
X87990248Y-24071423D01*
X88549671Y-24681810D01*
X89156311Y-25384258D01*
X89782718Y-26144419D01*
X90401441Y-26927948D01*
X90985033Y-27700498D01*
X91506042Y-28427723D01*
X92044296Y-29283970D01*
X92554943Y-30161743D01*
X93042018Y-31057222D01*
X93509553Y-31966589D01*
X93961583Y-32886025D01*
X94402143Y-33811711D01*
X95264984Y-35666557D01*
X95322749Y-35793355D01*
X95378795Y-35920907D01*
X95433306Y-36049131D01*
X95486465Y-36177947D01*
X95589461Y-36437028D01*
X95689247Y-36697502D01*
X95759759Y-36859448D01*
X95915625Y-37302847D01*
X96393967Y-38774439D01*
X96945356Y-40593141D01*
X97192532Y-41470429D01*
X97390877Y-42239819D01*
X97392806Y-42242137D01*
X97394612Y-42244358D01*
X97396281Y-42246488D01*
X97397798Y-42248533D01*
X97399150Y-42250499D01*
X97400323Y-42252393D01*
X97400838Y-42253315D01*
X97401303Y-42254221D01*
X97401717Y-42255113D01*
X97402077Y-42255990D01*
X97402382Y-42256854D01*
X97402630Y-42257705D01*
X97402820Y-42258545D01*
X97402950Y-42259374D01*
X97403017Y-42260193D01*
X97403021Y-42261002D01*
X97402960Y-42261803D01*
X97402831Y-42262596D01*
X97402633Y-42263382D01*
X97402365Y-42264162D01*
X97402025Y-42264937D01*
X97401610Y-42265707D01*
X97401120Y-42266473D01*
X97400552Y-42267236D01*
X97399905Y-42267997D01*
X97399178Y-42268757D01*
X97588034Y-43103468D01*
X97757530Y-43941577D01*
X97909975Y-44782600D01*
X98047679Y-45626058D01*
X98172953Y-46471468D01*
X98288108Y-47318350D01*
X98497299Y-49014599D01*
X98530832Y-49318717D01*
X98560550Y-49626136D01*
X98609673Y-50243717D01*
X98646921Y-50853033D01*
X98674553Y-51439774D01*
X98681780Y-52472768D01*
X98657183Y-53489144D01*
X98602748Y-54487968D01*
X98520460Y-55468307D01*
X98412306Y-56429229D01*
X98280272Y-57369802D01*
X98126342Y-58289092D01*
X97952502Y-59186167D01*
X97760739Y-60060095D01*
X97553038Y-60909942D01*
X97331385Y-61734777D01*
X97097766Y-62533666D01*
X96602572Y-64049877D01*
X96083341Y-65451115D01*
X95555960Y-66729919D01*
X95036314Y-67878827D01*
X94540291Y-68890378D01*
X94083775Y-69757113D01*
X93352812Y-71026285D01*
X92970512Y-71626656D01*
X91958450Y-73185222D01*
X90876680Y-74698529D01*
X89728041Y-76163829D01*
X88515373Y-77578375D01*
X87241513Y-78939420D01*
X85909302Y-80244215D01*
X84521579Y-81490014D01*
X83081181Y-82674068D01*
X81590948Y-83793632D01*
X80053718Y-84845956D01*
X78472332Y-85828295D01*
X76849627Y-86737899D01*
X75188443Y-87572023D01*
X73491618Y-88327918D01*
X71761992Y-89002837D01*
X70002403Y-89594032D01*
X68783356Y-89939751D01*
X68782356Y-89939751D01*
X68184912Y-90080234D01*
X67674477Y-90205411D01*
X66896164Y-90402252D01*
X66248168Y-90537357D01*
X65597527Y-90661272D01*
X64944694Y-90773757D01*
X64290123Y-90874573D01*
X64018524Y-90912205D01*
X63746513Y-90946766D01*
X63201509Y-91008258D01*
X62655625Y-91062206D01*
X62109375Y-91111771D01*
X61436168Y-91174359D01*
X61267692Y-91187159D01*
X61099122Y-91197012D01*
X60930446Y-91203017D01*
X60761654Y-91204269D01*
X60635330Y-91202026D01*
X60508989Y-91197441D01*
X60382709Y-91190465D01*
X60256569Y-91181047D01*
X60130649Y-91169139D01*
X60005027Y-91154689D01*
X59879784Y-91137648D01*
X59754997Y-91117966D01*
X59361217Y-91047410D01*
X58968687Y-90968855D01*
X58577670Y-90882307D01*
X58188426Y-90787772D01*
X57801218Y-90685258D01*
X57416305Y-90574770D01*
X57033949Y-90456316D01*
X56654411Y-90329903D01*
X56613140Y-90315383D01*
X56572022Y-90300235D01*
X56531166Y-90284326D01*
X56490677Y-90267528D01*
X56450663Y-90249709D01*
X56411230Y-90230739D01*
X56372485Y-90210489D01*
X56353403Y-90199843D01*
X56334534Y-90188828D01*
X55466814Y-89646200D01*
X54619378Y-89070971D01*
X53789593Y-88467669D01*
X52974829Y-87840819D01*
X52172453Y-87194951D01*
X51379834Y-86534592D01*
X49813340Y-85188508D01*
X48254292Y-83838788D01*
X46681637Y-82521653D01*
X45883628Y-81886622D01*
X45074322Y-81273321D01*
X44251088Y-80686275D01*
X43411293Y-80130012D01*
X43045324Y-79990090D01*
X42651273Y-79829254D01*
X41805845Y-79460480D01*
X40928860Y-79054967D01*
X40074167Y-78643992D01*
X38647052Y-77930760D01*
X37955296Y-77570999D01*
X37461804Y-77269215D01*
X36856374Y-76870770D01*
X36166385Y-76395932D01*
X35419214Y-75864967D01*
X34642240Y-75298144D01*
X33862841Y-74715730D01*
X33108395Y-74137992D01*
X32406280Y-73585197D01*
X32405085Y-73584213D01*
X32403899Y-73583211D01*
X32402722Y-73582192D01*
X32401555Y-73581159D01*
X32400397Y-73580111D01*
X32399248Y-73579051D01*
X32398110Y-73577979D01*
X32396980Y-73576897D01*
X31881000Y-73098518D01*
X31368246Y-72616444D01*
X31114753Y-72372518D01*
X30864076Y-72125867D01*
X30616885Y-71875887D01*
X30373850Y-71621979D01*
X30363217Y-71624209D01*
X30353207Y-71625757D01*
X30343865Y-71626569D01*
X30339459Y-71626680D01*
X30335238Y-71626586D01*
X30331206Y-71626280D01*
X30327370Y-71625754D01*
X30323736Y-71625001D01*
X30320309Y-71624016D01*
X30317095Y-71622789D01*
X30314099Y-71621316D01*
X30311328Y-71619587D01*
X30308787Y-71617598D01*
X30306482Y-71615339D01*
X30304418Y-71612805D01*
X30302602Y-71609989D01*
X30301038Y-71606883D01*
X30299733Y-71603480D01*
X30298693Y-71599774D01*
X30297923Y-71595757D01*
X30297428Y-71591423D01*
X30297215Y-71586764D01*
X30297290Y-71581773D01*
X30297657Y-71576444D01*
X30298324Y-71570769D01*
X30299294Y-71564741D01*
X30300575Y-71558354D01*
X30302172Y-71551600D01*
X30304091Y-71544472D01*
X29687902Y-70863640D01*
X29093733Y-70164400D01*
X28522267Y-69447089D01*
X27974188Y-68712039D01*
X27450179Y-67959587D01*
X26950925Y-67190067D01*
X26477110Y-66403815D01*
X26029417Y-65601166D01*
X25999815Y-65549434D01*
X25985618Y-65525568D01*
X25984069Y-65523364D01*
X25983321Y-65521439D01*
X25971484Y-65496406D01*
X25945187Y-65443039D01*
X25754400Y-65088025D01*
X25660001Y-64909961D01*
X25613942Y-64820257D01*
X25568983Y-64729904D01*
X25379051Y-64337216D01*
X25210553Y-63964957D01*
X25058931Y-63608259D01*
X24919625Y-63262250D01*
X24394379Y-61887699D01*
X24327776Y-61719240D01*
X24311798Y-61676882D01*
X24296504Y-61634297D01*
X24282103Y-61591419D01*
X24268805Y-61548183D01*
X24131220Y-61037426D01*
X23990153Y-60449888D01*
X23852559Y-59830402D01*
X23725390Y-59223799D01*
X23530150Y-58228564D01*
X23460068Y-57822830D01*
X23068938Y-54873677D01*
X22889865Y-51911528D01*
X22916731Y-48946876D01*
X23036874Y-47379885D01*
X32541407Y-47379885D01*
X32576568Y-48689724D01*
X32673299Y-49995961D01*
X32832503Y-51295980D01*
X33055085Y-52587167D01*
X33341947Y-53866905D01*
X33693994Y-55132579D01*
X34112129Y-56381573D01*
X34454238Y-57410658D01*
X34841064Y-58417045D01*
X35271172Y-59400176D01*
X35743127Y-60359490D01*
X36255494Y-61294428D01*
X36806839Y-62204431D01*
X38020718Y-63947389D01*
X39373285Y-65583889D01*
X40853058Y-67109453D01*
X42448556Y-68519603D01*
X44148300Y-69809863D01*
X45940809Y-70975755D01*
X47814601Y-72012802D01*
X49758197Y-72916527D01*
X51760115Y-73682452D01*
X53808875Y-74306101D01*
X55892997Y-74782997D01*
X58001000Y-75108661D01*
X60121403Y-75278618D01*
X61659295Y-75358007D01*
X63198198Y-75349549D01*
X64733670Y-75254609D01*
X66261268Y-75074556D01*
X67776551Y-74810755D01*
X69275075Y-74464576D01*
X70752400Y-74037384D01*
X72204083Y-73530546D01*
X73625682Y-72945431D01*
X75012755Y-72283404D01*
X76360860Y-71545834D01*
X77665554Y-70734087D01*
X78922397Y-69849530D01*
X80126945Y-68893531D01*
X81274756Y-67867457D01*
X82361389Y-66772675D01*
X83217518Y-65886331D01*
X84026060Y-64962725D01*
X84786877Y-64004049D01*
X85499833Y-63012498D01*
X86164791Y-61990264D01*
X86781616Y-60939541D01*
X87350169Y-59862521D01*
X87870315Y-58761400D01*
X88764839Y-56495622D01*
X89464094Y-54159753D01*
X89966987Y-51771342D01*
X90272426Y-49347933D01*
X90379317Y-46907075D01*
X90286569Y-44466313D01*
X89993088Y-42043194D01*
X89497781Y-39655266D01*
X88799555Y-37320075D01*
X88374007Y-36177739D01*
X87897319Y-35055167D01*
X87369355Y-33954553D01*
X86789978Y-32878089D01*
X86159052Y-31827970D01*
X85476440Y-30806389D01*
X84470339Y-29325316D01*
X83367721Y-27932232D01*
X82175106Y-26628208D01*
X80899015Y-25414319D01*
X79545967Y-24291637D01*
X78122482Y-23261235D01*
X76635079Y-22324185D01*
X75090279Y-21481562D01*
X73494600Y-20734437D01*
X71854564Y-20083884D01*
X70176689Y-19530975D01*
X68467495Y-19076784D01*
X66733503Y-18722383D01*
X64981231Y-18468845D01*
X63217200Y-18317244D01*
X61447929Y-18268652D01*
X60643746Y-18280907D01*
X59840437Y-18314767D01*
X59038617Y-18370333D01*
X58238897Y-18447705D01*
X57441890Y-18546986D01*
X56648209Y-18668277D01*
X55858465Y-18811678D01*
X55073272Y-18977290D01*
X54293242Y-19165216D01*
X53518988Y-19375555D01*
X52751122Y-19608410D01*
X51990256Y-19863882D01*
X51237003Y-20142071D01*
X50491976Y-20443079D01*
X49755787Y-20767007D01*
X49029049Y-21113956D01*
X47818687Y-21663770D01*
X46647301Y-22275372D01*
X45515794Y-22946146D01*
X44425071Y-23673478D01*
X43376035Y-24454751D01*
X42369591Y-25287350D01*
X41406641Y-26168659D01*
X40488089Y-27096062D01*
X39614840Y-28066945D01*
X38787796Y-29078691D01*
X38007862Y-30128685D01*
X37275942Y-31214312D01*
X35959757Y-33481998D01*
X34846471Y-35860826D01*
X33943313Y-38329872D01*
X33257514Y-40868209D01*
X32796303Y-43454913D01*
X32566911Y-46069060D01*
X32541407Y-47379885D01*
X23036874Y-47379885D01*
X23143420Y-45990219D01*
X23563816Y-43052050D01*
X24171802Y-40142866D01*
X24961261Y-37273161D01*
X25926076Y-34453432D01*
X27060132Y-31694172D01*
X28357311Y-29005878D01*
X29811497Y-26399045D01*
X31416573Y-23884168D01*
X33166422Y-21471742D01*
X35054929Y-19172263D01*
X37075975Y-16996226D01*
X39223446Y-14954126D01*
X39847681Y-14352277D01*
X40493026Y-13788528D01*
X41158423Y-13262162D01*
X41842813Y-12772463D01*
X42545139Y-12318713D01*
X43264342Y-11900195D01*
X43999365Y-11516192D01*
X44749151Y-11165987D01*
X45512640Y-10848864D01*
X46288776Y-10564103D01*
X47076500Y-10310990D01*
X47874754Y-10088807D01*
X48682481Y-9896836D01*
X49498622Y-9734360D01*
X50322120Y-9600663D01*
X51151916Y-9495028D01*
X51164325Y-9483033D01*
X51176212Y-9472210D01*
X51187490Y-9462633D01*
X51198069Y-9454371D01*
X51203069Y-9450757D01*
X51207861Y-9447499D01*
X51212434Y-9444606D01*
X51216777Y-9442088D01*
X51220878Y-9439953D01*
X51224727Y-9438209D01*
X51228313Y-9436868D01*
X51231625Y-9435936D01*
X51234650Y-9435424D01*
X51237379Y-9435340D01*
X51239801Y-9435693D01*
X51241903Y-9436492D01*
X51243675Y-9437747D01*
X51245106Y-9439466D01*
X51246185Y-9441659D01*
X51246901Y-9444333D01*
X51247242Y-9447499D01*
X51247198Y-9451166D01*
X51246757Y-9455341D01*
X51245909Y-9460036D01*
X51244642Y-9465257D01*
X51242945Y-9471015D01*
X51240807Y-9477318D01*
X51238216Y-9484176D01*
X51571134Y-9451503D01*
X51904960Y-9424083D01*
X52239509Y-9401318D01*
X52574596Y-9382609D01*
X53245641Y-9354969D01*
X53916607Y-9336381D01*
X53916607Y-9336385D01*
X54040976Y-9333107D01*
X54165454Y-9330891D01*
X54227655Y-9331031D01*
G36*
X54227655Y-9331031D02*
G01*
X54289790Y-9332455D01*
X54351827Y-9335503D01*
X54413734Y-9340515D01*
X55814585Y-9484118D01*
X57222386Y-9644947D01*
X58630262Y-9831396D01*
X60031337Y-10051858D01*
X61418736Y-10314724D01*
X62105158Y-10464682D01*
X62785582Y-10628388D01*
X63459149Y-10806892D01*
X64125000Y-11001242D01*
X64782275Y-11212488D01*
X65430115Y-11441679D01*
X66924741Y-11866708D01*
X68412109Y-12331575D01*
X69889809Y-12836710D01*
X71355429Y-13382545D01*
X72806557Y-13969512D01*
X74240782Y-14598042D01*
X75655693Y-15268566D01*
X77048878Y-15981516D01*
X78417925Y-16737323D01*
X79760423Y-17536418D01*
X81073962Y-18379234D01*
X82356128Y-19266201D01*
X83604512Y-20197751D01*
X84816700Y-21174316D01*
X85990283Y-22196326D01*
X87122849Y-23264214D01*
X87299690Y-23403587D01*
X87505491Y-23587442D01*
X87736820Y-23811485D01*
X87990248Y-24071423D01*
X88549671Y-24681810D01*
X89156311Y-25384258D01*
X89782718Y-26144419D01*
X90401441Y-26927948D01*
X90985033Y-27700498D01*
X91506042Y-28427723D01*
X92044296Y-29283970D01*
X92554943Y-30161743D01*
X93042018Y-31057222D01*
X93509553Y-31966589D01*
X93961583Y-32886025D01*
X94402143Y-33811711D01*
X95264984Y-35666557D01*
X95322749Y-35793355D01*
X95378795Y-35920907D01*
X95433306Y-36049131D01*
X95486465Y-36177947D01*
X95589461Y-36437028D01*
X95689247Y-36697502D01*
X95759759Y-36859448D01*
X95915625Y-37302847D01*
X96393967Y-38774439D01*
X96945356Y-40593141D01*
X97192532Y-41470429D01*
X97390877Y-42239819D01*
X97392806Y-42242137D01*
X97394612Y-42244358D01*
X97396281Y-42246488D01*
X97397798Y-42248533D01*
X97399150Y-42250499D01*
X97400323Y-42252393D01*
X97400838Y-42253315D01*
X97401303Y-42254221D01*
X97401717Y-42255113D01*
X97402077Y-42255990D01*
X97402382Y-42256854D01*
X97402630Y-42257705D01*
X97402820Y-42258545D01*
X97402950Y-42259374D01*
X97403017Y-42260193D01*
X97403021Y-42261002D01*
X97402960Y-42261803D01*
X97402831Y-42262596D01*
X97402633Y-42263382D01*
X97402365Y-42264162D01*
X97402025Y-42264937D01*
X97401610Y-42265707D01*
X97401120Y-42266473D01*
X97400552Y-42267236D01*
X97399905Y-42267997D01*
X97399178Y-42268757D01*
X97588034Y-43103468D01*
X97757530Y-43941577D01*
X97909975Y-44782600D01*
X98047679Y-45626058D01*
X98172953Y-46471468D01*
X98288108Y-47318350D01*
X98497299Y-49014599D01*
X98530832Y-49318717D01*
X98560550Y-49626136D01*
X98609673Y-50243717D01*
X98646921Y-50853033D01*
X98674553Y-51439774D01*
X98681780Y-52472768D01*
X98657183Y-53489144D01*
X98602748Y-54487968D01*
X98520460Y-55468307D01*
X98412306Y-56429229D01*
X98280272Y-57369802D01*
X98126342Y-58289092D01*
X97952502Y-59186167D01*
X97760739Y-60060095D01*
X97553038Y-60909942D01*
X97331385Y-61734777D01*
X97097766Y-62533666D01*
X96602572Y-64049877D01*
X96083341Y-65451115D01*
X95555960Y-66729919D01*
X95036314Y-67878827D01*
X94540291Y-68890378D01*
X94083775Y-69757113D01*
X93352812Y-71026285D01*
X92970512Y-71626656D01*
X91958450Y-73185222D01*
X90876680Y-74698529D01*
X89728041Y-76163829D01*
X88515373Y-77578375D01*
X87241513Y-78939420D01*
X85909302Y-80244215D01*
X84521579Y-81490014D01*
X83081181Y-82674068D01*
X81590948Y-83793632D01*
X80053718Y-84845956D01*
X78472332Y-85828295D01*
X76849627Y-86737899D01*
X75188443Y-87572023D01*
X73491618Y-88327918D01*
X71761992Y-89002837D01*
X70002403Y-89594032D01*
X68783356Y-89939751D01*
X68782356Y-89939751D01*
X68184912Y-90080234D01*
X67674477Y-90205411D01*
X66896164Y-90402252D01*
X66248168Y-90537357D01*
X65597527Y-90661272D01*
X64944694Y-90773757D01*
X64290123Y-90874573D01*
X64018524Y-90912205D01*
X63746513Y-90946766D01*
X63201509Y-91008258D01*
X62655625Y-91062206D01*
X62109375Y-91111771D01*
X61436168Y-91174359D01*
X61267692Y-91187159D01*
X61099122Y-91197012D01*
X60930446Y-91203017D01*
X60761654Y-91204269D01*
X60635330Y-91202026D01*
X60508989Y-91197441D01*
X60382709Y-91190465D01*
X60256569Y-91181047D01*
X60130649Y-91169139D01*
X60005027Y-91154689D01*
X59879784Y-91137648D01*
X59754997Y-91117966D01*
X59361217Y-91047410D01*
X58968687Y-90968855D01*
X58577670Y-90882307D01*
X58188426Y-90787772D01*
X57801218Y-90685258D01*
X57416305Y-90574770D01*
X57033949Y-90456316D01*
X56654411Y-90329903D01*
X56613140Y-90315383D01*
X56572022Y-90300235D01*
X56531166Y-90284326D01*
X56490677Y-90267528D01*
X56450663Y-90249709D01*
X56411230Y-90230739D01*
X56372485Y-90210489D01*
X56353403Y-90199843D01*
X56334534Y-90188828D01*
X55466814Y-89646200D01*
X54619378Y-89070971D01*
X53789593Y-88467669D01*
X52974829Y-87840819D01*
X52172453Y-87194951D01*
X51379834Y-86534592D01*
X49813340Y-85188508D01*
X48254292Y-83838788D01*
X46681637Y-82521653D01*
X45883628Y-81886622D01*
X45074322Y-81273321D01*
X44251088Y-80686275D01*
X43411293Y-80130012D01*
X43045324Y-79990090D01*
X42651273Y-79829254D01*
X41805845Y-79460480D01*
X40928860Y-79054967D01*
X40074167Y-78643992D01*
X38647052Y-77930760D01*
X37955296Y-77570999D01*
X37461804Y-77269215D01*
X36856374Y-76870770D01*
X36166385Y-76395932D01*
X35419214Y-75864967D01*
X34642240Y-75298144D01*
X33862841Y-74715730D01*
X33108395Y-74137992D01*
X32406280Y-73585197D01*
X32405085Y-73584213D01*
X32403899Y-73583211D01*
X32402722Y-73582192D01*
X32401555Y-73581159D01*
X32400397Y-73580111D01*
X32399248Y-73579051D01*
X32398110Y-73577979D01*
X32396980Y-73576897D01*
X31881000Y-73098518D01*
X31368246Y-72616444D01*
X31114753Y-72372518D01*
X30864076Y-72125867D01*
X30616885Y-71875887D01*
X30373850Y-71621979D01*
X30363217Y-71624209D01*
X30353207Y-71625757D01*
X30343865Y-71626569D01*
X30339459Y-71626680D01*
X30335238Y-71626586D01*
X30331206Y-71626280D01*
X30327370Y-71625754D01*
X30323736Y-71625001D01*
X30320309Y-71624016D01*
X30317095Y-71622789D01*
X30314099Y-71621316D01*
X30311328Y-71619587D01*
X30308787Y-71617598D01*
X30306482Y-71615339D01*
X30304418Y-71612805D01*
X30302602Y-71609989D01*
X30301038Y-71606883D01*
X30299733Y-71603480D01*
X30298693Y-71599774D01*
X30297923Y-71595757D01*
X30297428Y-71591423D01*
X30297215Y-71586764D01*
X30297290Y-71581773D01*
X30297657Y-71576444D01*
X30298324Y-71570769D01*
X30299294Y-71564741D01*
X30300575Y-71558354D01*
X30302172Y-71551600D01*
X30304091Y-71544472D01*
X29687902Y-70863640D01*
X29093733Y-70164400D01*
X28522267Y-69447089D01*
X27974188Y-68712039D01*
X27450179Y-67959587D01*
X26950925Y-67190067D01*
X26477110Y-66403815D01*
X26029417Y-65601166D01*
X25999815Y-65549434D01*
X25985618Y-65525568D01*
X25984069Y-65523364D01*
X25983321Y-65521439D01*
X25971484Y-65496406D01*
X25945187Y-65443039D01*
X25754400Y-65088025D01*
X25660001Y-64909961D01*
X25613942Y-64820257D01*
X25568983Y-64729904D01*
X25379051Y-64337216D01*
X25210553Y-63964957D01*
X25058931Y-63608259D01*
X24919625Y-63262250D01*
X24394379Y-61887699D01*
X24327776Y-61719240D01*
X24311798Y-61676882D01*
X24296504Y-61634297D01*
X24282103Y-61591419D01*
X24268805Y-61548183D01*
X24131220Y-61037426D01*
X23990153Y-60449888D01*
X23852559Y-59830402D01*
X23725390Y-59223799D01*
X23530150Y-58228564D01*
X23460068Y-57822830D01*
X23068938Y-54873677D01*
X22889865Y-51911528D01*
X22916731Y-48946876D01*
X23036874Y-47379885D01*
X32541407Y-47379885D01*
X32576568Y-48689724D01*
X32673299Y-49995961D01*
X32832503Y-51295980D01*
X33055085Y-52587167D01*
X33341947Y-53866905D01*
X33693994Y-55132579D01*
X34112129Y-56381573D01*
X34454238Y-57410658D01*
X34841064Y-58417045D01*
X35271172Y-59400176D01*
X35743127Y-60359490D01*
X36255494Y-61294428D01*
X36806839Y-62204431D01*
X38020718Y-63947389D01*
X39373285Y-65583889D01*
X40853058Y-67109453D01*
X42448556Y-68519603D01*
X44148300Y-69809863D01*
X45940809Y-70975755D01*
X47814601Y-72012802D01*
X49758197Y-72916527D01*
X51760115Y-73682452D01*
X53808875Y-74306101D01*
X55892997Y-74782997D01*
X58001000Y-75108661D01*
X60121403Y-75278618D01*
X61659295Y-75358007D01*
X63198198Y-75349549D01*
X64733670Y-75254609D01*
X66261268Y-75074556D01*
X67776551Y-74810755D01*
X69275075Y-74464576D01*
X70752400Y-74037384D01*
X72204083Y-73530546D01*
X73625682Y-72945431D01*
X75012755Y-72283404D01*
X76360860Y-71545834D01*
X77665554Y-70734087D01*
X78922397Y-69849530D01*
X80126945Y-68893531D01*
X81274756Y-67867457D01*
X82361389Y-66772675D01*
X83217518Y-65886331D01*
X84026060Y-64962725D01*
X84786877Y-64004049D01*
X85499833Y-63012498D01*
X86164791Y-61990264D01*
X86781616Y-60939541D01*
X87350169Y-59862521D01*
X87870315Y-58761400D01*
X88764839Y-56495622D01*
X89464094Y-54159753D01*
X89966987Y-51771342D01*
X90272426Y-49347933D01*
X90379317Y-46907075D01*
X90286569Y-44466313D01*
X89993088Y-42043194D01*
X89497781Y-39655266D01*
X88799555Y-37320075D01*
X88374007Y-36177739D01*
X87897319Y-35055167D01*
X87369355Y-33954553D01*
X86789978Y-32878089D01*
X86159052Y-31827970D01*
X85476440Y-30806389D01*
X84470339Y-29325316D01*
X83367721Y-27932232D01*
X82175106Y-26628208D01*
X80899015Y-25414319D01*
X79545967Y-24291637D01*
X78122482Y-23261235D01*
X76635079Y-22324185D01*
X75090279Y-21481562D01*
X73494600Y-20734437D01*
X71854564Y-20083884D01*
X70176689Y-19530975D01*
X68467495Y-19076784D01*
X66733503Y-18722383D01*
X64981231Y-18468845D01*
X63217200Y-18317244D01*
X61447929Y-18268652D01*
X60643746Y-18280907D01*
X59840437Y-18314767D01*
X59038617Y-18370333D01*
X58238897Y-18447705D01*
X57441890Y-18546986D01*
X56648209Y-18668277D01*
X55858465Y-18811678D01*
X55073272Y-18977290D01*
X54293242Y-19165216D01*
X53518988Y-19375555D01*
X52751122Y-19608410D01*
X51990256Y-19863882D01*
X51237003Y-20142071D01*
X50491976Y-20443079D01*
X49755787Y-20767007D01*
X49029049Y-21113956D01*
X47818687Y-21663770D01*
X46647301Y-22275372D01*
X45515794Y-22946146D01*
X44425071Y-23673478D01*
X43376035Y-24454751D01*
X42369591Y-25287350D01*
X41406641Y-26168659D01*
X40488089Y-27096062D01*
X39614840Y-28066945D01*
X38787796Y-29078691D01*
X38007862Y-30128685D01*
X37275942Y-31214312D01*
X35959757Y-33481998D01*
X34846471Y-35860826D01*
X33943313Y-38329872D01*
X33257514Y-40868209D01*
X32796303Y-43454913D01*
X32566911Y-46069060D01*
X32541407Y-47379885D01*
X23036874Y-47379885D01*
X23143420Y-45990219D01*
X23563816Y-43052050D01*
X24171802Y-40142866D01*
X24961261Y-37273161D01*
X25926076Y-34453432D01*
X27060132Y-31694172D01*
X28357311Y-29005878D01*
X29811497Y-26399045D01*
X31416573Y-23884168D01*
X33166422Y-21471742D01*
X35054929Y-19172263D01*
X37075975Y-16996226D01*
X39223446Y-14954126D01*
X39847681Y-14352277D01*
X40493026Y-13788528D01*
X41158423Y-13262162D01*
X41842813Y-12772463D01*
X42545139Y-12318713D01*
X43264342Y-11900195D01*
X43999365Y-11516192D01*
X44749151Y-11165987D01*
X45512640Y-10848864D01*
X46288776Y-10564103D01*
X47076500Y-10310990D01*
X47874754Y-10088807D01*
X48682481Y-9896836D01*
X49498622Y-9734360D01*
X50322120Y-9600663D01*
X51151916Y-9495028D01*
X51164325Y-9483033D01*
X51176212Y-9472210D01*
X51187490Y-9462633D01*
X51198069Y-9454371D01*
X51203069Y-9450757D01*
X51207861Y-9447499D01*
X51212434Y-9444606D01*
X51216777Y-9442088D01*
X51220878Y-9439953D01*
X51224727Y-9438209D01*
X51228313Y-9436868D01*
X51231625Y-9435936D01*
X51234650Y-9435424D01*
X51237379Y-9435340D01*
X51239801Y-9435693D01*
X51241903Y-9436492D01*
X51243675Y-9437747D01*
X51245106Y-9439466D01*
X51246185Y-9441659D01*
X51246901Y-9444333D01*
X51247242Y-9447499D01*
X51247198Y-9451166D01*
X51246757Y-9455341D01*
X51245909Y-9460036D01*
X51244642Y-9465257D01*
X51242945Y-9471015D01*
X51240807Y-9477318D01*
X51238216Y-9484176D01*
X51571134Y-9451503D01*
X51904960Y-9424083D01*
X52239509Y-9401318D01*
X52574596Y-9382609D01*
X53245641Y-9354969D01*
X53916607Y-9336381D01*
X53916607Y-9336385D01*
X54040976Y-9333107D01*
X54165454Y-9330891D01*
X54227655Y-9331031D01*
G37*
X25984069Y-65523364D02*
X25985676Y-65527505D01*
X25983525Y-65523971D01*
X25981847Y-65520203D01*
X25984069Y-65523364D01*
G36*
X25984069Y-65523364D02*
G01*
X25985676Y-65527505D01*
X25983525Y-65523971D01*
X25981847Y-65520203D01*
X25984069Y-65523364D01*
G37*
D11*
%TO.C,D105*%
X60250000Y-45500000D03*
X61600000Y-45500000D03*
%TD*%
D12*
%TO.C,D104*%
X60550000Y-72100000D03*
X63950000Y-72100000D03*
%TD*%
D13*
%TO.C,D102*%
X63700000Y-21750000D03*
X60300000Y-21750000D03*
%TD*%
D14*
%TO.C,R102*%
X57175000Y-24000000D03*
X59000000Y-24000000D03*
%TD*%
D15*
%TO.C,D101*%
X36000000Y-46300000D03*
X36000000Y-49700000D03*
%TD*%
D16*
%TO.C,R103*%
X84500000Y-43587500D03*
X84500000Y-45412500D03*
%TD*%
D17*
%TO.C,R105*%
X65912500Y-46000000D03*
X64087500Y-46000000D03*
%TD*%
D18*
%TO.C,D103*%
X87000000Y-49700000D03*
X87000000Y-46300000D03*
%TD*%
D19*
%TO.C,J101*%
X59670000Y-64500000D03*
D20*
X59670000Y-67040000D03*
X62210000Y-64500000D03*
X62210000Y-67040000D03*
X64750000Y-64500000D03*
X64750000Y-67040000D03*
%TD*%
D21*
%TO.C,R101*%
X38000000Y-52912500D03*
X38000000Y-51087500D03*
%TD*%
D17*
%TO.C,R104*%
X67912500Y-72000000D03*
X66087500Y-72000000D03*
%TD*%
M02*
