%TF.GenerationSoftware,KiCad,Pcbnew,8.0.5-8.0.5-0~ubuntu22.04.1*%
%TF.CreationDate,2024-10-15T22:57:18-04:00*%
%TF.ProjectId,eclipse_sao_v1,65636c69-7073-4655-9f73-616f5f76312e,rev?*%
%TF.SameCoordinates,Original*%
%TF.FileFunction,Legend,Bot*%
%TF.FilePolarity,Positive*%
%FSLAX46Y46*%
G04 Gerber Fmt 4.6, Leading zero omitted, Abs format (unit mm)*
G04 Created by KiCad (PCBNEW 8.0.5-8.0.5-0~ubuntu22.04.1) date 2024-10-15 22:57:18*
%MOMM*%
%LPD*%
G01*
G04 APERTURE LIST*
%ADD10C,0.150000*%
%ADD11C,0.010000*%
%ADD12C,0.120000*%
G04 APERTURE END LIST*
D10*
X52877506Y-63869819D02*
X52877506Y-64584104D01*
X52877506Y-64584104D02*
X52925125Y-64726961D01*
X52925125Y-64726961D02*
X53020363Y-64822200D01*
X53020363Y-64822200D02*
X53163220Y-64869819D01*
X53163220Y-64869819D02*
X53258458Y-64869819D01*
X51925125Y-64869819D02*
X52401315Y-64869819D01*
X52401315Y-64869819D02*
X52401315Y-63869819D01*
X51020363Y-64774580D02*
X51067982Y-64822200D01*
X51067982Y-64822200D02*
X51210839Y-64869819D01*
X51210839Y-64869819D02*
X51306077Y-64869819D01*
X51306077Y-64869819D02*
X51448934Y-64822200D01*
X51448934Y-64822200D02*
X51544172Y-64726961D01*
X51544172Y-64726961D02*
X51591791Y-64631723D01*
X51591791Y-64631723D02*
X51639410Y-64441247D01*
X51639410Y-64441247D02*
X51639410Y-64298390D01*
X51639410Y-64298390D02*
X51591791Y-64107914D01*
X51591791Y-64107914D02*
X51544172Y-64012676D01*
X51544172Y-64012676D02*
X51448934Y-63917438D01*
X51448934Y-63917438D02*
X51306077Y-63869819D01*
X51306077Y-63869819D02*
X51210839Y-63869819D01*
X51210839Y-63869819D02*
X51067982Y-63917438D01*
X51067982Y-63917438D02*
X51020363Y-63965057D01*
X50306077Y-63869819D02*
X50306077Y-64584104D01*
X50306077Y-64584104D02*
X50353696Y-64726961D01*
X50353696Y-64726961D02*
X50448934Y-64822200D01*
X50448934Y-64822200D02*
X50591791Y-64869819D01*
X50591791Y-64869819D02*
X50687029Y-64869819D01*
X49353696Y-64869819D02*
X49829886Y-64869819D01*
X49829886Y-64869819D02*
X49829886Y-63869819D01*
X48448934Y-64774580D02*
X48496553Y-64822200D01*
X48496553Y-64822200D02*
X48639410Y-64869819D01*
X48639410Y-64869819D02*
X48734648Y-64869819D01*
X48734648Y-64869819D02*
X48877505Y-64822200D01*
X48877505Y-64822200D02*
X48972743Y-64726961D01*
X48972743Y-64726961D02*
X49020362Y-64631723D01*
X49020362Y-64631723D02*
X49067981Y-64441247D01*
X49067981Y-64441247D02*
X49067981Y-64298390D01*
X49067981Y-64298390D02*
X49020362Y-64107914D01*
X49020362Y-64107914D02*
X48972743Y-64012676D01*
X48972743Y-64012676D02*
X48877505Y-63917438D01*
X48877505Y-63917438D02*
X48734648Y-63869819D01*
X48734648Y-63869819D02*
X48639410Y-63869819D01*
X48639410Y-63869819D02*
X48496553Y-63917438D01*
X48496553Y-63917438D02*
X48448934Y-63965057D01*
X47734648Y-63869819D02*
X47734648Y-64584104D01*
X47734648Y-64584104D02*
X47782267Y-64726961D01*
X47782267Y-64726961D02*
X47877505Y-64822200D01*
X47877505Y-64822200D02*
X48020362Y-64869819D01*
X48020362Y-64869819D02*
X48115600Y-64869819D01*
X46782267Y-64869819D02*
X47258457Y-64869819D01*
X47258457Y-64869819D02*
X47258457Y-63869819D01*
X45877505Y-64774580D02*
X45925124Y-64822200D01*
X45925124Y-64822200D02*
X46067981Y-64869819D01*
X46067981Y-64869819D02*
X46163219Y-64869819D01*
X46163219Y-64869819D02*
X46306076Y-64822200D01*
X46306076Y-64822200D02*
X46401314Y-64726961D01*
X46401314Y-64726961D02*
X46448933Y-64631723D01*
X46448933Y-64631723D02*
X46496552Y-64441247D01*
X46496552Y-64441247D02*
X46496552Y-64298390D01*
X46496552Y-64298390D02*
X46448933Y-64107914D01*
X46448933Y-64107914D02*
X46401314Y-64012676D01*
X46401314Y-64012676D02*
X46306076Y-63917438D01*
X46306076Y-63917438D02*
X46163219Y-63869819D01*
X46163219Y-63869819D02*
X46067981Y-63869819D01*
X46067981Y-63869819D02*
X45925124Y-63917438D01*
X45925124Y-63917438D02*
X45877505Y-63965057D01*
X45163219Y-63869819D02*
X45163219Y-64584104D01*
X45163219Y-64584104D02*
X45210838Y-64726961D01*
X45210838Y-64726961D02*
X45306076Y-64822200D01*
X45306076Y-64822200D02*
X45448933Y-64869819D01*
X45448933Y-64869819D02*
X45544171Y-64869819D01*
X44210838Y-64869819D02*
X44687028Y-64869819D01*
X44687028Y-64869819D02*
X44687028Y-63869819D01*
X43306076Y-64774580D02*
X43353695Y-64822200D01*
X43353695Y-64822200D02*
X43496552Y-64869819D01*
X43496552Y-64869819D02*
X43591790Y-64869819D01*
X43591790Y-64869819D02*
X43734647Y-64822200D01*
X43734647Y-64822200D02*
X43829885Y-64726961D01*
X43829885Y-64726961D02*
X43877504Y-64631723D01*
X43877504Y-64631723D02*
X43925123Y-64441247D01*
X43925123Y-64441247D02*
X43925123Y-64298390D01*
X43925123Y-64298390D02*
X43877504Y-64107914D01*
X43877504Y-64107914D02*
X43829885Y-64012676D01*
X43829885Y-64012676D02*
X43734647Y-63917438D01*
X43734647Y-63917438D02*
X43591790Y-63869819D01*
X43591790Y-63869819D02*
X43496552Y-63869819D01*
X43496552Y-63869819D02*
X43353695Y-63917438D01*
X43353695Y-63917438D02*
X43306076Y-63965057D01*
G36*
X76016259Y-59779616D02*
G01*
X76252442Y-60241235D01*
X76009420Y-60241235D01*
X76009420Y-59765613D01*
X76016259Y-59779616D01*
G37*
G36*
X76958792Y-60472044D02*
G01*
X76787090Y-60472044D01*
X76736179Y-60465089D01*
X76703314Y-60450062D01*
X76666659Y-60415220D01*
X76650802Y-60387536D01*
X76636509Y-60340581D01*
X76632484Y-60292281D01*
X76635811Y-60243227D01*
X76647627Y-60195806D01*
X76673520Y-60152376D01*
X76695743Y-60133279D01*
X76742131Y-60114721D01*
X76782205Y-60111053D01*
X76945115Y-60111053D01*
X76958792Y-60111053D01*
X76958792Y-60472044D01*
G37*
G36*
X76958792Y-60004563D02*
G01*
X76943649Y-60004563D01*
X76798080Y-60004563D01*
X76748469Y-59997122D01*
X76722365Y-59985512D01*
X76685189Y-59953035D01*
X76670586Y-59930314D01*
X76654883Y-59882566D01*
X76651779Y-59844340D01*
X76655809Y-59794515D01*
X76667899Y-59754947D01*
X76697914Y-59716032D01*
X76716748Y-59704145D01*
X76764222Y-59690292D01*
X76799302Y-59688025D01*
X76958792Y-59688025D01*
X76958792Y-60004563D01*
G37*
G36*
X77729138Y-60205819D02*
G01*
X77458854Y-60205819D01*
X77594056Y-59754943D01*
X77729138Y-60205819D01*
G37*
G36*
X78081557Y-60691111D02*
G01*
X74169803Y-60691111D01*
X74169803Y-60580000D01*
X74280914Y-60580000D01*
X74407920Y-60580000D01*
X74808478Y-59808436D01*
X74808478Y-60580000D01*
X74934752Y-60580000D01*
X74934752Y-60472044D01*
X75092533Y-60472044D01*
X75092533Y-60580000D01*
X75504082Y-60580000D01*
X75630355Y-60580000D01*
X75630355Y-60241235D01*
X75776413Y-60241235D01*
X75776413Y-60345526D01*
X75887787Y-60345526D01*
X75887787Y-60580000D01*
X76009420Y-60580000D01*
X76009420Y-60345526D01*
X76387752Y-60345526D01*
X76387752Y-60290816D01*
X76505966Y-60290816D01*
X76506046Y-60292281D01*
X76508729Y-60341254D01*
X76518279Y-60391858D01*
X76536663Y-60440911D01*
X76540893Y-60449085D01*
X76570923Y-60492935D01*
X76608991Y-60528128D01*
X76638834Y-60546782D01*
X76684783Y-60565694D01*
X76735985Y-60576756D01*
X76787090Y-60580000D01*
X76958792Y-60580000D01*
X77085066Y-60580000D01*
X77217690Y-60580000D01*
X77346650Y-60580000D01*
X77426335Y-60314263D01*
X77761628Y-60314263D01*
X77841242Y-60580000D01*
X77970446Y-60580000D01*
X77648290Y-59579581D01*
X77621423Y-59579581D01*
X77539846Y-59579581D01*
X77338184Y-60205819D01*
X77217690Y-60580000D01*
X77085066Y-60580000D01*
X77085066Y-59579581D01*
X76799302Y-59579581D01*
X76749169Y-59582120D01*
X76700229Y-59590535D01*
X76684019Y-59594968D01*
X76637063Y-59614691D01*
X76597801Y-59643084D01*
X76564929Y-59682562D01*
X76543824Y-59725638D01*
X76531134Y-59773236D01*
X76525714Y-59824215D01*
X76525287Y-59844340D01*
X76525261Y-59845561D01*
X76530591Y-59897340D01*
X76546579Y-59944537D01*
X76553105Y-59957180D01*
X76581629Y-59997104D01*
X76618474Y-60030110D01*
X76630530Y-60038269D01*
X76656826Y-60051550D01*
X76645413Y-60054013D01*
X76599790Y-60077891D01*
X76591695Y-60084187D01*
X76556590Y-60120887D01*
X76530501Y-60165960D01*
X76527704Y-60172602D01*
X76512844Y-60221676D01*
X76506497Y-60270928D01*
X76505966Y-60290816D01*
X76387752Y-60290816D01*
X76387752Y-60270788D01*
X76016259Y-59579581D01*
X76009420Y-59579581D01*
X75887787Y-59579581D01*
X75887787Y-60241235D01*
X75776413Y-60241235D01*
X75630355Y-60241235D01*
X75630355Y-59579581D01*
X75526796Y-59579581D01*
X75099371Y-59579581D01*
X75099371Y-59688025D01*
X75504082Y-59688025D01*
X75504082Y-60003342D01*
X75150907Y-60003342D01*
X75150907Y-60111053D01*
X75504082Y-60111053D01*
X75504082Y-60472044D01*
X75092533Y-60472044D01*
X74934752Y-60472044D01*
X74934752Y-59579581D01*
X74808478Y-59579581D01*
X74405966Y-60353342D01*
X74405966Y-59579581D01*
X74280914Y-59579581D01*
X74280914Y-60580000D01*
X74169803Y-60580000D01*
X74169803Y-59468470D01*
X78081557Y-59468470D01*
X78081557Y-60691111D01*
G37*
X61710839Y-55215057D02*
X61663220Y-55167438D01*
X61663220Y-55167438D02*
X61567982Y-55119819D01*
X61567982Y-55119819D02*
X61329887Y-55119819D01*
X61329887Y-55119819D02*
X61234649Y-55167438D01*
X61234649Y-55167438D02*
X61187030Y-55215057D01*
X61187030Y-55215057D02*
X61139411Y-55310295D01*
X61139411Y-55310295D02*
X61139411Y-55405533D01*
X61139411Y-55405533D02*
X61187030Y-55548390D01*
X61187030Y-55548390D02*
X61758458Y-56119819D01*
X61758458Y-56119819D02*
X61139411Y-56119819D01*
X60520363Y-55119819D02*
X60425125Y-55119819D01*
X60425125Y-55119819D02*
X60329887Y-55167438D01*
X60329887Y-55167438D02*
X60282268Y-55215057D01*
X60282268Y-55215057D02*
X60234649Y-55310295D01*
X60234649Y-55310295D02*
X60187030Y-55500771D01*
X60187030Y-55500771D02*
X60187030Y-55738866D01*
X60187030Y-55738866D02*
X60234649Y-55929342D01*
X60234649Y-55929342D02*
X60282268Y-56024580D01*
X60282268Y-56024580D02*
X60329887Y-56072200D01*
X60329887Y-56072200D02*
X60425125Y-56119819D01*
X60425125Y-56119819D02*
X60520363Y-56119819D01*
X60520363Y-56119819D02*
X60615601Y-56072200D01*
X60615601Y-56072200D02*
X60663220Y-56024580D01*
X60663220Y-56024580D02*
X60710839Y-55929342D01*
X60710839Y-55929342D02*
X60758458Y-55738866D01*
X60758458Y-55738866D02*
X60758458Y-55500771D01*
X60758458Y-55500771D02*
X60710839Y-55310295D01*
X60710839Y-55310295D02*
X60663220Y-55215057D01*
X60663220Y-55215057D02*
X60615601Y-55167438D01*
X60615601Y-55167438D02*
X60520363Y-55119819D01*
X59806077Y-55215057D02*
X59758458Y-55167438D01*
X59758458Y-55167438D02*
X59663220Y-55119819D01*
X59663220Y-55119819D02*
X59425125Y-55119819D01*
X59425125Y-55119819D02*
X59329887Y-55167438D01*
X59329887Y-55167438D02*
X59282268Y-55215057D01*
X59282268Y-55215057D02*
X59234649Y-55310295D01*
X59234649Y-55310295D02*
X59234649Y-55405533D01*
X59234649Y-55405533D02*
X59282268Y-55548390D01*
X59282268Y-55548390D02*
X59853696Y-56119819D01*
X59853696Y-56119819D02*
X59234649Y-56119819D01*
X58377506Y-55453152D02*
X58377506Y-56119819D01*
X58615601Y-55072200D02*
X58853696Y-55786485D01*
X58853696Y-55786485D02*
X58234649Y-55786485D01*
X57139410Y-56072200D02*
X56996553Y-56119819D01*
X56996553Y-56119819D02*
X56758458Y-56119819D01*
X56758458Y-56119819D02*
X56663220Y-56072200D01*
X56663220Y-56072200D02*
X56615601Y-56024580D01*
X56615601Y-56024580D02*
X56567982Y-55929342D01*
X56567982Y-55929342D02*
X56567982Y-55834104D01*
X56567982Y-55834104D02*
X56615601Y-55738866D01*
X56615601Y-55738866D02*
X56663220Y-55691247D01*
X56663220Y-55691247D02*
X56758458Y-55643628D01*
X56758458Y-55643628D02*
X56948934Y-55596009D01*
X56948934Y-55596009D02*
X57044172Y-55548390D01*
X57044172Y-55548390D02*
X57091791Y-55500771D01*
X57091791Y-55500771D02*
X57139410Y-55405533D01*
X57139410Y-55405533D02*
X57139410Y-55310295D01*
X57139410Y-55310295D02*
X57091791Y-55215057D01*
X57091791Y-55215057D02*
X57044172Y-55167438D01*
X57044172Y-55167438D02*
X56948934Y-55119819D01*
X56948934Y-55119819D02*
X56710839Y-55119819D01*
X56710839Y-55119819D02*
X56567982Y-55167438D01*
X55996553Y-56119819D02*
X56091791Y-56072200D01*
X56091791Y-56072200D02*
X56139410Y-56024580D01*
X56139410Y-56024580D02*
X56187029Y-55929342D01*
X56187029Y-55929342D02*
X56187029Y-55643628D01*
X56187029Y-55643628D02*
X56139410Y-55548390D01*
X56139410Y-55548390D02*
X56091791Y-55500771D01*
X56091791Y-55500771D02*
X55996553Y-55453152D01*
X55996553Y-55453152D02*
X55853696Y-55453152D01*
X55853696Y-55453152D02*
X55758458Y-55500771D01*
X55758458Y-55500771D02*
X55710839Y-55548390D01*
X55710839Y-55548390D02*
X55663220Y-55643628D01*
X55663220Y-55643628D02*
X55663220Y-55929342D01*
X55663220Y-55929342D02*
X55710839Y-56024580D01*
X55710839Y-56024580D02*
X55758458Y-56072200D01*
X55758458Y-56072200D02*
X55853696Y-56119819D01*
X55853696Y-56119819D02*
X55996553Y-56119819D01*
X55091791Y-56119819D02*
X55187029Y-56072200D01*
X55187029Y-56072200D02*
X55234648Y-55976961D01*
X55234648Y-55976961D02*
X55234648Y-55119819D01*
X54282267Y-56119819D02*
X54282267Y-55596009D01*
X54282267Y-55596009D02*
X54329886Y-55500771D01*
X54329886Y-55500771D02*
X54425124Y-55453152D01*
X54425124Y-55453152D02*
X54615600Y-55453152D01*
X54615600Y-55453152D02*
X54710838Y-55500771D01*
X54282267Y-56072200D02*
X54377505Y-56119819D01*
X54377505Y-56119819D02*
X54615600Y-56119819D01*
X54615600Y-56119819D02*
X54710838Y-56072200D01*
X54710838Y-56072200D02*
X54758457Y-55976961D01*
X54758457Y-55976961D02*
X54758457Y-55881723D01*
X54758457Y-55881723D02*
X54710838Y-55786485D01*
X54710838Y-55786485D02*
X54615600Y-55738866D01*
X54615600Y-55738866D02*
X54377505Y-55738866D01*
X54377505Y-55738866D02*
X54282267Y-55691247D01*
X53806076Y-56119819D02*
X53806076Y-55453152D01*
X53806076Y-55643628D02*
X53758457Y-55548390D01*
X53758457Y-55548390D02*
X53710838Y-55500771D01*
X53710838Y-55500771D02*
X53615600Y-55453152D01*
X53615600Y-55453152D02*
X53520362Y-55453152D01*
X52425123Y-55596009D02*
X52091790Y-55596009D01*
X51948933Y-56119819D02*
X52425123Y-56119819D01*
X52425123Y-56119819D02*
X52425123Y-55119819D01*
X52425123Y-55119819D02*
X51948933Y-55119819D01*
X51091790Y-56072200D02*
X51187028Y-56119819D01*
X51187028Y-56119819D02*
X51377504Y-56119819D01*
X51377504Y-56119819D02*
X51472742Y-56072200D01*
X51472742Y-56072200D02*
X51520361Y-56024580D01*
X51520361Y-56024580D02*
X51567980Y-55929342D01*
X51567980Y-55929342D02*
X51567980Y-55643628D01*
X51567980Y-55643628D02*
X51520361Y-55548390D01*
X51520361Y-55548390D02*
X51472742Y-55500771D01*
X51472742Y-55500771D02*
X51377504Y-55453152D01*
X51377504Y-55453152D02*
X51187028Y-55453152D01*
X51187028Y-55453152D02*
X51091790Y-55500771D01*
X50520361Y-56119819D02*
X50615599Y-56072200D01*
X50615599Y-56072200D02*
X50663218Y-55976961D01*
X50663218Y-55976961D02*
X50663218Y-55119819D01*
X50139408Y-56119819D02*
X50139408Y-55453152D01*
X50139408Y-55119819D02*
X50187027Y-55167438D01*
X50187027Y-55167438D02*
X50139408Y-55215057D01*
X50139408Y-55215057D02*
X50091789Y-55167438D01*
X50091789Y-55167438D02*
X50139408Y-55119819D01*
X50139408Y-55119819D02*
X50139408Y-55215057D01*
X49663218Y-55453152D02*
X49663218Y-56453152D01*
X49663218Y-55500771D02*
X49567980Y-55453152D01*
X49567980Y-55453152D02*
X49377504Y-55453152D01*
X49377504Y-55453152D02*
X49282266Y-55500771D01*
X49282266Y-55500771D02*
X49234647Y-55548390D01*
X49234647Y-55548390D02*
X49187028Y-55643628D01*
X49187028Y-55643628D02*
X49187028Y-55929342D01*
X49187028Y-55929342D02*
X49234647Y-56024580D01*
X49234647Y-56024580D02*
X49282266Y-56072200D01*
X49282266Y-56072200D02*
X49377504Y-56119819D01*
X49377504Y-56119819D02*
X49567980Y-56119819D01*
X49567980Y-56119819D02*
X49663218Y-56072200D01*
X48806075Y-56072200D02*
X48710837Y-56119819D01*
X48710837Y-56119819D02*
X48520361Y-56119819D01*
X48520361Y-56119819D02*
X48425123Y-56072200D01*
X48425123Y-56072200D02*
X48377504Y-55976961D01*
X48377504Y-55976961D02*
X48377504Y-55929342D01*
X48377504Y-55929342D02*
X48425123Y-55834104D01*
X48425123Y-55834104D02*
X48520361Y-55786485D01*
X48520361Y-55786485D02*
X48663218Y-55786485D01*
X48663218Y-55786485D02*
X48758456Y-55738866D01*
X48758456Y-55738866D02*
X48806075Y-55643628D01*
X48806075Y-55643628D02*
X48806075Y-55596009D01*
X48806075Y-55596009D02*
X48758456Y-55500771D01*
X48758456Y-55500771D02*
X48663218Y-55453152D01*
X48663218Y-55453152D02*
X48520361Y-55453152D01*
X48520361Y-55453152D02*
X48425123Y-55500771D01*
X47567980Y-56072200D02*
X47663218Y-56119819D01*
X47663218Y-56119819D02*
X47853694Y-56119819D01*
X47853694Y-56119819D02*
X47948932Y-56072200D01*
X47948932Y-56072200D02*
X47996551Y-55976961D01*
X47996551Y-55976961D02*
X47996551Y-55596009D01*
X47996551Y-55596009D02*
X47948932Y-55500771D01*
X47948932Y-55500771D02*
X47853694Y-55453152D01*
X47853694Y-55453152D02*
X47663218Y-55453152D01*
X47663218Y-55453152D02*
X47567980Y-55500771D01*
X47567980Y-55500771D02*
X47520361Y-55596009D01*
X47520361Y-55596009D02*
X47520361Y-55691247D01*
X47520361Y-55691247D02*
X47996551Y-55786485D01*
X46377503Y-56072200D02*
X46234646Y-56119819D01*
X46234646Y-56119819D02*
X45996551Y-56119819D01*
X45996551Y-56119819D02*
X45901313Y-56072200D01*
X45901313Y-56072200D02*
X45853694Y-56024580D01*
X45853694Y-56024580D02*
X45806075Y-55929342D01*
X45806075Y-55929342D02*
X45806075Y-55834104D01*
X45806075Y-55834104D02*
X45853694Y-55738866D01*
X45853694Y-55738866D02*
X45901313Y-55691247D01*
X45901313Y-55691247D02*
X45996551Y-55643628D01*
X45996551Y-55643628D02*
X46187027Y-55596009D01*
X46187027Y-55596009D02*
X46282265Y-55548390D01*
X46282265Y-55548390D02*
X46329884Y-55500771D01*
X46329884Y-55500771D02*
X46377503Y-55405533D01*
X46377503Y-55405533D02*
X46377503Y-55310295D01*
X46377503Y-55310295D02*
X46329884Y-55215057D01*
X46329884Y-55215057D02*
X46282265Y-55167438D01*
X46282265Y-55167438D02*
X46187027Y-55119819D01*
X46187027Y-55119819D02*
X45948932Y-55119819D01*
X45948932Y-55119819D02*
X45806075Y-55167438D01*
X45425122Y-55834104D02*
X44948932Y-55834104D01*
X45520360Y-56119819D02*
X45187027Y-55119819D01*
X45187027Y-55119819D02*
X44853694Y-56119819D01*
X44329884Y-55119819D02*
X44139408Y-55119819D01*
X44139408Y-55119819D02*
X44044170Y-55167438D01*
X44044170Y-55167438D02*
X43948932Y-55262676D01*
X43948932Y-55262676D02*
X43901313Y-55453152D01*
X43901313Y-55453152D02*
X43901313Y-55786485D01*
X43901313Y-55786485D02*
X43948932Y-55976961D01*
X43948932Y-55976961D02*
X44044170Y-56072200D01*
X44044170Y-56072200D02*
X44139408Y-56119819D01*
X44139408Y-56119819D02*
X44329884Y-56119819D01*
X44329884Y-56119819D02*
X44425122Y-56072200D01*
X44425122Y-56072200D02*
X44520360Y-55976961D01*
X44520360Y-55976961D02*
X44567979Y-55786485D01*
X44567979Y-55786485D02*
X44567979Y-55453152D01*
X44567979Y-55453152D02*
X44520360Y-55262676D01*
X44520360Y-55262676D02*
X44425122Y-55167438D01*
X44425122Y-55167438D02*
X44329884Y-55119819D01*
X42806074Y-55453152D02*
X42567979Y-56119819D01*
X42567979Y-56119819D02*
X42329884Y-55453152D01*
X41758455Y-55119819D02*
X41663217Y-55119819D01*
X41663217Y-55119819D02*
X41567979Y-55167438D01*
X41567979Y-55167438D02*
X41520360Y-55215057D01*
X41520360Y-55215057D02*
X41472741Y-55310295D01*
X41472741Y-55310295D02*
X41425122Y-55500771D01*
X41425122Y-55500771D02*
X41425122Y-55738866D01*
X41425122Y-55738866D02*
X41472741Y-55929342D01*
X41472741Y-55929342D02*
X41520360Y-56024580D01*
X41520360Y-56024580D02*
X41567979Y-56072200D01*
X41567979Y-56072200D02*
X41663217Y-56119819D01*
X41663217Y-56119819D02*
X41758455Y-56119819D01*
X41758455Y-56119819D02*
X41853693Y-56072200D01*
X41853693Y-56072200D02*
X41901312Y-56024580D01*
X41901312Y-56024580D02*
X41948931Y-55929342D01*
X41948931Y-55929342D02*
X41996550Y-55738866D01*
X41996550Y-55738866D02*
X41996550Y-55500771D01*
X41996550Y-55500771D02*
X41948931Y-55310295D01*
X41948931Y-55310295D02*
X41901312Y-55215057D01*
X41901312Y-55215057D02*
X41853693Y-55167438D01*
X41853693Y-55167438D02*
X41758455Y-55119819D01*
X40996550Y-56024580D02*
X40948931Y-56072200D01*
X40948931Y-56072200D02*
X40996550Y-56119819D01*
X40996550Y-56119819D02*
X41044169Y-56072200D01*
X41044169Y-56072200D02*
X40996550Y-56024580D01*
X40996550Y-56024580D02*
X40996550Y-56119819D01*
X39996551Y-56119819D02*
X40567979Y-56119819D01*
X40282265Y-56119819D02*
X40282265Y-55119819D01*
X40282265Y-55119819D02*
X40377503Y-55262676D01*
X40377503Y-55262676D02*
X40472741Y-55357914D01*
X40472741Y-55357914D02*
X40567979Y-55405533D01*
X62615475Y-43654819D02*
X62615475Y-42654819D01*
X62615475Y-42654819D02*
X62377380Y-42654819D01*
X62377380Y-42654819D02*
X62234523Y-42702438D01*
X62234523Y-42702438D02*
X62139285Y-42797676D01*
X62139285Y-42797676D02*
X62091666Y-42892914D01*
X62091666Y-42892914D02*
X62044047Y-43083390D01*
X62044047Y-43083390D02*
X62044047Y-43226247D01*
X62044047Y-43226247D02*
X62091666Y-43416723D01*
X62091666Y-43416723D02*
X62139285Y-43511961D01*
X62139285Y-43511961D02*
X62234523Y-43607200D01*
X62234523Y-43607200D02*
X62377380Y-43654819D01*
X62377380Y-43654819D02*
X62615475Y-43654819D01*
X61091666Y-43654819D02*
X61663094Y-43654819D01*
X61377380Y-43654819D02*
X61377380Y-42654819D01*
X61377380Y-42654819D02*
X61472618Y-42797676D01*
X61472618Y-42797676D02*
X61567856Y-42892914D01*
X61567856Y-42892914D02*
X61663094Y-42940533D01*
X60472618Y-42654819D02*
X60377380Y-42654819D01*
X60377380Y-42654819D02*
X60282142Y-42702438D01*
X60282142Y-42702438D02*
X60234523Y-42750057D01*
X60234523Y-42750057D02*
X60186904Y-42845295D01*
X60186904Y-42845295D02*
X60139285Y-43035771D01*
X60139285Y-43035771D02*
X60139285Y-43273866D01*
X60139285Y-43273866D02*
X60186904Y-43464342D01*
X60186904Y-43464342D02*
X60234523Y-43559580D01*
X60234523Y-43559580D02*
X60282142Y-43607200D01*
X60282142Y-43607200D02*
X60377380Y-43654819D01*
X60377380Y-43654819D02*
X60472618Y-43654819D01*
X60472618Y-43654819D02*
X60567856Y-43607200D01*
X60567856Y-43607200D02*
X60615475Y-43559580D01*
X60615475Y-43559580D02*
X60663094Y-43464342D01*
X60663094Y-43464342D02*
X60710713Y-43273866D01*
X60710713Y-43273866D02*
X60710713Y-43035771D01*
X60710713Y-43035771D02*
X60663094Y-42845295D01*
X60663094Y-42845295D02*
X60615475Y-42750057D01*
X60615475Y-42750057D02*
X60567856Y-42702438D01*
X60567856Y-42702438D02*
X60472618Y-42654819D01*
X59234523Y-42654819D02*
X59710713Y-42654819D01*
X59710713Y-42654819D02*
X59758332Y-43131009D01*
X59758332Y-43131009D02*
X59710713Y-43083390D01*
X59710713Y-43083390D02*
X59615475Y-43035771D01*
X59615475Y-43035771D02*
X59377380Y-43035771D01*
X59377380Y-43035771D02*
X59282142Y-43083390D01*
X59282142Y-43083390D02*
X59234523Y-43131009D01*
X59234523Y-43131009D02*
X59186904Y-43226247D01*
X59186904Y-43226247D02*
X59186904Y-43464342D01*
X59186904Y-43464342D02*
X59234523Y-43559580D01*
X59234523Y-43559580D02*
X59282142Y-43607200D01*
X59282142Y-43607200D02*
X59377380Y-43654819D01*
X59377380Y-43654819D02*
X59615475Y-43654819D01*
X59615475Y-43654819D02*
X59710713Y-43607200D01*
X59710713Y-43607200D02*
X59758332Y-43559580D01*
X63940475Y-71304819D02*
X63940475Y-70304819D01*
X63940475Y-70304819D02*
X63702380Y-70304819D01*
X63702380Y-70304819D02*
X63559523Y-70352438D01*
X63559523Y-70352438D02*
X63464285Y-70447676D01*
X63464285Y-70447676D02*
X63416666Y-70542914D01*
X63416666Y-70542914D02*
X63369047Y-70733390D01*
X63369047Y-70733390D02*
X63369047Y-70876247D01*
X63369047Y-70876247D02*
X63416666Y-71066723D01*
X63416666Y-71066723D02*
X63464285Y-71161961D01*
X63464285Y-71161961D02*
X63559523Y-71257200D01*
X63559523Y-71257200D02*
X63702380Y-71304819D01*
X63702380Y-71304819D02*
X63940475Y-71304819D01*
X62416666Y-71304819D02*
X62988094Y-71304819D01*
X62702380Y-71304819D02*
X62702380Y-70304819D01*
X62702380Y-70304819D02*
X62797618Y-70447676D01*
X62797618Y-70447676D02*
X62892856Y-70542914D01*
X62892856Y-70542914D02*
X62988094Y-70590533D01*
X61797618Y-70304819D02*
X61702380Y-70304819D01*
X61702380Y-70304819D02*
X61607142Y-70352438D01*
X61607142Y-70352438D02*
X61559523Y-70400057D01*
X61559523Y-70400057D02*
X61511904Y-70495295D01*
X61511904Y-70495295D02*
X61464285Y-70685771D01*
X61464285Y-70685771D02*
X61464285Y-70923866D01*
X61464285Y-70923866D02*
X61511904Y-71114342D01*
X61511904Y-71114342D02*
X61559523Y-71209580D01*
X61559523Y-71209580D02*
X61607142Y-71257200D01*
X61607142Y-71257200D02*
X61702380Y-71304819D01*
X61702380Y-71304819D02*
X61797618Y-71304819D01*
X61797618Y-71304819D02*
X61892856Y-71257200D01*
X61892856Y-71257200D02*
X61940475Y-71209580D01*
X61940475Y-71209580D02*
X61988094Y-71114342D01*
X61988094Y-71114342D02*
X62035713Y-70923866D01*
X62035713Y-70923866D02*
X62035713Y-70685771D01*
X62035713Y-70685771D02*
X61988094Y-70495295D01*
X61988094Y-70495295D02*
X61940475Y-70400057D01*
X61940475Y-70400057D02*
X61892856Y-70352438D01*
X61892856Y-70352438D02*
X61797618Y-70304819D01*
X60607142Y-70638152D02*
X60607142Y-71304819D01*
X60845237Y-70257200D02*
X61083332Y-70971485D01*
X61083332Y-70971485D02*
X60464285Y-70971485D01*
X60309524Y-22795180D02*
X60309524Y-23795180D01*
X60309524Y-23795180D02*
X60547619Y-23795180D01*
X60547619Y-23795180D02*
X60690476Y-23747561D01*
X60690476Y-23747561D02*
X60785714Y-23652323D01*
X60785714Y-23652323D02*
X60833333Y-23557085D01*
X60833333Y-23557085D02*
X60880952Y-23366609D01*
X60880952Y-23366609D02*
X60880952Y-23223752D01*
X60880952Y-23223752D02*
X60833333Y-23033276D01*
X60833333Y-23033276D02*
X60785714Y-22938038D01*
X60785714Y-22938038D02*
X60690476Y-22842800D01*
X60690476Y-22842800D02*
X60547619Y-22795180D01*
X60547619Y-22795180D02*
X60309524Y-22795180D01*
X61833333Y-22795180D02*
X61261905Y-22795180D01*
X61547619Y-22795180D02*
X61547619Y-23795180D01*
X61547619Y-23795180D02*
X61452381Y-23652323D01*
X61452381Y-23652323D02*
X61357143Y-23557085D01*
X61357143Y-23557085D02*
X61261905Y-23509466D01*
X62452381Y-23795180D02*
X62547619Y-23795180D01*
X62547619Y-23795180D02*
X62642857Y-23747561D01*
X62642857Y-23747561D02*
X62690476Y-23699942D01*
X62690476Y-23699942D02*
X62738095Y-23604704D01*
X62738095Y-23604704D02*
X62785714Y-23414228D01*
X62785714Y-23414228D02*
X62785714Y-23176133D01*
X62785714Y-23176133D02*
X62738095Y-22985657D01*
X62738095Y-22985657D02*
X62690476Y-22890419D01*
X62690476Y-22890419D02*
X62642857Y-22842800D01*
X62642857Y-22842800D02*
X62547619Y-22795180D01*
X62547619Y-22795180D02*
X62452381Y-22795180D01*
X62452381Y-22795180D02*
X62357143Y-22842800D01*
X62357143Y-22842800D02*
X62309524Y-22890419D01*
X62309524Y-22890419D02*
X62261905Y-22985657D01*
X62261905Y-22985657D02*
X62214286Y-23176133D01*
X62214286Y-23176133D02*
X62214286Y-23414228D01*
X62214286Y-23414228D02*
X62261905Y-23604704D01*
X62261905Y-23604704D02*
X62309524Y-23699942D01*
X62309524Y-23699942D02*
X62357143Y-23747561D01*
X62357143Y-23747561D02*
X62452381Y-23795180D01*
X63166667Y-23699942D02*
X63214286Y-23747561D01*
X63214286Y-23747561D02*
X63309524Y-23795180D01*
X63309524Y-23795180D02*
X63547619Y-23795180D01*
X63547619Y-23795180D02*
X63642857Y-23747561D01*
X63642857Y-23747561D02*
X63690476Y-23699942D01*
X63690476Y-23699942D02*
X63738095Y-23604704D01*
X63738095Y-23604704D02*
X63738095Y-23509466D01*
X63738095Y-23509466D02*
X63690476Y-23366609D01*
X63690476Y-23366609D02*
X63119048Y-22795180D01*
X63119048Y-22795180D02*
X63738095Y-22795180D01*
X59206547Y-26104819D02*
X59539880Y-25628628D01*
X59777975Y-26104819D02*
X59777975Y-25104819D01*
X59777975Y-25104819D02*
X59397023Y-25104819D01*
X59397023Y-25104819D02*
X59301785Y-25152438D01*
X59301785Y-25152438D02*
X59254166Y-25200057D01*
X59254166Y-25200057D02*
X59206547Y-25295295D01*
X59206547Y-25295295D02*
X59206547Y-25438152D01*
X59206547Y-25438152D02*
X59254166Y-25533390D01*
X59254166Y-25533390D02*
X59301785Y-25581009D01*
X59301785Y-25581009D02*
X59397023Y-25628628D01*
X59397023Y-25628628D02*
X59777975Y-25628628D01*
X58254166Y-26104819D02*
X58825594Y-26104819D01*
X58539880Y-26104819D02*
X58539880Y-25104819D01*
X58539880Y-25104819D02*
X58635118Y-25247676D01*
X58635118Y-25247676D02*
X58730356Y-25342914D01*
X58730356Y-25342914D02*
X58825594Y-25390533D01*
X57635118Y-25104819D02*
X57539880Y-25104819D01*
X57539880Y-25104819D02*
X57444642Y-25152438D01*
X57444642Y-25152438D02*
X57397023Y-25200057D01*
X57397023Y-25200057D02*
X57349404Y-25295295D01*
X57349404Y-25295295D02*
X57301785Y-25485771D01*
X57301785Y-25485771D02*
X57301785Y-25723866D01*
X57301785Y-25723866D02*
X57349404Y-25914342D01*
X57349404Y-25914342D02*
X57397023Y-26009580D01*
X57397023Y-26009580D02*
X57444642Y-26057200D01*
X57444642Y-26057200D02*
X57539880Y-26104819D01*
X57539880Y-26104819D02*
X57635118Y-26104819D01*
X57635118Y-26104819D02*
X57730356Y-26057200D01*
X57730356Y-26057200D02*
X57777975Y-26009580D01*
X57777975Y-26009580D02*
X57825594Y-25914342D01*
X57825594Y-25914342D02*
X57873213Y-25723866D01*
X57873213Y-25723866D02*
X57873213Y-25485771D01*
X57873213Y-25485771D02*
X57825594Y-25295295D01*
X57825594Y-25295295D02*
X57777975Y-25200057D01*
X57777975Y-25200057D02*
X57730356Y-25152438D01*
X57730356Y-25152438D02*
X57635118Y-25104819D01*
X56920832Y-25200057D02*
X56873213Y-25152438D01*
X56873213Y-25152438D02*
X56777975Y-25104819D01*
X56777975Y-25104819D02*
X56539880Y-25104819D01*
X56539880Y-25104819D02*
X56444642Y-25152438D01*
X56444642Y-25152438D02*
X56397023Y-25200057D01*
X56397023Y-25200057D02*
X56349404Y-25295295D01*
X56349404Y-25295295D02*
X56349404Y-25390533D01*
X56349404Y-25390533D02*
X56397023Y-25533390D01*
X56397023Y-25533390D02*
X56968451Y-26104819D01*
X56968451Y-26104819D02*
X56349404Y-26104819D01*
X37045180Y-49690475D02*
X38045180Y-49690475D01*
X38045180Y-49690475D02*
X38045180Y-49452380D01*
X38045180Y-49452380D02*
X37997561Y-49309523D01*
X37997561Y-49309523D02*
X37902323Y-49214285D01*
X37902323Y-49214285D02*
X37807085Y-49166666D01*
X37807085Y-49166666D02*
X37616609Y-49119047D01*
X37616609Y-49119047D02*
X37473752Y-49119047D01*
X37473752Y-49119047D02*
X37283276Y-49166666D01*
X37283276Y-49166666D02*
X37188038Y-49214285D01*
X37188038Y-49214285D02*
X37092800Y-49309523D01*
X37092800Y-49309523D02*
X37045180Y-49452380D01*
X37045180Y-49452380D02*
X37045180Y-49690475D01*
X37045180Y-48166666D02*
X37045180Y-48738094D01*
X37045180Y-48452380D02*
X38045180Y-48452380D01*
X38045180Y-48452380D02*
X37902323Y-48547618D01*
X37902323Y-48547618D02*
X37807085Y-48642856D01*
X37807085Y-48642856D02*
X37759466Y-48738094D01*
X38045180Y-47547618D02*
X38045180Y-47452380D01*
X38045180Y-47452380D02*
X37997561Y-47357142D01*
X37997561Y-47357142D02*
X37949942Y-47309523D01*
X37949942Y-47309523D02*
X37854704Y-47261904D01*
X37854704Y-47261904D02*
X37664228Y-47214285D01*
X37664228Y-47214285D02*
X37426133Y-47214285D01*
X37426133Y-47214285D02*
X37235657Y-47261904D01*
X37235657Y-47261904D02*
X37140419Y-47309523D01*
X37140419Y-47309523D02*
X37092800Y-47357142D01*
X37092800Y-47357142D02*
X37045180Y-47452380D01*
X37045180Y-47452380D02*
X37045180Y-47547618D01*
X37045180Y-47547618D02*
X37092800Y-47642856D01*
X37092800Y-47642856D02*
X37140419Y-47690475D01*
X37140419Y-47690475D02*
X37235657Y-47738094D01*
X37235657Y-47738094D02*
X37426133Y-47785713D01*
X37426133Y-47785713D02*
X37664228Y-47785713D01*
X37664228Y-47785713D02*
X37854704Y-47738094D01*
X37854704Y-47738094D02*
X37949942Y-47690475D01*
X37949942Y-47690475D02*
X37997561Y-47642856D01*
X37997561Y-47642856D02*
X38045180Y-47547618D01*
X37045180Y-46261904D02*
X37045180Y-46833332D01*
X37045180Y-46547618D02*
X38045180Y-46547618D01*
X38045180Y-46547618D02*
X37902323Y-46642856D01*
X37902323Y-46642856D02*
X37807085Y-46738094D01*
X37807085Y-46738094D02*
X37759466Y-46833332D01*
X83304819Y-43380952D02*
X82828628Y-43047619D01*
X83304819Y-42809524D02*
X82304819Y-42809524D01*
X82304819Y-42809524D02*
X82304819Y-43190476D01*
X82304819Y-43190476D02*
X82352438Y-43285714D01*
X82352438Y-43285714D02*
X82400057Y-43333333D01*
X82400057Y-43333333D02*
X82495295Y-43380952D01*
X82495295Y-43380952D02*
X82638152Y-43380952D01*
X82638152Y-43380952D02*
X82733390Y-43333333D01*
X82733390Y-43333333D02*
X82781009Y-43285714D01*
X82781009Y-43285714D02*
X82828628Y-43190476D01*
X82828628Y-43190476D02*
X82828628Y-42809524D01*
X83304819Y-44333333D02*
X83304819Y-43761905D01*
X83304819Y-44047619D02*
X82304819Y-44047619D01*
X82304819Y-44047619D02*
X82447676Y-43952381D01*
X82447676Y-43952381D02*
X82542914Y-43857143D01*
X82542914Y-43857143D02*
X82590533Y-43761905D01*
X82304819Y-44952381D02*
X82304819Y-45047619D01*
X82304819Y-45047619D02*
X82352438Y-45142857D01*
X82352438Y-45142857D02*
X82400057Y-45190476D01*
X82400057Y-45190476D02*
X82495295Y-45238095D01*
X82495295Y-45238095D02*
X82685771Y-45285714D01*
X82685771Y-45285714D02*
X82923866Y-45285714D01*
X82923866Y-45285714D02*
X83114342Y-45238095D01*
X83114342Y-45238095D02*
X83209580Y-45190476D01*
X83209580Y-45190476D02*
X83257200Y-45142857D01*
X83257200Y-45142857D02*
X83304819Y-45047619D01*
X83304819Y-45047619D02*
X83304819Y-44952381D01*
X83304819Y-44952381D02*
X83257200Y-44857143D01*
X83257200Y-44857143D02*
X83209580Y-44809524D01*
X83209580Y-44809524D02*
X83114342Y-44761905D01*
X83114342Y-44761905D02*
X82923866Y-44714286D01*
X82923866Y-44714286D02*
X82685771Y-44714286D01*
X82685771Y-44714286D02*
X82495295Y-44761905D01*
X82495295Y-44761905D02*
X82400057Y-44809524D01*
X82400057Y-44809524D02*
X82352438Y-44857143D01*
X82352438Y-44857143D02*
X82304819Y-44952381D01*
X82304819Y-45619048D02*
X82304819Y-46238095D01*
X82304819Y-46238095D02*
X82685771Y-45904762D01*
X82685771Y-45904762D02*
X82685771Y-46047619D01*
X82685771Y-46047619D02*
X82733390Y-46142857D01*
X82733390Y-46142857D02*
X82781009Y-46190476D01*
X82781009Y-46190476D02*
X82876247Y-46238095D01*
X82876247Y-46238095D02*
X83114342Y-46238095D01*
X83114342Y-46238095D02*
X83209580Y-46190476D01*
X83209580Y-46190476D02*
X83257200Y-46142857D01*
X83257200Y-46142857D02*
X83304819Y-46047619D01*
X83304819Y-46047619D02*
X83304819Y-45761905D01*
X83304819Y-45761905D02*
X83257200Y-45666667D01*
X83257200Y-45666667D02*
X83209580Y-45619048D01*
X66119047Y-44804819D02*
X66452380Y-44328628D01*
X66690475Y-44804819D02*
X66690475Y-43804819D01*
X66690475Y-43804819D02*
X66309523Y-43804819D01*
X66309523Y-43804819D02*
X66214285Y-43852438D01*
X66214285Y-43852438D02*
X66166666Y-43900057D01*
X66166666Y-43900057D02*
X66119047Y-43995295D01*
X66119047Y-43995295D02*
X66119047Y-44138152D01*
X66119047Y-44138152D02*
X66166666Y-44233390D01*
X66166666Y-44233390D02*
X66214285Y-44281009D01*
X66214285Y-44281009D02*
X66309523Y-44328628D01*
X66309523Y-44328628D02*
X66690475Y-44328628D01*
X65166666Y-44804819D02*
X65738094Y-44804819D01*
X65452380Y-44804819D02*
X65452380Y-43804819D01*
X65452380Y-43804819D02*
X65547618Y-43947676D01*
X65547618Y-43947676D02*
X65642856Y-44042914D01*
X65642856Y-44042914D02*
X65738094Y-44090533D01*
X64547618Y-43804819D02*
X64452380Y-43804819D01*
X64452380Y-43804819D02*
X64357142Y-43852438D01*
X64357142Y-43852438D02*
X64309523Y-43900057D01*
X64309523Y-43900057D02*
X64261904Y-43995295D01*
X64261904Y-43995295D02*
X64214285Y-44185771D01*
X64214285Y-44185771D02*
X64214285Y-44423866D01*
X64214285Y-44423866D02*
X64261904Y-44614342D01*
X64261904Y-44614342D02*
X64309523Y-44709580D01*
X64309523Y-44709580D02*
X64357142Y-44757200D01*
X64357142Y-44757200D02*
X64452380Y-44804819D01*
X64452380Y-44804819D02*
X64547618Y-44804819D01*
X64547618Y-44804819D02*
X64642856Y-44757200D01*
X64642856Y-44757200D02*
X64690475Y-44709580D01*
X64690475Y-44709580D02*
X64738094Y-44614342D01*
X64738094Y-44614342D02*
X64785713Y-44423866D01*
X64785713Y-44423866D02*
X64785713Y-44185771D01*
X64785713Y-44185771D02*
X64738094Y-43995295D01*
X64738094Y-43995295D02*
X64690475Y-43900057D01*
X64690475Y-43900057D02*
X64642856Y-43852438D01*
X64642856Y-43852438D02*
X64547618Y-43804819D01*
X63309523Y-43804819D02*
X63785713Y-43804819D01*
X63785713Y-43804819D02*
X63833332Y-44281009D01*
X63833332Y-44281009D02*
X63785713Y-44233390D01*
X63785713Y-44233390D02*
X63690475Y-44185771D01*
X63690475Y-44185771D02*
X63452380Y-44185771D01*
X63452380Y-44185771D02*
X63357142Y-44233390D01*
X63357142Y-44233390D02*
X63309523Y-44281009D01*
X63309523Y-44281009D02*
X63261904Y-44376247D01*
X63261904Y-44376247D02*
X63261904Y-44614342D01*
X63261904Y-44614342D02*
X63309523Y-44709580D01*
X63309523Y-44709580D02*
X63357142Y-44757200D01*
X63357142Y-44757200D02*
X63452380Y-44804819D01*
X63452380Y-44804819D02*
X63690475Y-44804819D01*
X63690475Y-44804819D02*
X63785713Y-44757200D01*
X63785713Y-44757200D02*
X63833332Y-44709580D01*
X85954819Y-46309524D02*
X84954819Y-46309524D01*
X84954819Y-46309524D02*
X84954819Y-46547619D01*
X84954819Y-46547619D02*
X85002438Y-46690476D01*
X85002438Y-46690476D02*
X85097676Y-46785714D01*
X85097676Y-46785714D02*
X85192914Y-46833333D01*
X85192914Y-46833333D02*
X85383390Y-46880952D01*
X85383390Y-46880952D02*
X85526247Y-46880952D01*
X85526247Y-46880952D02*
X85716723Y-46833333D01*
X85716723Y-46833333D02*
X85811961Y-46785714D01*
X85811961Y-46785714D02*
X85907200Y-46690476D01*
X85907200Y-46690476D02*
X85954819Y-46547619D01*
X85954819Y-46547619D02*
X85954819Y-46309524D01*
X85954819Y-47833333D02*
X85954819Y-47261905D01*
X85954819Y-47547619D02*
X84954819Y-47547619D01*
X84954819Y-47547619D02*
X85097676Y-47452381D01*
X85097676Y-47452381D02*
X85192914Y-47357143D01*
X85192914Y-47357143D02*
X85240533Y-47261905D01*
X84954819Y-48452381D02*
X84954819Y-48547619D01*
X84954819Y-48547619D02*
X85002438Y-48642857D01*
X85002438Y-48642857D02*
X85050057Y-48690476D01*
X85050057Y-48690476D02*
X85145295Y-48738095D01*
X85145295Y-48738095D02*
X85335771Y-48785714D01*
X85335771Y-48785714D02*
X85573866Y-48785714D01*
X85573866Y-48785714D02*
X85764342Y-48738095D01*
X85764342Y-48738095D02*
X85859580Y-48690476D01*
X85859580Y-48690476D02*
X85907200Y-48642857D01*
X85907200Y-48642857D02*
X85954819Y-48547619D01*
X85954819Y-48547619D02*
X85954819Y-48452381D01*
X85954819Y-48452381D02*
X85907200Y-48357143D01*
X85907200Y-48357143D02*
X85859580Y-48309524D01*
X85859580Y-48309524D02*
X85764342Y-48261905D01*
X85764342Y-48261905D02*
X85573866Y-48214286D01*
X85573866Y-48214286D02*
X85335771Y-48214286D01*
X85335771Y-48214286D02*
X85145295Y-48261905D01*
X85145295Y-48261905D02*
X85050057Y-48309524D01*
X85050057Y-48309524D02*
X85002438Y-48357143D01*
X85002438Y-48357143D02*
X84954819Y-48452381D01*
X84954819Y-49119048D02*
X84954819Y-49738095D01*
X84954819Y-49738095D02*
X85335771Y-49404762D01*
X85335771Y-49404762D02*
X85335771Y-49547619D01*
X85335771Y-49547619D02*
X85383390Y-49642857D01*
X85383390Y-49642857D02*
X85431009Y-49690476D01*
X85431009Y-49690476D02*
X85526247Y-49738095D01*
X85526247Y-49738095D02*
X85764342Y-49738095D01*
X85764342Y-49738095D02*
X85859580Y-49690476D01*
X85859580Y-49690476D02*
X85907200Y-49642857D01*
X85907200Y-49642857D02*
X85954819Y-49547619D01*
X85954819Y-49547619D02*
X85954819Y-49261905D01*
X85954819Y-49261905D02*
X85907200Y-49166667D01*
X85907200Y-49166667D02*
X85859580Y-49119048D01*
X53024819Y-64484285D02*
X53739104Y-64484285D01*
X53739104Y-64484285D02*
X53881961Y-64436666D01*
X53881961Y-64436666D02*
X53977200Y-64341428D01*
X53977200Y-64341428D02*
X54024819Y-64198571D01*
X54024819Y-64198571D02*
X54024819Y-64103333D01*
X54024819Y-65484285D02*
X54024819Y-64912857D01*
X54024819Y-65198571D02*
X53024819Y-65198571D01*
X53024819Y-65198571D02*
X53167676Y-65103333D01*
X53167676Y-65103333D02*
X53262914Y-65008095D01*
X53262914Y-65008095D02*
X53310533Y-64912857D01*
X53024819Y-66103333D02*
X53024819Y-66198571D01*
X53024819Y-66198571D02*
X53072438Y-66293809D01*
X53072438Y-66293809D02*
X53120057Y-66341428D01*
X53120057Y-66341428D02*
X53215295Y-66389047D01*
X53215295Y-66389047D02*
X53405771Y-66436666D01*
X53405771Y-66436666D02*
X53643866Y-66436666D01*
X53643866Y-66436666D02*
X53834342Y-66389047D01*
X53834342Y-66389047D02*
X53929580Y-66341428D01*
X53929580Y-66341428D02*
X53977200Y-66293809D01*
X53977200Y-66293809D02*
X54024819Y-66198571D01*
X54024819Y-66198571D02*
X54024819Y-66103333D01*
X54024819Y-66103333D02*
X53977200Y-66008095D01*
X53977200Y-66008095D02*
X53929580Y-65960476D01*
X53929580Y-65960476D02*
X53834342Y-65912857D01*
X53834342Y-65912857D02*
X53643866Y-65865238D01*
X53643866Y-65865238D02*
X53405771Y-65865238D01*
X53405771Y-65865238D02*
X53215295Y-65912857D01*
X53215295Y-65912857D02*
X53120057Y-65960476D01*
X53120057Y-65960476D02*
X53072438Y-66008095D01*
X53072438Y-66008095D02*
X53024819Y-66103333D01*
X54024819Y-67389047D02*
X54024819Y-66817619D01*
X54024819Y-67103333D02*
X53024819Y-67103333D01*
X53024819Y-67103333D02*
X53167676Y-67008095D01*
X53167676Y-67008095D02*
X53262914Y-66912857D01*
X53262914Y-66912857D02*
X53310533Y-66817619D01*
X40104819Y-50880952D02*
X39628628Y-50547619D01*
X40104819Y-50309524D02*
X39104819Y-50309524D01*
X39104819Y-50309524D02*
X39104819Y-50690476D01*
X39104819Y-50690476D02*
X39152438Y-50785714D01*
X39152438Y-50785714D02*
X39200057Y-50833333D01*
X39200057Y-50833333D02*
X39295295Y-50880952D01*
X39295295Y-50880952D02*
X39438152Y-50880952D01*
X39438152Y-50880952D02*
X39533390Y-50833333D01*
X39533390Y-50833333D02*
X39581009Y-50785714D01*
X39581009Y-50785714D02*
X39628628Y-50690476D01*
X39628628Y-50690476D02*
X39628628Y-50309524D01*
X40104819Y-51833333D02*
X40104819Y-51261905D01*
X40104819Y-51547619D02*
X39104819Y-51547619D01*
X39104819Y-51547619D02*
X39247676Y-51452381D01*
X39247676Y-51452381D02*
X39342914Y-51357143D01*
X39342914Y-51357143D02*
X39390533Y-51261905D01*
X39104819Y-52452381D02*
X39104819Y-52547619D01*
X39104819Y-52547619D02*
X39152438Y-52642857D01*
X39152438Y-52642857D02*
X39200057Y-52690476D01*
X39200057Y-52690476D02*
X39295295Y-52738095D01*
X39295295Y-52738095D02*
X39485771Y-52785714D01*
X39485771Y-52785714D02*
X39723866Y-52785714D01*
X39723866Y-52785714D02*
X39914342Y-52738095D01*
X39914342Y-52738095D02*
X40009580Y-52690476D01*
X40009580Y-52690476D02*
X40057200Y-52642857D01*
X40057200Y-52642857D02*
X40104819Y-52547619D01*
X40104819Y-52547619D02*
X40104819Y-52452381D01*
X40104819Y-52452381D02*
X40057200Y-52357143D01*
X40057200Y-52357143D02*
X40009580Y-52309524D01*
X40009580Y-52309524D02*
X39914342Y-52261905D01*
X39914342Y-52261905D02*
X39723866Y-52214286D01*
X39723866Y-52214286D02*
X39485771Y-52214286D01*
X39485771Y-52214286D02*
X39295295Y-52261905D01*
X39295295Y-52261905D02*
X39200057Y-52309524D01*
X39200057Y-52309524D02*
X39152438Y-52357143D01*
X39152438Y-52357143D02*
X39104819Y-52452381D01*
X40104819Y-53738095D02*
X40104819Y-53166667D01*
X40104819Y-53452381D02*
X39104819Y-53452381D01*
X39104819Y-53452381D02*
X39247676Y-53357143D01*
X39247676Y-53357143D02*
X39342914Y-53261905D01*
X39342914Y-53261905D02*
X39390533Y-53166667D01*
X68119047Y-70804819D02*
X68452380Y-70328628D01*
X68690475Y-70804819D02*
X68690475Y-69804819D01*
X68690475Y-69804819D02*
X68309523Y-69804819D01*
X68309523Y-69804819D02*
X68214285Y-69852438D01*
X68214285Y-69852438D02*
X68166666Y-69900057D01*
X68166666Y-69900057D02*
X68119047Y-69995295D01*
X68119047Y-69995295D02*
X68119047Y-70138152D01*
X68119047Y-70138152D02*
X68166666Y-70233390D01*
X68166666Y-70233390D02*
X68214285Y-70281009D01*
X68214285Y-70281009D02*
X68309523Y-70328628D01*
X68309523Y-70328628D02*
X68690475Y-70328628D01*
X67166666Y-70804819D02*
X67738094Y-70804819D01*
X67452380Y-70804819D02*
X67452380Y-69804819D01*
X67452380Y-69804819D02*
X67547618Y-69947676D01*
X67547618Y-69947676D02*
X67642856Y-70042914D01*
X67642856Y-70042914D02*
X67738094Y-70090533D01*
X66547618Y-69804819D02*
X66452380Y-69804819D01*
X66452380Y-69804819D02*
X66357142Y-69852438D01*
X66357142Y-69852438D02*
X66309523Y-69900057D01*
X66309523Y-69900057D02*
X66261904Y-69995295D01*
X66261904Y-69995295D02*
X66214285Y-70185771D01*
X66214285Y-70185771D02*
X66214285Y-70423866D01*
X66214285Y-70423866D02*
X66261904Y-70614342D01*
X66261904Y-70614342D02*
X66309523Y-70709580D01*
X66309523Y-70709580D02*
X66357142Y-70757200D01*
X66357142Y-70757200D02*
X66452380Y-70804819D01*
X66452380Y-70804819D02*
X66547618Y-70804819D01*
X66547618Y-70804819D02*
X66642856Y-70757200D01*
X66642856Y-70757200D02*
X66690475Y-70709580D01*
X66690475Y-70709580D02*
X66738094Y-70614342D01*
X66738094Y-70614342D02*
X66785713Y-70423866D01*
X66785713Y-70423866D02*
X66785713Y-70185771D01*
X66785713Y-70185771D02*
X66738094Y-69995295D01*
X66738094Y-69995295D02*
X66690475Y-69900057D01*
X66690475Y-69900057D02*
X66642856Y-69852438D01*
X66642856Y-69852438D02*
X66547618Y-69804819D01*
X65357142Y-70138152D02*
X65357142Y-70804819D01*
X65595237Y-69757200D02*
X65833332Y-70471485D01*
X65833332Y-70471485D02*
X65214285Y-70471485D01*
D11*
%TO.C,G\u002A\u002A\u002A*%
X80745077Y-54636625D02*
X80651277Y-55202590D01*
X80409697Y-55701144D01*
X80028188Y-56116403D01*
X79514596Y-56432483D01*
X79502904Y-56437746D01*
X79375819Y-56489233D01*
X79238018Y-56529005D01*
X79066842Y-56558584D01*
X78839631Y-56579491D01*
X78533727Y-56593245D01*
X78126469Y-56601369D01*
X77595200Y-56605383D01*
X76917261Y-56606807D01*
X74700925Y-56608667D01*
X74176765Y-57243667D01*
X74877181Y-57268707D01*
X75577596Y-57293746D01*
X73799596Y-58466410D01*
X73395875Y-58731492D01*
X72948521Y-59022182D01*
X72565371Y-59267785D01*
X72265619Y-59456125D01*
X72068462Y-59575026D01*
X71993094Y-59612312D01*
X72027317Y-59542435D01*
X72145857Y-59364629D01*
X72330060Y-59106555D01*
X72560880Y-58795609D01*
X73157168Y-58005667D01*
X72737549Y-57980076D01*
X72588540Y-57968100D01*
X72394059Y-57940286D01*
X72317930Y-57910395D01*
X72330164Y-57884854D01*
X72422140Y-57749903D01*
X72584553Y-57530443D01*
X72793904Y-57258653D01*
X73269879Y-56651000D01*
X72681865Y-56604313D01*
X72591897Y-56595686D01*
X72460137Y-56564409D01*
X73384804Y-56564409D01*
X73461472Y-56593901D01*
X73652686Y-56606201D01*
X73985831Y-56608667D01*
X74663976Y-56608667D01*
X75457611Y-55592667D01*
X75606438Y-55403172D01*
X75867281Y-55076420D01*
X76081728Y-54814781D01*
X76230775Y-54641248D01*
X76295421Y-54578817D01*
X76303542Y-54581699D01*
X76408953Y-54653743D01*
X76601324Y-54802757D01*
X76846068Y-55002150D01*
X76902512Y-55048824D01*
X77140171Y-55239209D01*
X77319153Y-55372883D01*
X77404315Y-55423334D01*
X77406159Y-55423095D01*
X77487973Y-55354841D01*
X77648923Y-55184998D01*
X77863604Y-54942244D01*
X78106614Y-54655262D01*
X78352551Y-54352732D01*
X78502838Y-54163566D01*
X77183757Y-53151442D01*
X75864676Y-52139319D01*
X74937970Y-52445478D01*
X74593925Y-52562702D01*
X74291469Y-52673201D01*
X74086626Y-52756778D01*
X74011263Y-52801200D01*
X74038749Y-52835369D01*
X74175963Y-52954656D01*
X74402350Y-53133769D01*
X74688596Y-53349000D01*
X74877843Y-53491048D01*
X75129362Y-53690437D01*
X75301878Y-53841109D01*
X75365930Y-53918304D01*
X75359465Y-53933337D01*
X75277996Y-54056127D01*
X75118329Y-54277758D01*
X74899785Y-54572798D01*
X74641690Y-54915817D01*
X74363366Y-55281383D01*
X74084138Y-55644065D01*
X73823328Y-55978433D01*
X73600261Y-56259055D01*
X73434259Y-56460500D01*
X73395298Y-56510370D01*
X73384804Y-56564409D01*
X72460137Y-56564409D01*
X71982594Y-56451050D01*
X71456574Y-56170759D01*
X71032210Y-55767510D01*
X70727875Y-55254000D01*
X70703101Y-55189635D01*
X70615530Y-54769536D01*
X70606366Y-54285057D01*
X70672443Y-53806937D01*
X70810595Y-53405916D01*
X70892145Y-53263658D01*
X71245961Y-52858715D01*
X71716308Y-52552902D01*
X72279187Y-52358976D01*
X72910596Y-52289694D01*
X73376263Y-52287777D01*
X73576378Y-51825476D01*
X73717268Y-51559710D01*
X74039286Y-51139859D01*
X74431271Y-50781609D01*
X74841876Y-50537229D01*
X75020909Y-50482286D01*
X75352298Y-50426258D01*
X75706572Y-50404234D01*
X75751632Y-50404456D01*
X76359586Y-50481201D01*
X76886228Y-50701199D01*
X77351763Y-51072660D01*
X77431628Y-51161937D01*
X77624052Y-51423464D01*
X77819216Y-51737294D01*
X77990991Y-52056516D01*
X78113249Y-52334222D01*
X78159863Y-52523500D01*
X78166767Y-52548732D01*
X78295640Y-52609221D01*
X78588104Y-52629334D01*
X78872369Y-52638384D01*
X79384530Y-52723013D01*
X79811365Y-52909737D01*
X80196794Y-53214535D01*
X80229643Y-53246757D01*
X80464262Y-53507973D01*
X80604056Y-53753111D01*
X80690490Y-54052560D01*
X80700865Y-54163566D01*
X80745077Y-54636625D01*
G36*
X80745077Y-54636625D02*
G01*
X80651277Y-55202590D01*
X80409697Y-55701144D01*
X80028188Y-56116403D01*
X79514596Y-56432483D01*
X79502904Y-56437746D01*
X79375819Y-56489233D01*
X79238018Y-56529005D01*
X79066842Y-56558584D01*
X78839631Y-56579491D01*
X78533727Y-56593245D01*
X78126469Y-56601369D01*
X77595200Y-56605383D01*
X76917261Y-56606807D01*
X74700925Y-56608667D01*
X74176765Y-57243667D01*
X74877181Y-57268707D01*
X75577596Y-57293746D01*
X73799596Y-58466410D01*
X73395875Y-58731492D01*
X72948521Y-59022182D01*
X72565371Y-59267785D01*
X72265619Y-59456125D01*
X72068462Y-59575026D01*
X71993094Y-59612312D01*
X72027317Y-59542435D01*
X72145857Y-59364629D01*
X72330060Y-59106555D01*
X72560880Y-58795609D01*
X73157168Y-58005667D01*
X72737549Y-57980076D01*
X72588540Y-57968100D01*
X72394059Y-57940286D01*
X72317930Y-57910395D01*
X72330164Y-57884854D01*
X72422140Y-57749903D01*
X72584553Y-57530443D01*
X72793904Y-57258653D01*
X73269879Y-56651000D01*
X72681865Y-56604313D01*
X72591897Y-56595686D01*
X72460137Y-56564409D01*
X73384804Y-56564409D01*
X73461472Y-56593901D01*
X73652686Y-56606201D01*
X73985831Y-56608667D01*
X74663976Y-56608667D01*
X75457611Y-55592667D01*
X75606438Y-55403172D01*
X75867281Y-55076420D01*
X76081728Y-54814781D01*
X76230775Y-54641248D01*
X76295421Y-54578817D01*
X76303542Y-54581699D01*
X76408953Y-54653743D01*
X76601324Y-54802757D01*
X76846068Y-55002150D01*
X76902512Y-55048824D01*
X77140171Y-55239209D01*
X77319153Y-55372883D01*
X77404315Y-55423334D01*
X77406159Y-55423095D01*
X77487973Y-55354841D01*
X77648923Y-55184998D01*
X77863604Y-54942244D01*
X78106614Y-54655262D01*
X78352551Y-54352732D01*
X78502838Y-54163566D01*
X77183757Y-53151442D01*
X75864676Y-52139319D01*
X74937970Y-52445478D01*
X74593925Y-52562702D01*
X74291469Y-52673201D01*
X74086626Y-52756778D01*
X74011263Y-52801200D01*
X74038749Y-52835369D01*
X74175963Y-52954656D01*
X74402350Y-53133769D01*
X74688596Y-53349000D01*
X74877843Y-53491048D01*
X75129362Y-53690437D01*
X75301878Y-53841109D01*
X75365930Y-53918304D01*
X75359465Y-53933337D01*
X75277996Y-54056127D01*
X75118329Y-54277758D01*
X74899785Y-54572798D01*
X74641690Y-54915817D01*
X74363366Y-55281383D01*
X74084138Y-55644065D01*
X73823328Y-55978433D01*
X73600261Y-56259055D01*
X73434259Y-56460500D01*
X73395298Y-56510370D01*
X73384804Y-56564409D01*
X72460137Y-56564409D01*
X71982594Y-56451050D01*
X71456574Y-56170759D01*
X71032210Y-55767510D01*
X70727875Y-55254000D01*
X70703101Y-55189635D01*
X70615530Y-54769536D01*
X70606366Y-54285057D01*
X70672443Y-53806937D01*
X70810595Y-53405916D01*
X70892145Y-53263658D01*
X71245961Y-52858715D01*
X71716308Y-52552902D01*
X72279187Y-52358976D01*
X72910596Y-52289694D01*
X73376263Y-52287777D01*
X73576378Y-51825476D01*
X73717268Y-51559710D01*
X74039286Y-51139859D01*
X74431271Y-50781609D01*
X74841876Y-50537229D01*
X75020909Y-50482286D01*
X75352298Y-50426258D01*
X75706572Y-50404234D01*
X75751632Y-50404456D01*
X76359586Y-50481201D01*
X76886228Y-50701199D01*
X77351763Y-51072660D01*
X77431628Y-51161937D01*
X77624052Y-51423464D01*
X77819216Y-51737294D01*
X77990991Y-52056516D01*
X78113249Y-52334222D01*
X78159863Y-52523500D01*
X78166767Y-52548732D01*
X78295640Y-52609221D01*
X78588104Y-52629334D01*
X78872369Y-52638384D01*
X79384530Y-52723013D01*
X79811365Y-52909737D01*
X80196794Y-53214535D01*
X80229643Y-53246757D01*
X80464262Y-53507973D01*
X80604056Y-53753111D01*
X80690490Y-54052560D01*
X80700865Y-54163566D01*
X80745077Y-54636625D01*
G37*
D12*
%TO.C,D105*%
X59525000Y-44000000D02*
X59725000Y-43800000D01*
%TO.C,D104*%
X60550000Y-72700000D02*
X60850000Y-73300000D01*
X60850000Y-73300000D02*
X61650000Y-73300000D01*
X61350000Y-71700000D02*
X63150000Y-71700000D01*
X61650000Y-73300000D02*
X61850000Y-73000000D01*
X61850000Y-73000000D02*
X62650000Y-73000000D01*
X62650000Y-73000000D02*
X62850000Y-73300000D01*
X62850000Y-73300000D02*
X63650000Y-73300000D01*
X63650000Y-73300000D02*
X63950000Y-72700000D01*
%TO.C,D102*%
X60600000Y-20550000D02*
X60300000Y-21150000D01*
X61400000Y-20550000D02*
X60600000Y-20550000D01*
X61600000Y-20850000D02*
X61400000Y-20550000D01*
X62400000Y-20850000D02*
X61600000Y-20850000D01*
X62600000Y-20550000D02*
X62400000Y-20850000D01*
X62900000Y-22150000D02*
X61100000Y-22150000D01*
X63400000Y-20550000D02*
X62600000Y-20550000D01*
X63700000Y-21150000D02*
X63400000Y-20550000D01*
%TO.C,R102*%
X58314564Y-23265000D02*
X57860436Y-23265000D01*
X58314564Y-24735000D02*
X57860436Y-24735000D01*
%TO.C,D101*%
X34800000Y-46600000D02*
X34800000Y-47400000D01*
X34800000Y-47400000D02*
X35100000Y-47600000D01*
X34800000Y-48600000D02*
X34800000Y-49400000D01*
X34800000Y-49400000D02*
X35400000Y-49700000D01*
X35100000Y-47600000D02*
X35100000Y-48400000D01*
X35100000Y-48400000D02*
X34800000Y-48600000D01*
X35400000Y-46300000D02*
X34800000Y-46600000D01*
X36400000Y-47100000D02*
X36400000Y-48900000D01*
%TO.C,R103*%
X83765000Y-44727064D02*
X83765000Y-44272936D01*
X85235000Y-44727064D02*
X85235000Y-44272936D01*
%TO.C,R105*%
X64772936Y-45265000D02*
X65227064Y-45265000D01*
X64772936Y-46735000D02*
X65227064Y-46735000D01*
%TO.C,D103*%
X86600000Y-48900000D02*
X86600000Y-47100000D01*
X87600000Y-49700000D02*
X88200000Y-49400000D01*
X87900000Y-47600000D02*
X88200000Y-47400000D01*
X87900000Y-48400000D02*
X87900000Y-47600000D01*
X88200000Y-46600000D02*
X87600000Y-46300000D01*
X88200000Y-47400000D02*
X88200000Y-46600000D01*
X88200000Y-48600000D02*
X87900000Y-48400000D01*
X88200000Y-49400000D02*
X88200000Y-48600000D01*
%TO.C,J101*%
X54460000Y-61210000D02*
X69960000Y-61210000D01*
X54460000Y-70330000D02*
X54460000Y-61210000D01*
X55760000Y-62520000D02*
X60160000Y-62520000D01*
X55760000Y-69020000D02*
X55760000Y-62520000D01*
X59170000Y-59820000D02*
X59670000Y-60820000D01*
X59670000Y-60820000D02*
X60170000Y-59820000D01*
X60160000Y-62520000D02*
X60160000Y-61210000D01*
X60170000Y-59820000D02*
X59170000Y-59820000D01*
X64260000Y-61210000D02*
X64260000Y-62520000D01*
X64260000Y-62520000D02*
X64260000Y-62520000D01*
X64260000Y-62520000D02*
X68660000Y-62520000D01*
X68660000Y-62520000D02*
X68660000Y-69020000D01*
X68660000Y-69020000D02*
X55760000Y-69020000D01*
X69960000Y-61210000D02*
X69960000Y-70330000D01*
X69960000Y-70330000D02*
X54460000Y-70330000D01*
%TO.C,R101*%
X37265000Y-51772936D02*
X37265000Y-52227064D01*
X38735000Y-51772936D02*
X38735000Y-52227064D01*
%TO.C,R104*%
X66772936Y-71265000D02*
X67227064Y-71265000D01*
X66772936Y-72735000D02*
X67227064Y-72735000D01*
%TD*%
M02*
