%TF.GenerationSoftware,KiCad,Pcbnew,8.0.5-8.0.5-0~ubuntu22.04.1*%
%TF.CreationDate,2024-10-15T22:57:18-04:00*%
%TF.ProjectId,eclipse_sao_v1,65636c69-7073-4655-9f73-616f5f76312e,rev?*%
%TF.SameCoordinates,Original*%
%TF.FileFunction,Copper,L2,Bot*%
%TF.FilePolarity,Positive*%
%FSLAX46Y46*%
G04 Gerber Fmt 4.6, Leading zero omitted, Abs format (unit mm)*
G04 Created by KiCad (PCBNEW 8.0.5-8.0.5-0~ubuntu22.04.1) date 2024-10-15 22:57:18*
%MOMM*%
%LPD*%
G01*
G04 APERTURE LIST*
G04 Aperture macros list*
%AMRoundRect*
0 Rectangle with rounded corners*
0 $1 Rounding radius*
0 $2 $3 $4 $5 $6 $7 $8 $9 X,Y pos of 4 corners*
0 Add a 4 corners polygon primitive as box body*
4,1,4,$2,$3,$4,$5,$6,$7,$8,$9,$2,$3,0*
0 Add four circle primitives for the rounded corners*
1,1,$1+$1,$2,$3*
1,1,$1+$1,$4,$5*
1,1,$1+$1,$6,$7*
1,1,$1+$1,$8,$9*
0 Add four rect primitives between the rounded corners*
20,1,$1+$1,$2,$3,$4,$5,0*
20,1,$1+$1,$4,$5,$6,$7,0*
20,1,$1+$1,$6,$7,$8,$9,0*
20,1,$1+$1,$8,$9,$2,$3,0*%
G04 Aperture macros list end*
%TA.AperFunction,SMDPad,CuDef*%
%ADD10RoundRect,0.287500X0.287500X1.362500X-0.287500X1.362500X-0.287500X-1.362500X0.287500X-1.362500X0*%
%TD*%
%TA.AperFunction,SMDPad,CuDef*%
%ADD11RoundRect,0.225000X0.475000X0.225000X-0.475000X0.225000X-0.475000X-0.225000X0.475000X-0.225000X0*%
%TD*%
%TA.AperFunction,SMDPad,CuDef*%
%ADD12RoundRect,0.225000X-0.475000X-0.225000X0.475000X-0.225000X0.475000X0.225000X-0.475000X0.225000X0*%
%TD*%
%TA.AperFunction,SMDPad,CuDef*%
%ADD13RoundRect,0.250000X-0.262500X-0.450000X0.262500X-0.450000X0.262500X0.450000X-0.262500X0.450000X0*%
%TD*%
%TA.AperFunction,SMDPad,CuDef*%
%ADD14RoundRect,0.225000X0.225000X-0.475000X0.225000X0.475000X-0.225000X0.475000X-0.225000X-0.475000X0*%
%TD*%
%TA.AperFunction,SMDPad,CuDef*%
%ADD15RoundRect,0.250000X-0.450000X0.262500X-0.450000X-0.262500X0.450000X-0.262500X0.450000X0.262500X0*%
%TD*%
%TA.AperFunction,SMDPad,CuDef*%
%ADD16RoundRect,0.250000X0.262500X0.450000X-0.262500X0.450000X-0.262500X-0.450000X0.262500X-0.450000X0*%
%TD*%
%TA.AperFunction,SMDPad,CuDef*%
%ADD17RoundRect,0.225000X-0.225000X0.475000X-0.225000X-0.475000X0.225000X-0.475000X0.225000X0.475000X0*%
%TD*%
%TA.AperFunction,ComponentPad*%
%ADD18RoundRect,0.250000X-0.600000X0.600000X-0.600000X-0.600000X0.600000X-0.600000X0.600000X0.600000X0*%
%TD*%
%TA.AperFunction,ComponentPad*%
%ADD19C,1.700000*%
%TD*%
%TA.AperFunction,SMDPad,CuDef*%
%ADD20RoundRect,0.250000X0.450000X-0.262500X0.450000X0.262500X-0.450000X0.262500X-0.450000X-0.262500X0*%
%TD*%
%TA.AperFunction,Conductor*%
%ADD21C,0.200000*%
%TD*%
G04 APERTURE END LIST*
D10*
%TO.P,D105,1,K*%
%TO.N,GND*%
X60250000Y-45500000D03*
%TO.P,D105,2,A*%
%TO.N,Net-(D105-A)*%
X61600000Y-45500000D03*
%TD*%
D11*
%TO.P,D104,1,K*%
%TO.N,GND*%
X60550000Y-72100000D03*
%TO.P,D104,2,A*%
%TO.N,Net-(D104-A)*%
X63950000Y-72100000D03*
%TD*%
D12*
%TO.P,D102,1,K*%
%TO.N,GND*%
X63700000Y-21750000D03*
%TO.P,D102,2,A*%
%TO.N,Net-(D102-A)*%
X60300000Y-21750000D03*
%TD*%
D13*
%TO.P,R102,1*%
%TO.N,+3.3V*%
X57175000Y-24000000D03*
%TO.P,R102,2*%
%TO.N,Net-(D102-A)*%
X59000000Y-24000000D03*
%TD*%
D14*
%TO.P,D101,1,K*%
%TO.N,GND*%
X36000000Y-46300000D03*
%TO.P,D101,2,A*%
%TO.N,Net-(D101-A)*%
X36000000Y-49700000D03*
%TD*%
D15*
%TO.P,R103,1*%
%TO.N,+3.3V*%
X84500000Y-43587500D03*
%TO.P,R103,2*%
%TO.N,Net-(D103-A)*%
X84500000Y-45412500D03*
%TD*%
D16*
%TO.P,R105,1*%
%TO.N,+3.3V*%
X65912500Y-46000000D03*
%TO.P,R105,2*%
%TO.N,Net-(D105-A)*%
X64087500Y-46000000D03*
%TD*%
D17*
%TO.P,D103,1,K*%
%TO.N,GND*%
X87000000Y-49700000D03*
%TO.P,D103,2,A*%
%TO.N,Net-(D103-A)*%
X87000000Y-46300000D03*
%TD*%
D18*
%TO.P,J101,1,Pin_1*%
%TO.N,+3.3V*%
X59670000Y-64500000D03*
D19*
%TO.P,J101,2,Pin_2*%
%TO.N,GND*%
X59670000Y-67040000D03*
%TO.P,J101,3,Pin_3*%
%TO.N,/SDA*%
X62210000Y-64500000D03*
%TO.P,J101,4,Pin_4*%
%TO.N,/SCL*%
X62210000Y-67040000D03*
%TO.P,J101,5,Pin_5*%
%TO.N,/SAO_GPIO1*%
X64750000Y-64500000D03*
%TO.P,J101,6,Pin_6*%
%TO.N,/SAO_GPIO2*%
X64750000Y-67040000D03*
%TD*%
D20*
%TO.P,R101,1*%
%TO.N,+3.3V*%
X38000000Y-52912500D03*
%TO.P,R101,2*%
%TO.N,Net-(D101-A)*%
X38000000Y-51087500D03*
%TD*%
D16*
%TO.P,R104,1*%
%TO.N,+3.3V*%
X67912500Y-72000000D03*
%TO.P,R104,2*%
%TO.N,Net-(D104-A)*%
X66087500Y-72000000D03*
%TD*%
D21*
%TO.N,Net-(D101-A)*%
X36000000Y-49700000D02*
X37387500Y-51087500D01*
X37387500Y-51087500D02*
X38000000Y-51087500D01*
%TO.N,Net-(D102-A)*%
X59000000Y-24000000D02*
X59000000Y-23050000D01*
X59000000Y-23050000D02*
X60300000Y-21750000D01*
%TO.N,Net-(D103-A)*%
X84500000Y-45412500D02*
X86112500Y-45412500D01*
X86112500Y-45412500D02*
X87000000Y-46300000D01*
%TO.N,Net-(D104-A)*%
X63950000Y-72100000D02*
X65987500Y-72100000D01*
X65987500Y-72100000D02*
X66087500Y-72000000D01*
%TO.N,Net-(D105-A)*%
X62100000Y-46000000D02*
X61600000Y-45500000D01*
X64087500Y-46000000D02*
X62100000Y-46000000D01*
%TO.N,+3.3V*%
X59670000Y-52242500D02*
X65912500Y-46000000D01*
X67912500Y-63662500D02*
X67000000Y-62750000D01*
X67000000Y-62750000D02*
X59920000Y-62750000D01*
X59670000Y-53500000D02*
X59670000Y-52242500D01*
X65912500Y-46000000D02*
X65912500Y-32737500D01*
X59670000Y-64500000D02*
X59670000Y-63000000D01*
X65912500Y-32737500D02*
X57175000Y-24000000D01*
X59670000Y-63000000D02*
X59670000Y-53500000D01*
X59920000Y-62750000D02*
X59670000Y-63000000D01*
X59082500Y-52912500D02*
X59670000Y-53500000D01*
X82087500Y-46000000D02*
X84500000Y-43587500D01*
X67912500Y-72000000D02*
X67912500Y-63662500D01*
X65912500Y-46000000D02*
X82087500Y-46000000D01*
X38000000Y-52912500D02*
X59082500Y-52912500D01*
%TD*%
%TA.AperFunction,Conductor*%
%TO.N,GND*%
G36*
X61130720Y-65338779D02*
G01*
X61167483Y-65367766D01*
X61167677Y-65367573D01*
X61169313Y-65369209D01*
X61170354Y-65370030D01*
X61171501Y-65371397D01*
X61338597Y-65538493D01*
X61338603Y-65538498D01*
X61524158Y-65668425D01*
X61567783Y-65723002D01*
X61574977Y-65792500D01*
X61543454Y-65854855D01*
X61524158Y-65871575D01*
X61338597Y-66001505D01*
X61171505Y-66168597D01*
X61041269Y-66354595D01*
X60986692Y-66398220D01*
X60917194Y-66405414D01*
X60854839Y-66373891D01*
X60838119Y-66354595D01*
X60784925Y-66278626D01*
X60784925Y-66278625D01*
X60152962Y-66910589D01*
X60135925Y-66847007D01*
X60070099Y-66732993D01*
X59977007Y-66639901D01*
X59862993Y-66574075D01*
X59799410Y-66557037D01*
X60435789Y-65920658D01*
X60446209Y-65868808D01*
X60494823Y-65818624D01*
X60516961Y-65808796D01*
X60589334Y-65784814D01*
X60738656Y-65692712D01*
X60862712Y-65568656D01*
X60954814Y-65419334D01*
X60957662Y-65410738D01*
X60997429Y-65353294D01*
X61061944Y-65326468D01*
X61130720Y-65338779D01*
G37*
%TD.AperFunction*%
%TA.AperFunction,Conductor*%
G36*
X71765677Y-20269685D02*
G01*
X71786319Y-20286319D01*
X88713681Y-37213681D01*
X88747166Y-37275004D01*
X88750000Y-37301362D01*
X88750000Y-56198638D01*
X88730315Y-56265677D01*
X88713681Y-56286319D01*
X71286319Y-73713681D01*
X71224996Y-73747166D01*
X71198638Y-73750000D01*
X52551362Y-73750000D01*
X52484323Y-73730315D01*
X52463681Y-73713681D01*
X51793220Y-73043220D01*
X59960331Y-73043220D01*
X60026684Y-73049999D01*
X61073308Y-73049999D01*
X61073320Y-73049998D01*
X61139667Y-73043219D01*
X60550001Y-72453553D01*
X60550000Y-72453553D01*
X59960331Y-73043220D01*
X51793220Y-73043220D01*
X50576677Y-71826677D01*
X59350000Y-71826677D01*
X59350000Y-72373307D01*
X59350001Y-72373323D01*
X59360144Y-72472607D01*
X59413452Y-72633481D01*
X59413457Y-72633492D01*
X59502424Y-72777728D01*
X59502427Y-72777732D01*
X59510571Y-72785876D01*
X60196447Y-72100000D01*
X60903553Y-72100000D01*
X61589429Y-72785876D01*
X61597572Y-72777732D01*
X61597575Y-72777728D01*
X61686542Y-72633492D01*
X61686547Y-72633481D01*
X61739855Y-72472606D01*
X61749999Y-72373322D01*
X61749999Y-71826692D01*
X61749998Y-71826676D01*
X61739855Y-71727392D01*
X61686547Y-71566518D01*
X61686542Y-71566507D01*
X61597575Y-71422271D01*
X61597572Y-71422267D01*
X61589429Y-71414124D01*
X60903553Y-72100000D01*
X60196447Y-72100000D01*
X59510571Y-71414124D01*
X59502427Y-71422267D01*
X59502424Y-71422271D01*
X59413457Y-71566507D01*
X59413452Y-71566518D01*
X59360144Y-71727393D01*
X59350000Y-71826677D01*
X50576677Y-71826677D01*
X49906779Y-71156779D01*
X59960331Y-71156779D01*
X60550000Y-71746447D01*
X60550001Y-71746447D01*
X61139668Y-71156778D01*
X61073316Y-71150000D01*
X60026692Y-71150000D01*
X60026674Y-71150001D01*
X59960332Y-71156778D01*
X59960331Y-71156779D01*
X49906779Y-71156779D01*
X34036319Y-55286319D01*
X34002834Y-55224996D01*
X34000000Y-55198638D01*
X34000000Y-49176647D01*
X35049500Y-49176647D01*
X35049500Y-50223337D01*
X35049501Y-50223355D01*
X35059650Y-50322707D01*
X35059651Y-50322710D01*
X35112996Y-50483694D01*
X35113001Y-50483705D01*
X35202029Y-50628040D01*
X35202032Y-50628044D01*
X35321955Y-50747967D01*
X35321959Y-50747970D01*
X35466294Y-50836998D01*
X35466297Y-50836999D01*
X35466303Y-50837003D01*
X35627292Y-50890349D01*
X35726655Y-50900500D01*
X36273344Y-50900499D01*
X36285424Y-50899265D01*
X36354116Y-50912034D01*
X36385707Y-50934942D01*
X36763181Y-51312416D01*
X36796666Y-51373739D01*
X36799156Y-51396869D01*
X36799176Y-51396868D01*
X36799180Y-51396868D01*
X36799341Y-51396860D01*
X36799501Y-51400018D01*
X36810001Y-51502797D01*
X36810001Y-51502799D01*
X36865185Y-51669331D01*
X36865187Y-51669336D01*
X36957289Y-51818657D01*
X37050951Y-51912319D01*
X37084436Y-51973642D01*
X37079452Y-52043334D01*
X37050951Y-52087681D01*
X36957289Y-52181342D01*
X36865187Y-52330663D01*
X36865186Y-52330666D01*
X36810001Y-52497203D01*
X36810001Y-52497204D01*
X36810000Y-52497204D01*
X36799500Y-52599983D01*
X36799500Y-53225001D01*
X36799501Y-53225019D01*
X36810000Y-53327796D01*
X36810001Y-53327799D01*
X36848118Y-53442827D01*
X36865186Y-53494334D01*
X36957288Y-53643656D01*
X37081344Y-53767712D01*
X37230666Y-53859814D01*
X37397203Y-53914999D01*
X37499991Y-53925500D01*
X38500008Y-53925499D01*
X38500016Y-53925498D01*
X38500019Y-53925498D01*
X38556302Y-53919748D01*
X38602797Y-53914999D01*
X38769334Y-53859814D01*
X38918656Y-53767712D01*
X39042712Y-53643656D01*
X39086970Y-53571902D01*
X39138917Y-53525179D01*
X39192508Y-53513000D01*
X58782403Y-53513000D01*
X58849442Y-53532685D01*
X58870084Y-53549319D01*
X59033181Y-53712416D01*
X59066666Y-53773739D01*
X59069500Y-53800097D01*
X59069500Y-62913330D01*
X59069499Y-62913348D01*
X59069499Y-63032465D01*
X59049814Y-63099504D01*
X58997010Y-63145259D01*
X58958101Y-63155823D01*
X58917202Y-63160001D01*
X58917200Y-63160001D01*
X58750668Y-63215185D01*
X58750663Y-63215187D01*
X58601342Y-63307289D01*
X58477289Y-63431342D01*
X58385187Y-63580663D01*
X58385185Y-63580668D01*
X58357349Y-63664670D01*
X58330001Y-63747203D01*
X58330001Y-63747204D01*
X58330000Y-63747204D01*
X58319500Y-63849983D01*
X58319500Y-65150001D01*
X58319501Y-65150018D01*
X58330000Y-65252796D01*
X58330001Y-65252799D01*
X58369303Y-65371402D01*
X58385186Y-65419334D01*
X58477288Y-65568656D01*
X58601344Y-65692712D01*
X58750666Y-65784814D01*
X58823032Y-65808793D01*
X58880476Y-65848566D01*
X58907299Y-65913081D01*
X58907412Y-65923859D01*
X59540590Y-66557037D01*
X59477007Y-66574075D01*
X59362993Y-66639901D01*
X59269901Y-66732993D01*
X59204075Y-66847007D01*
X59187037Y-66910590D01*
X58555072Y-66278625D01*
X58496401Y-66362419D01*
X58396570Y-66576507D01*
X58396566Y-66576516D01*
X58335432Y-66804673D01*
X58335430Y-66804684D01*
X58314843Y-67039998D01*
X58314843Y-67040001D01*
X58335430Y-67275315D01*
X58335432Y-67275326D01*
X58396566Y-67503483D01*
X58396570Y-67503492D01*
X58496400Y-67717579D01*
X58496402Y-67717583D01*
X58555072Y-67801373D01*
X58555073Y-67801373D01*
X59187037Y-67169409D01*
X59204075Y-67232993D01*
X59269901Y-67347007D01*
X59362993Y-67440099D01*
X59477007Y-67505925D01*
X59540590Y-67522962D01*
X58908625Y-68154925D01*
X58992421Y-68213599D01*
X59206507Y-68313429D01*
X59206516Y-68313433D01*
X59434673Y-68374567D01*
X59434684Y-68374569D01*
X59669998Y-68395157D01*
X59670002Y-68395157D01*
X59905315Y-68374569D01*
X59905326Y-68374567D01*
X60133483Y-68313433D01*
X60133492Y-68313429D01*
X60347578Y-68213600D01*
X60347582Y-68213598D01*
X60431373Y-68154926D01*
X60431373Y-68154925D01*
X59799409Y-67522962D01*
X59862993Y-67505925D01*
X59977007Y-67440099D01*
X60070099Y-67347007D01*
X60135925Y-67232993D01*
X60152962Y-67169409D01*
X60784925Y-67801373D01*
X60838119Y-67725405D01*
X60892696Y-67681781D01*
X60962195Y-67674588D01*
X61024549Y-67706110D01*
X61041269Y-67725405D01*
X61171505Y-67911401D01*
X61338599Y-68078495D01*
X61362505Y-68095234D01*
X61532165Y-68214032D01*
X61532167Y-68214033D01*
X61532170Y-68214035D01*
X61746337Y-68313903D01*
X61974592Y-68375063D01*
X62162918Y-68391539D01*
X62209999Y-68395659D01*
X62210000Y-68395659D01*
X62210001Y-68395659D01*
X62249234Y-68392226D01*
X62445408Y-68375063D01*
X62673663Y-68313903D01*
X62887830Y-68214035D01*
X63081401Y-68078495D01*
X63248495Y-67911401D01*
X63378425Y-67725842D01*
X63433002Y-67682217D01*
X63502500Y-67675023D01*
X63564855Y-67706546D01*
X63581575Y-67725842D01*
X63711500Y-67911395D01*
X63711505Y-67911401D01*
X63878599Y-68078495D01*
X63902505Y-68095234D01*
X64072165Y-68214032D01*
X64072167Y-68214033D01*
X64072170Y-68214035D01*
X64286337Y-68313903D01*
X64514592Y-68375063D01*
X64702918Y-68391539D01*
X64749999Y-68395659D01*
X64750000Y-68395659D01*
X64750001Y-68395659D01*
X64789234Y-68392226D01*
X64985408Y-68375063D01*
X65213663Y-68313903D01*
X65427830Y-68214035D01*
X65621401Y-68078495D01*
X65788495Y-67911401D01*
X65924035Y-67717830D01*
X66023903Y-67503663D01*
X66085063Y-67275408D01*
X66105659Y-67040000D01*
X66085063Y-66804592D01*
X66023903Y-66576337D01*
X65924035Y-66362171D01*
X65918731Y-66354595D01*
X65788494Y-66168597D01*
X65621402Y-66001506D01*
X65621396Y-66001501D01*
X65435842Y-65871575D01*
X65392217Y-65816998D01*
X65385023Y-65747500D01*
X65416546Y-65685145D01*
X65435842Y-65668425D01*
X65560700Y-65580998D01*
X65621401Y-65538495D01*
X65788495Y-65371401D01*
X65924035Y-65177830D01*
X66023903Y-64963663D01*
X66085063Y-64735408D01*
X66105659Y-64500000D01*
X66085063Y-64264592D01*
X66023903Y-64036337D01*
X65924035Y-63822171D01*
X65918425Y-63814158D01*
X65788494Y-63628597D01*
X65722078Y-63562181D01*
X65688593Y-63500858D01*
X65693577Y-63431166D01*
X65735449Y-63375233D01*
X65800913Y-63350816D01*
X65809759Y-63350500D01*
X66699903Y-63350500D01*
X66766942Y-63370185D01*
X66787584Y-63386819D01*
X67275681Y-63874916D01*
X67309166Y-63936239D01*
X67312000Y-63962597D01*
X67312000Y-70807491D01*
X67292315Y-70874530D01*
X67253098Y-70913029D01*
X67181344Y-70957287D01*
X67181343Y-70957288D01*
X67087681Y-71050951D01*
X67026358Y-71084436D01*
X66956666Y-71079452D01*
X66912319Y-71050951D01*
X66818657Y-70957289D01*
X66818656Y-70957288D01*
X66669334Y-70865186D01*
X66502797Y-70810001D01*
X66502795Y-70810000D01*
X66400010Y-70799500D01*
X65774998Y-70799500D01*
X65774980Y-70799501D01*
X65672203Y-70810000D01*
X65672200Y-70810001D01*
X65505668Y-70865185D01*
X65505663Y-70865187D01*
X65356342Y-70957289D01*
X65232289Y-71081342D01*
X65140187Y-71230663D01*
X65140186Y-71230666D01*
X65131241Y-71257662D01*
X65120413Y-71290338D01*
X65080640Y-71347782D01*
X65016124Y-71374605D01*
X64947348Y-71362290D01*
X64915026Y-71339014D01*
X64878044Y-71302032D01*
X64878040Y-71302029D01*
X64733705Y-71213001D01*
X64733699Y-71212998D01*
X64733697Y-71212997D01*
X64675260Y-71193633D01*
X64572709Y-71159651D01*
X64473346Y-71149500D01*
X63426662Y-71149500D01*
X63426644Y-71149501D01*
X63327292Y-71159650D01*
X63327289Y-71159651D01*
X63166305Y-71212996D01*
X63166294Y-71213001D01*
X63021959Y-71302029D01*
X63021955Y-71302032D01*
X62902032Y-71421955D01*
X62902029Y-71421959D01*
X62813001Y-71566294D01*
X62812996Y-71566305D01*
X62759651Y-71727290D01*
X62749500Y-71826647D01*
X62749500Y-72373337D01*
X62749501Y-72373355D01*
X62759650Y-72472707D01*
X62759651Y-72472710D01*
X62812996Y-72633694D01*
X62813001Y-72633705D01*
X62902029Y-72778040D01*
X62902032Y-72778044D01*
X63021955Y-72897967D01*
X63021959Y-72897970D01*
X63166294Y-72986998D01*
X63166297Y-72986999D01*
X63166303Y-72987003D01*
X63327292Y-73040349D01*
X63426655Y-73050500D01*
X64473344Y-73050499D01*
X64473352Y-73050498D01*
X64473355Y-73050498D01*
X64549575Y-73042712D01*
X64572708Y-73040349D01*
X64733697Y-72987003D01*
X64878044Y-72897968D01*
X64978364Y-72797647D01*
X65039683Y-72764165D01*
X65109375Y-72769149D01*
X65165309Y-72811020D01*
X65171581Y-72820234D01*
X65232288Y-72918656D01*
X65356344Y-73042712D01*
X65505666Y-73134814D01*
X65672203Y-73189999D01*
X65774991Y-73200500D01*
X66400008Y-73200499D01*
X66400016Y-73200498D01*
X66400019Y-73200498D01*
X66456302Y-73194748D01*
X66502797Y-73189999D01*
X66669334Y-73134814D01*
X66818656Y-73042712D01*
X66912319Y-72949049D01*
X66973642Y-72915564D01*
X67043334Y-72920548D01*
X67087681Y-72949049D01*
X67181344Y-73042712D01*
X67330666Y-73134814D01*
X67497203Y-73189999D01*
X67599991Y-73200500D01*
X68225008Y-73200499D01*
X68225016Y-73200498D01*
X68225019Y-73200498D01*
X68281302Y-73194748D01*
X68327797Y-73189999D01*
X68494334Y-73134814D01*
X68643656Y-73042712D01*
X68767712Y-72918656D01*
X68859814Y-72769334D01*
X68914999Y-72602797D01*
X68925500Y-72500009D01*
X68925499Y-71499992D01*
X68916727Y-71414124D01*
X68914999Y-71397203D01*
X68914998Y-71397200D01*
X68895717Y-71339014D01*
X68859814Y-71230666D01*
X68767712Y-71081344D01*
X68643656Y-70957288D01*
X68643655Y-70957287D01*
X68571902Y-70913029D01*
X68525178Y-70861081D01*
X68513000Y-70807491D01*
X68513000Y-63751559D01*
X68513001Y-63751546D01*
X68513001Y-63583445D01*
X68513001Y-63583443D01*
X68472077Y-63430715D01*
X68443139Y-63380595D01*
X68393020Y-63293784D01*
X68281216Y-63181980D01*
X68281215Y-63181979D01*
X68276885Y-63177649D01*
X68276874Y-63177639D01*
X67487590Y-62388355D01*
X67487588Y-62388352D01*
X67368717Y-62269481D01*
X67368709Y-62269475D01*
X67257399Y-62205211D01*
X67257398Y-62205210D01*
X67239394Y-62194816D01*
X67231785Y-62190423D01*
X67079057Y-62149499D01*
X66920943Y-62149499D01*
X66913347Y-62149499D01*
X66913331Y-62149500D01*
X60394500Y-62149500D01*
X60327461Y-62129815D01*
X60281706Y-62077011D01*
X60270500Y-62025500D01*
X60270500Y-52542596D01*
X60290185Y-52475557D01*
X60306814Y-52454920D01*
X62022304Y-50739429D01*
X86314124Y-50739429D01*
X86322267Y-50747572D01*
X86322271Y-50747575D01*
X86466507Y-50836542D01*
X86466518Y-50836547D01*
X86627393Y-50889855D01*
X86726683Y-50899999D01*
X87273307Y-50899999D01*
X87273323Y-50899998D01*
X87372607Y-50889855D01*
X87533481Y-50836547D01*
X87533492Y-50836542D01*
X87677728Y-50747575D01*
X87677732Y-50747572D01*
X87685876Y-50739429D01*
X87000000Y-50053553D01*
X86314124Y-50739429D01*
X62022304Y-50739429D01*
X63585060Y-49176673D01*
X86050000Y-49176673D01*
X86050000Y-50223307D01*
X86050001Y-50223322D01*
X86056779Y-50289666D01*
X86056779Y-50289667D01*
X86646447Y-49700000D01*
X86646447Y-49699999D01*
X87353553Y-49699999D01*
X87353553Y-49700000D01*
X87943220Y-50289667D01*
X87949999Y-50223321D01*
X87949999Y-49176691D01*
X87949998Y-49176678D01*
X87943219Y-49110332D01*
X87353553Y-49699999D01*
X86646447Y-49699999D01*
X86056778Y-49110330D01*
X86056777Y-49110331D01*
X86050000Y-49176673D01*
X63585060Y-49176673D01*
X64101162Y-48660571D01*
X86314124Y-48660571D01*
X87000000Y-49346447D01*
X87685876Y-48660571D01*
X87677732Y-48652427D01*
X87677728Y-48652424D01*
X87533492Y-48563457D01*
X87533481Y-48563452D01*
X87372606Y-48510144D01*
X87273316Y-48500000D01*
X86726692Y-48500000D01*
X86726676Y-48500001D01*
X86627392Y-48510144D01*
X86466518Y-48563452D01*
X86466507Y-48563457D01*
X86322271Y-48652424D01*
X86322267Y-48652427D01*
X86314124Y-48660571D01*
X64101162Y-48660571D01*
X65524917Y-47236816D01*
X65586238Y-47203333D01*
X65612586Y-47200499D01*
X66225008Y-47200499D01*
X66225016Y-47200498D01*
X66225019Y-47200498D01*
X66281302Y-47194748D01*
X66327797Y-47189999D01*
X66494334Y-47134814D01*
X66643656Y-47042712D01*
X66767712Y-46918656D01*
X66859814Y-46769334D01*
X66887595Y-46685495D01*
X66927368Y-46628051D01*
X66991884Y-46601228D01*
X67005301Y-46600500D01*
X82000831Y-46600500D01*
X82000847Y-46600501D01*
X82008443Y-46600501D01*
X82166554Y-46600501D01*
X82166557Y-46600501D01*
X82319285Y-46559577D01*
X82369404Y-46530639D01*
X82456216Y-46480520D01*
X82568020Y-46368716D01*
X82568020Y-46368714D01*
X82578228Y-46358507D01*
X82578230Y-46358504D01*
X83117807Y-45818926D01*
X83179128Y-45785443D01*
X83248820Y-45790427D01*
X83304753Y-45832299D01*
X83323192Y-45867605D01*
X83365186Y-45994334D01*
X83457288Y-46143656D01*
X83581344Y-46267712D01*
X83730666Y-46359814D01*
X83897203Y-46414999D01*
X83999991Y-46425500D01*
X85000008Y-46425499D01*
X85000016Y-46425498D01*
X85000019Y-46425498D01*
X85056302Y-46419748D01*
X85102797Y-46414999D01*
X85269334Y-46359814D01*
X85418656Y-46267712D01*
X85542712Y-46143656D01*
X85586970Y-46071902D01*
X85638917Y-46025179D01*
X85692508Y-46013000D01*
X85812403Y-46013000D01*
X85879442Y-46032685D01*
X85900084Y-46049319D01*
X86013181Y-46162416D01*
X86046666Y-46223739D01*
X86049500Y-46250097D01*
X86049500Y-46823337D01*
X86049501Y-46823355D01*
X86059650Y-46922707D01*
X86059651Y-46922710D01*
X86112996Y-47083694D01*
X86113001Y-47083705D01*
X86202029Y-47228040D01*
X86202032Y-47228044D01*
X86321955Y-47347967D01*
X86321959Y-47347970D01*
X86466294Y-47436998D01*
X86466297Y-47436999D01*
X86466303Y-47437003D01*
X86627292Y-47490349D01*
X86726655Y-47500500D01*
X87273344Y-47500499D01*
X87273352Y-47500498D01*
X87273355Y-47500498D01*
X87327760Y-47494940D01*
X87372708Y-47490349D01*
X87533697Y-47437003D01*
X87678044Y-47347968D01*
X87797968Y-47228044D01*
X87887003Y-47083697D01*
X87940349Y-46922708D01*
X87950500Y-46823345D01*
X87950499Y-45776656D01*
X87940349Y-45677292D01*
X87887003Y-45516303D01*
X87886999Y-45516297D01*
X87886998Y-45516294D01*
X87797970Y-45371959D01*
X87797967Y-45371955D01*
X87678044Y-45252032D01*
X87678040Y-45252029D01*
X87533705Y-45163001D01*
X87533699Y-45162998D01*
X87533697Y-45162997D01*
X87483752Y-45146447D01*
X87372709Y-45109651D01*
X87273346Y-45099500D01*
X86726663Y-45099500D01*
X86726644Y-45099501D01*
X86714566Y-45100735D01*
X86645874Y-45087960D01*
X86614292Y-45065057D01*
X86600090Y-45050855D01*
X86600088Y-45050852D01*
X86481217Y-44931981D01*
X86481216Y-44931980D01*
X86394404Y-44881860D01*
X86394404Y-44881859D01*
X86394400Y-44881858D01*
X86344285Y-44852923D01*
X86191557Y-44811999D01*
X86033443Y-44811999D01*
X86025847Y-44811999D01*
X86025831Y-44812000D01*
X85692508Y-44812000D01*
X85625469Y-44792315D01*
X85586969Y-44753097D01*
X85552752Y-44697622D01*
X85542712Y-44681344D01*
X85449049Y-44587681D01*
X85415564Y-44526358D01*
X85420548Y-44456666D01*
X85449049Y-44412319D01*
X85542712Y-44318656D01*
X85634814Y-44169334D01*
X85689999Y-44002797D01*
X85700500Y-43900009D01*
X85700499Y-43274992D01*
X85689999Y-43172203D01*
X85634814Y-43005666D01*
X85542712Y-42856344D01*
X85418656Y-42732288D01*
X85269334Y-42640186D01*
X85102797Y-42585001D01*
X85102795Y-42585000D01*
X85000010Y-42574500D01*
X83999998Y-42574500D01*
X83999980Y-42574501D01*
X83897203Y-42585000D01*
X83897200Y-42585001D01*
X83730668Y-42640185D01*
X83730663Y-42640187D01*
X83581342Y-42732289D01*
X83457289Y-42856342D01*
X83365187Y-43005663D01*
X83365185Y-43005668D01*
X83337349Y-43089670D01*
X83310001Y-43172203D01*
X83310001Y-43172204D01*
X83310000Y-43172204D01*
X83299500Y-43274983D01*
X83299500Y-43887401D01*
X83279815Y-43954440D01*
X83263181Y-43975082D01*
X81875084Y-45363181D01*
X81813761Y-45396666D01*
X81787403Y-45399500D01*
X67005301Y-45399500D01*
X66938262Y-45379815D01*
X66892507Y-45327011D01*
X66887595Y-45314504D01*
X66859814Y-45230666D01*
X66767712Y-45081344D01*
X66643656Y-44957288D01*
X66643655Y-44957287D01*
X66571902Y-44913029D01*
X66525178Y-44861081D01*
X66513000Y-44807491D01*
X66513000Y-32826559D01*
X66513001Y-32826546D01*
X66513001Y-32658445D01*
X66513001Y-32658443D01*
X66472077Y-32505715D01*
X66448693Y-32465215D01*
X66435194Y-32441832D01*
X66435193Y-32441831D01*
X66393021Y-32368786D01*
X66393020Y-32368784D01*
X66281216Y-32256980D01*
X66281215Y-32256979D01*
X66276885Y-32252649D01*
X66276874Y-32252639D01*
X59406429Y-25382194D01*
X59372944Y-25320871D01*
X59377928Y-25251179D01*
X59419800Y-25195246D01*
X59455102Y-25176808D01*
X59581834Y-25134814D01*
X59731156Y-25042712D01*
X59855212Y-24918656D01*
X59947314Y-24769334D01*
X60002499Y-24602797D01*
X60013000Y-24500009D01*
X60012999Y-23499992D01*
X60002499Y-23397203D01*
X59947314Y-23230666D01*
X59947310Y-23230660D01*
X59947309Y-23230657D01*
X59892445Y-23141709D01*
X59874004Y-23074317D01*
X59894926Y-23007653D01*
X59910297Y-22988936D01*
X60162416Y-22736818D01*
X60223739Y-22703333D01*
X60250097Y-22700499D01*
X60823338Y-22700499D01*
X60823344Y-22700499D01*
X60823352Y-22700498D01*
X60823355Y-22700498D01*
X60894602Y-22693220D01*
X63110331Y-22693220D01*
X63176684Y-22699999D01*
X64223308Y-22699999D01*
X64223320Y-22699998D01*
X64289667Y-22693219D01*
X63700001Y-22103553D01*
X63700000Y-22103553D01*
X63110331Y-22693220D01*
X60894602Y-22693220D01*
X60894612Y-22693219D01*
X60922708Y-22690349D01*
X61083697Y-22637003D01*
X61228044Y-22547968D01*
X61347968Y-22428044D01*
X61437003Y-22283697D01*
X61490349Y-22122708D01*
X61500500Y-22023345D01*
X61500499Y-21476677D01*
X62500000Y-21476677D01*
X62500000Y-22023307D01*
X62500001Y-22023323D01*
X62510144Y-22122607D01*
X62563452Y-22283481D01*
X62563457Y-22283492D01*
X62652424Y-22427728D01*
X62652427Y-22427732D01*
X62660571Y-22435876D01*
X63346447Y-21750000D01*
X64053553Y-21750000D01*
X64739429Y-22435876D01*
X64747572Y-22427732D01*
X64747575Y-22427728D01*
X64836542Y-22283492D01*
X64836547Y-22283481D01*
X64889855Y-22122606D01*
X64899999Y-22023322D01*
X64899999Y-21476692D01*
X64899998Y-21476676D01*
X64889855Y-21377392D01*
X64836547Y-21216518D01*
X64836542Y-21216507D01*
X64747575Y-21072271D01*
X64747572Y-21072267D01*
X64739429Y-21064124D01*
X64053553Y-21750000D01*
X63346447Y-21750000D01*
X62660571Y-21064124D01*
X62652427Y-21072267D01*
X62652424Y-21072271D01*
X62563457Y-21216507D01*
X62563452Y-21216518D01*
X62510144Y-21377393D01*
X62500000Y-21476677D01*
X61500499Y-21476677D01*
X61500499Y-21476656D01*
X61490349Y-21377292D01*
X61437003Y-21216303D01*
X61436999Y-21216297D01*
X61436998Y-21216294D01*
X61347970Y-21071959D01*
X61347967Y-21071955D01*
X61228044Y-20952032D01*
X61228040Y-20952029D01*
X61083705Y-20863001D01*
X61083699Y-20862998D01*
X61083697Y-20862997D01*
X60971733Y-20825896D01*
X60922709Y-20809651D01*
X60894596Y-20806779D01*
X63110331Y-20806779D01*
X63700000Y-21396447D01*
X63700001Y-21396447D01*
X64289668Y-20806778D01*
X64223316Y-20800000D01*
X63176692Y-20800000D01*
X63176674Y-20800001D01*
X63110332Y-20806778D01*
X63110331Y-20806779D01*
X60894596Y-20806779D01*
X60823346Y-20799500D01*
X59776662Y-20799500D01*
X59776644Y-20799501D01*
X59677292Y-20809650D01*
X59677289Y-20809651D01*
X59516305Y-20862996D01*
X59516294Y-20863001D01*
X59371959Y-20952029D01*
X59371955Y-20952032D01*
X59252032Y-21071955D01*
X59252029Y-21071959D01*
X59163001Y-21216294D01*
X59162996Y-21216305D01*
X59109651Y-21377290D01*
X59099500Y-21476647D01*
X59099500Y-22023336D01*
X59099501Y-22023349D01*
X59100735Y-22035429D01*
X59087961Y-22104121D01*
X59065057Y-22135705D01*
X58631286Y-22569478D01*
X58519481Y-22681282D01*
X58519479Y-22681285D01*
X58508675Y-22699999D01*
X58474361Y-22759433D01*
X58461938Y-22780949D01*
X58440422Y-22818215D01*
X58437314Y-22825721D01*
X58434089Y-22824385D01*
X58405812Y-22870410D01*
X58387824Y-22883901D01*
X58268842Y-22957289D01*
X58175181Y-23050951D01*
X58113858Y-23084436D01*
X58044166Y-23079452D01*
X57999819Y-23050951D01*
X57906157Y-22957289D01*
X57906156Y-22957288D01*
X57756834Y-22865186D01*
X57590297Y-22810001D01*
X57590295Y-22810000D01*
X57487510Y-22799500D01*
X56862498Y-22799500D01*
X56862480Y-22799501D01*
X56759703Y-22810000D01*
X56759700Y-22810001D01*
X56593168Y-22865185D01*
X56593163Y-22865187D01*
X56443842Y-22957289D01*
X56319789Y-23081342D01*
X56227687Y-23230663D01*
X56227686Y-23230666D01*
X56172501Y-23397203D01*
X56172501Y-23397204D01*
X56172500Y-23397204D01*
X56162000Y-23499983D01*
X56162000Y-24500001D01*
X56162001Y-24500019D01*
X56172500Y-24602796D01*
X56172501Y-24602799D01*
X56205128Y-24701260D01*
X56227686Y-24769334D01*
X56319788Y-24918656D01*
X56443844Y-25042712D01*
X56593166Y-25134814D01*
X56759703Y-25189999D01*
X56862491Y-25200500D01*
X57474902Y-25200499D01*
X57541941Y-25220183D01*
X57562583Y-25236818D01*
X65275681Y-32949916D01*
X65309166Y-33011239D01*
X65312000Y-33037597D01*
X65312000Y-44807491D01*
X65292315Y-44874530D01*
X65253098Y-44913029D01*
X65181344Y-44957287D01*
X65181343Y-44957288D01*
X65087681Y-45050951D01*
X65026358Y-45084436D01*
X64956666Y-45079452D01*
X64912319Y-45050951D01*
X64818657Y-44957289D01*
X64818656Y-44957288D01*
X64696367Y-44881860D01*
X64669336Y-44865187D01*
X64669331Y-44865185D01*
X64656946Y-44861081D01*
X64502797Y-44810001D01*
X64502795Y-44810000D01*
X64400010Y-44799500D01*
X63774998Y-44799500D01*
X63774980Y-44799501D01*
X63672203Y-44810000D01*
X63672200Y-44810001D01*
X63505668Y-44865185D01*
X63505663Y-44865187D01*
X63356342Y-44957289D01*
X63232289Y-45081342D01*
X63140187Y-45230663D01*
X63140185Y-45230668D01*
X63112405Y-45314504D01*
X63072632Y-45371949D01*
X63008116Y-45398772D01*
X62994699Y-45399500D01*
X62799500Y-45399500D01*
X62732461Y-45379815D01*
X62686706Y-45327011D01*
X62675500Y-45275500D01*
X62675500Y-44093245D01*
X62675499Y-44093241D01*
X62660605Y-43961049D01*
X62660604Y-43961045D01*
X62651550Y-43935171D01*
X62601956Y-43793436D01*
X62507481Y-43643081D01*
X62381919Y-43517519D01*
X62381918Y-43517518D01*
X62231565Y-43423044D01*
X62063954Y-43364395D01*
X62063950Y-43364394D01*
X61931758Y-43349500D01*
X61931752Y-43349500D01*
X61268248Y-43349500D01*
X61268241Y-43349500D01*
X61136049Y-43364394D01*
X61136044Y-43364395D01*
X60965197Y-43424177D01*
X60895418Y-43427738D01*
X60883288Y-43424177D01*
X60713843Y-43364885D01*
X60713838Y-43364884D01*
X60581732Y-43350000D01*
X59918267Y-43350000D01*
X59786161Y-43364884D01*
X59786156Y-43364885D01*
X59618654Y-43423497D01*
X59468394Y-43517912D01*
X59342912Y-43643394D01*
X59248496Y-43793655D01*
X59189884Y-43961161D01*
X59177209Y-44073656D01*
X59177210Y-44073658D01*
X60250000Y-45146447D01*
X60488181Y-45384628D01*
X60521666Y-45445951D01*
X60524500Y-45472309D01*
X60524500Y-45527690D01*
X60504815Y-45594729D01*
X60488181Y-45615371D01*
X59177210Y-46926340D01*
X59177209Y-46926342D01*
X59189884Y-47038840D01*
X59248497Y-47206345D01*
X59342912Y-47356605D01*
X59468394Y-47482087D01*
X59618654Y-47576502D01*
X59786156Y-47635114D01*
X59786161Y-47635115D01*
X59918267Y-47649999D01*
X59918271Y-47650000D01*
X60581729Y-47650000D01*
X60581732Y-47649999D01*
X60713838Y-47635115D01*
X60713848Y-47635113D01*
X60883285Y-47575823D01*
X60953064Y-47572260D01*
X60965195Y-47575822D01*
X60968436Y-47576956D01*
X61136044Y-47635604D01*
X61136045Y-47635604D01*
X61136049Y-47635605D01*
X61225133Y-47645642D01*
X61268242Y-47650499D01*
X61268245Y-47650500D01*
X61268248Y-47650500D01*
X61931755Y-47650500D01*
X61931756Y-47650499D01*
X61997854Y-47643052D01*
X62063950Y-47635605D01*
X62063952Y-47635604D01*
X62063956Y-47635604D01*
X62231564Y-47576956D01*
X62381919Y-47482481D01*
X62507481Y-47356919D01*
X62601956Y-47206564D01*
X62660604Y-47038956D01*
X62675500Y-46906752D01*
X62675500Y-46724500D01*
X62695185Y-46657461D01*
X62747989Y-46611706D01*
X62799500Y-46600500D01*
X62994699Y-46600500D01*
X63061738Y-46620185D01*
X63107493Y-46672989D01*
X63112403Y-46685492D01*
X63140186Y-46769334D01*
X63232288Y-46918656D01*
X63356344Y-47042712D01*
X63505666Y-47134814D01*
X63632394Y-47176807D01*
X63689837Y-47216578D01*
X63716661Y-47281094D01*
X63704346Y-47349870D01*
X63681070Y-47382193D01*
X59301286Y-51761978D01*
X59189481Y-51873782D01*
X59189480Y-51873784D01*
X59153211Y-51936604D01*
X59110423Y-52010715D01*
X59069499Y-52163443D01*
X59069499Y-52163445D01*
X59069499Y-52188000D01*
X59049814Y-52255039D01*
X58997010Y-52300794D01*
X58945499Y-52312000D01*
X39192508Y-52312000D01*
X39125469Y-52292315D01*
X39086969Y-52253097D01*
X39046817Y-52188000D01*
X39042712Y-52181344D01*
X38949049Y-52087681D01*
X38915564Y-52026358D01*
X38920548Y-51956666D01*
X38949049Y-51912319D01*
X38987586Y-51873782D01*
X39042712Y-51818656D01*
X39134814Y-51669334D01*
X39189999Y-51502797D01*
X39200500Y-51400009D01*
X39200499Y-50774992D01*
X39198994Y-50760263D01*
X39189999Y-50672203D01*
X39189998Y-50672200D01*
X39175365Y-50628040D01*
X39134814Y-50505666D01*
X39042712Y-50356344D01*
X38918656Y-50232288D01*
X38769334Y-50140186D01*
X38602797Y-50085001D01*
X38602795Y-50085000D01*
X38500010Y-50074500D01*
X37499998Y-50074500D01*
X37499980Y-50074501D01*
X37397203Y-50085000D01*
X37397199Y-50085001D01*
X37347399Y-50101504D01*
X37277570Y-50103906D01*
X37220714Y-50071479D01*
X36986818Y-49837583D01*
X36953333Y-49776260D01*
X36950499Y-49749902D01*
X36950499Y-49176662D01*
X36950498Y-49176644D01*
X36940349Y-49077292D01*
X36940348Y-49077289D01*
X36887003Y-48916303D01*
X36886999Y-48916297D01*
X36886998Y-48916294D01*
X36797970Y-48771959D01*
X36797967Y-48771955D01*
X36678044Y-48652032D01*
X36678040Y-48652029D01*
X36533705Y-48563001D01*
X36533699Y-48562998D01*
X36533697Y-48562997D01*
X36533694Y-48562996D01*
X36372709Y-48509651D01*
X36273346Y-48499500D01*
X35726662Y-48499500D01*
X35726644Y-48499501D01*
X35627292Y-48509650D01*
X35627289Y-48509651D01*
X35466305Y-48562996D01*
X35466294Y-48563001D01*
X35321959Y-48652029D01*
X35321955Y-48652032D01*
X35202032Y-48771955D01*
X35202029Y-48771959D01*
X35113001Y-48916294D01*
X35112996Y-48916305D01*
X35059651Y-49077290D01*
X35049500Y-49176647D01*
X34000000Y-49176647D01*
X34000000Y-47339429D01*
X35314124Y-47339429D01*
X35322267Y-47347572D01*
X35322271Y-47347575D01*
X35466507Y-47436542D01*
X35466518Y-47436547D01*
X35627393Y-47489855D01*
X35726683Y-47499999D01*
X36273307Y-47499999D01*
X36273323Y-47499998D01*
X36372607Y-47489855D01*
X36533481Y-47436547D01*
X36533492Y-47436542D01*
X36677728Y-47347575D01*
X36677732Y-47347572D01*
X36685876Y-47339429D01*
X36000000Y-46653553D01*
X35314124Y-47339429D01*
X34000000Y-47339429D01*
X34000000Y-45776673D01*
X35050000Y-45776673D01*
X35050000Y-46823307D01*
X35050001Y-46823322D01*
X35056779Y-46889666D01*
X35056779Y-46889667D01*
X35646447Y-46300000D01*
X35646447Y-46299999D01*
X36353553Y-46299999D01*
X36353553Y-46300000D01*
X36943220Y-46889667D01*
X36949999Y-46823321D01*
X36949999Y-46221447D01*
X59175000Y-46221447D01*
X59896447Y-45500000D01*
X59896447Y-45499999D01*
X59175000Y-44778552D01*
X59175000Y-46221447D01*
X36949999Y-46221447D01*
X36949999Y-45776691D01*
X36949998Y-45776678D01*
X36943219Y-45710332D01*
X36353553Y-46299999D01*
X35646447Y-46299999D01*
X35056778Y-45710330D01*
X35056777Y-45710331D01*
X35050000Y-45776673D01*
X34000000Y-45776673D01*
X34000000Y-45260571D01*
X35314124Y-45260571D01*
X36000000Y-45946447D01*
X36685876Y-45260571D01*
X36677732Y-45252427D01*
X36677728Y-45252424D01*
X36533492Y-45163457D01*
X36533481Y-45163452D01*
X36372606Y-45110144D01*
X36273316Y-45100000D01*
X35726692Y-45100000D01*
X35726676Y-45100001D01*
X35627392Y-45110144D01*
X35466518Y-45163452D01*
X35466507Y-45163457D01*
X35322271Y-45252424D01*
X35322267Y-45252427D01*
X35314124Y-45260571D01*
X34000000Y-45260571D01*
X34000000Y-38051362D01*
X34019685Y-37984323D01*
X34036319Y-37963681D01*
X51713681Y-20286319D01*
X51775004Y-20252834D01*
X51801362Y-20250000D01*
X71698638Y-20250000D01*
X71765677Y-20269685D01*
G37*
%TD.AperFunction*%
%TD*%
M02*
